VelekaWorld-Regular.ufo
<glyph name="parenleft" format="2">
  <advance width="375"/>
  <unicode hex="0028"/>
  <outline>
    <contour>
      <point x="343" y="-142" type="line"/>
      <point x="157" y="-120"/>
      <point x="59" y="28"/>
      <point x="59" y="288" type="curve" smooth="yes"/>
      <point x="59" y="545"/>
      <point x="159" y="696"/>
      <point x="343" y="717" type="curve"/>
      <point x="343" y="673" type="line"/>
      <point x="212" y="651"/>
      <point x="152" y="529"/>
      <point x="152" y="288" type="curve" smooth="yes"/>
      <point x="152" y="46"/>
      <point x="212" y="-76"/>
      <point x="343" y="-98" type="curve"/>
    </contour>
  </outline>
</glyph>
<glyph name="parenright" format="2">
  <advance width="375"/>
  <unicode hex="0029"/>
  <outline>
    <contour>
      <point x="34" y="-142" type="curve"/>
      <point x="34" y="-98" type="line"/>
      <point x="165" y="-76"/>
      <point x="224" y="44"/>
      <point x="224" y="289" type="curve" smooth="yes"/>
      <point x="224" y="531"/>
      <point x="164" y="652"/>
      <point x="34" y="674" type="curve"/>
      <point x="34" y="718" type="line"/>
      <point x="219" y="696"/>
      <point x="318" y="547"/>
      <point x="318" y="289" type="curve" smooth="yes"/>
      <point x="318" y="28"/>
      <point x="220" y="-120"/>
    </contour>
  </outline>
</glyph>
<glyph name="comma" format="2">
  <advance width="279"/>
  <unicode hex="002C"/>
  <outline>
    <contour>
      <point x="33" y="-134" type="line"/>
      <point x="103" y="-118"/>
      <point x="143" y="-65"/>
      <point x="143" y="7" type="curve"/>
      <point x="80" y="7" type="line"/>
      <point x="70" y="17"/>
      <point x="62" y="33"/>
      <point x="62" y="53" type="curve" smooth="yes"/>
      <point x="62" y="89"/>
      <point x="90" y="122"/>
      <point x="130" y="122" type="curve" smooth="yes"/>
      <point x="187" y="122"/>
      <point x="208" y="82"/>
      <point x="208" y="35" type="curve" smooth="yes"/>
      <point x="208" y="-81"/>
      <point x="128" y="-161"/>
      <point x="33" y="-170" type="curve"/>
    </contour>
  </outline>
</glyph>
<glyph name="period" format="2">
  <advance width="279"/>
  <unicode hex="002E"/>
  <outline>
    <contour>
      <point x="61" y="55" type="curve" smooth="yes"/>
      <point x="61" y="93"/>
      <point x="90" y="122"/>
      <point x="128" y="122" type="curve" smooth="yes"/>
      <point x="166" y="122"/>
      <point x="195" y="93"/>
      <point x="195" y="55" type="curve" smooth="yes"/>
      <point x="195" y="17"/>
      <point x="166" y="-12"/>
      <point x="128" y="-12" type="curve" smooth="yes"/>
      <point x="90" y="-12"/>
      <point x="61" y="17"/>
    </contour>
  </outline>
</glyph>
<glyph name="slash" format="2">
  <advance width="490"/>
  <unicode hex="002F"/>
  <outline>
    <contour>
      <point x="0" y="-93" type="line"/>
      <point x="426" y="671" type="line"/>
      <point x="490" y="671" type="line"/>
      <point x="64" y="-93" type="line"/>
    </contour>
  </outline>
</glyph>
<glyph name="zero" format="2">
  <advance width="562"/>
  <unicode hex="0030"/>
  <outline>
    <contour>
      <point x="40" y="335" type="curve" smooth="yes"/>
      <point x="40" y="486"/>
      <point x="98" y="687"/>
      <point x="281" y="687" type="curve" smooth="yes"/>
      <point x="464" y="687"/>
      <point x="522" y="486"/>
      <point x="522" y="335" type="curve" smooth="yes"/>
      <point x="522" y="184"/>
      <point x="464" y="-17"/>
      <point x="281" y="-17" type="curve" smooth="yes"/>
      <point x="98" y="-17"/>
      <point x="40" y="184"/>
    </contour>
    <contour>
      <point x="145" y="335" type="curve" smooth="yes"/>
      <point x="145" y="249"/>
      <point x="154" y="34"/>
      <point x="280" y="34" type="curve" smooth="yes"/>
      <point x="406" y="34"/>
      <point x="417" y="249"/>
      <point x="417" y="335" type="curve" smooth="yes"/>
      <point x="417" y="421"/>
      <point x="406" y="637"/>
      <point x="280" y="637" type="curve" smooth="yes"/>
      <point x="154" y="637"/>
      <point x="145" y="421"/>
    </contour>
  </outline>
</glyph>
<glyph name="two" format="2">
  <advance width="562"/>
  <unicode hex="0032"/>
  <outline>
    <contour>
      <point x="45" y="0" type="line"/>
      <point x="45" y="67" type="line"/>
      <point x="278" y="210"/>
      <point x="395" y="349"/>
      <point x="395" y="482" type="curve" smooth="yes"/>
      <point x="395" y="573"/>
      <point x="338" y="633"/>
      <point x="253" y="633" type="curve" smooth="yes"/>
      <point x="225" y="633"/>
      <point x="195" y="624"/>
      <point x="170" y="607" type="curve"/>
      <point x="170" y="496" type="line"/>
      <point x="159" y="485"/>
      <point x="138" y="477"/>
      <point x="119" y="477" type="curve" smooth="yes"/>
      <point x="82" y="477"/>
      <point x="59" y="500"/>
      <point x="59" y="536" type="curve" smooth="yes"/>
      <point x="59" y="621"/>
      <point x="154" y="685"/>
      <point x="279" y="685" type="curve" smooth="yes"/>
      <point x="413" y="685"/>
      <point x="502" y="608"/>
      <point x="502" y="491" type="curve" smooth="yes"/>
      <point x="502" y="364"/>
      <point x="382" y="226"/>
      <point x="151" y="84" type="curve"/>
      <point x="447" y="84" type="line"/>
      <point x="465" y="170" type="line"/>
      <point x="514" y="170" type="line"/>
      <point x="514" y="0" type="line"/>
    </contour>
  </outline>
</glyph>
<glyph name="three" format="2">
  <advance width="562"/>
  <unicode hex="0033"/>
  <outline>
    <contour>
      <point x="47" y="101" type="curve" smooth="yes"/>
      <point x="47" y="134"/>
      <point x="72" y="155"/>
      <point x="106" y="155" type="curve" smooth="yes"/>
      <point x="116" y="155"/>
      <point x="134" y="152"/>
      <point x="140" y="148" type="curve"/>
      <point x="170" y="59" type="line"/>
      <point x="194" y="43"/>
      <point x="222" y="33"/>
      <point x="257" y="33" type="curve" smooth="yes"/>
      <point x="348" y="33"/>
      <point x="413" y="101"/>
      <point x="413" y="191" type="curve" smooth="yes"/>
      <point x="413" y="278"/>
      <point x="348" y="317"/>
      <point x="263" y="317" type="curve" smooth="yes"/>
      <point x="241" y="317"/>
      <point x="221" y="315"/>
      <point x="202" y="313" type="curve"/>
      <point x="202" y="375" type="line"/>
      <point x="207" y="374"/>
      <point x="221" y="374"/>
      <point x="227" y="374" type="curve" smooth="yes"/>
      <point x="316" y="374"/>
      <point x="387" y="413"/>
      <point x="387" y="501" type="curve" smooth="yes"/>
      <point x="387" y="580"/>
      <point x="334" y="632"/>
      <point x="256" y="632" type="curve" smooth="yes"/>
      <point x="219" y="632"/>
      <point x="188" y="620"/>
      <point x="167" y="604" type="curve"/>
      <point x="167" y="504" type="line"/>
      <point x="157" y="499"/>
      <point x="140" y="491"/>
      <point x="121" y="491" type="curve" smooth="yes"/>
      <point x="87" y="491"/>
      <point x="63" y="511"/>
      <point x="63" y="547" type="curve" smooth="yes"/>
      <point x="63" y="642"/>
      <point x="186" y="687"/>
      <point x="285" y="687" type="curve" smooth="yes"/>
      <point x="399" y="687"/>
      <point x="490" y="628"/>
      <point x="490" y="516" type="curve" smooth="yes"/>
      <point x="490" y="420"/>
      <point x="420" y="372"/>
      <point x="336" y="347" type="curve"/>
      <point x="336" y="351" type="line"/>
      <point x="441" y="351"/>
      <point x="516" y="284"/>
      <point x="516" y="189" type="curve" smooth="yes"/>
      <point x="516" y="54"/>
      <point x="390" y="-18"/>
      <point x="254" y="-18" type="curve" smooth="yes"/>
      <point x="163" y="-18"/>
      <point x="47" y="16"/>
    </contour>
  </outline>
</glyph>
<glyph name="five" format="2">
  <advance width="562"/>
  <unicode hex="0035"/>
  <outline>
    <contour>
      <point x="46" y="102" type="curve" smooth="yes"/>
      <point x="46" y="138"/>
      <point x="73" y="158"/>
      <point x="109" y="158" type="curve" smooth="yes"/>
      <point x="120" y="158"/>
      <point x="137" y="156"/>
      <point x="144" y="154" type="curve"/>
      <point x="173" y="49" type="line"/>
      <point x="189" y="40"/>
      <point x="223" y="33"/>
      <point x="250" y="33" type="curve" smooth="yes"/>
      <point x="344" y="33"/>
      <point x="415" y="103"/>
      <point x="415" y="194" type="curve" smooth="yes"/>
      <point x="415" y="301"/>
      <point x="350" y="359"/>
      <point x="244" y="359" type="curve" smooth="yes"/>
      <point x="185" y="359"/>
      <point x="129" y="341"/>
      <point x="85" y="324" type="curve"/>
      <point x="85" y="671" type="line"/>
      <point x="471" y="671" type="line"/>
      <point x="471" y="586" type="line"/>
      <point x="156" y="586" type="line"/>
      <point x="156" y="396" type="line"/>
      <point x="188" y="407"/>
      <point x="241" y="422"/>
      <point x="292" y="422" type="curve" smooth="yes"/>
      <point x="427" y="422"/>
      <point x="518" y="351"/>
      <point x="518" y="217" type="curve" smooth="yes"/>
      <point x="518" y="59"/>
      <point x="395" y="-16"/>
      <point x="236" y="-16" type="curve" smooth="yes"/>
      <point x="156" y="-16"/>
      <point x="46" y="27"/>
    </contour>
  </outline>
</glyph>
<glyph name="six" format="2">
  <advance width="562"/>
  <unicode hex="0036"/>
  <outline>
    <contour>
      <point x="39" y="287" type="curve" smooth="yes"/>
      <point x="39" y="537"/>
      <point x="189" y="688"/>
      <point x="439" y="688" type="curve"/>
      <point x="439" y="626" type="line"/>
      <point x="405" y="628" type="line"/>
      <point x="269" y="628"/>
      <point x="166" y="526"/>
      <point x="146" y="373" type="curve"/>
      <point x="198" y="417"/>
      <point x="248" y="436"/>
      <point x="313" y="436" type="curve" smooth="yes"/>
      <point x="438" y="436"/>
      <point x="521" y="353"/>
      <point x="521" y="228" type="curve" smooth="yes"/>
      <point x="521" y="83"/>
      <point x="422" y="-17"/>
      <point x="278" y="-17" type="curve" smooth="yes"/>
      <point x="122" y="-17"/>
      <point x="39" y="89"/>
    </contour>
    <contour>
      <point x="145" y="267" type="line" smooth="yes"/>
      <point x="145" y="115"/>
      <point x="191" y="36"/>
      <point x="280" y="36" type="curve" smooth="yes"/>
      <point x="369" y="36"/>
      <point x="421" y="102"/>
      <point x="421" y="216" type="curve" smooth="yes"/>
      <point x="421" y="316"/>
      <point x="370" y="372"/>
      <point x="280" y="372" type="curve" smooth="yes"/>
      <point x="235" y="372"/>
      <point x="191" y="356"/>
      <point x="145" y="322" type="curve"/>
    </contour>
  </outline>
</glyph>
<glyph name="eight" format="2">
  <advance width="562"/>
  <unicode hex="0038"/>
  <outline>
    <contour>
      <point x="40" y="177" type="curve" smooth="yes"/>
      <point x="40" y="253"/>
      <point x="85" y="306"/>
      <point x="183" y="345" type="curve"/>
      <point x="110" y="373"/>
      <point x="67" y="430"/>
      <point x="67" y="497" type="curve" smooth="yes"/>
      <point x="67" y="613"/>
      <point x="150" y="686"/>
      <point x="281" y="686" type="curve" smooth="yes"/>
      <point x="405" y="686"/>
      <point x="495" y="614"/>
      <point x="495" y="514" type="curve" smooth="yes"/>
      <point x="495" y="447"/>
      <point x="450" y="387"/>
      <point x="374" y="352" type="curve"/>
      <point x="476" y="314"/>
      <point x="522" y="261"/>
      <point x="522" y="180" type="curve" smooth="yes"/>
      <point x="522" y="62"/>
      <point x="424" y="-19"/>
      <point x="281" y="-19" type="curve" smooth="yes"/>
      <point x="134" y="-19"/>
      <point x="40" y="57"/>
    </contour>
    <contour>
      <point x="133" y="188" type="curve" smooth="yes"/>
      <point x="133" y="94"/>
      <point x="189" y="38"/>
      <point x="281" y="38" type="curve" smooth="yes"/>
      <point x="362" y="38"/>
      <point x="421" y="90"/>
      <point x="421" y="162" type="curve" smooth="yes"/>
      <point x="421" y="226"/>
      <point x="359" y="277"/>
      <point x="223" y="325" type="curve"/>
      <point x="161" y="292"/>
      <point x="133" y="249"/>
    </contour>
    <contour>
      <point x="167" y="521" type="curve" smooth="yes"/>
      <point x="167" y="456"/>
      <point x="215" y="412"/>
      <point x="331" y="371" type="curve"/>
      <point x="380" y="407"/>
      <point x="404" y="451"/>
      <point x="404" y="505" type="curve" smooth="yes"/>
      <point x="404" y="583"/>
      <point x="355" y="635"/>
      <point x="282" y="635" type="curve" smooth="yes"/>
      <point x="217" y="635"/>
      <point x="167" y="586"/>
    </contour>
  </outline>
</glyph>
<glyph name="question" format="2">
  <advance width="485"/>
  <unicode hex="003F"/>
  <outline>
    <contour>
      <point x="51" y="588" type="curve" smooth="yes"/>
      <point x="51" y="648"/>
      <point x="114" y="687"/>
      <point x="210" y="687" type="curve" smooth="yes"/>
      <point x="334" y="687"/>
      <point x="417" y="616"/>
      <point x="417" y="508" type="curve" smooth="yes"/>
      <point x="417" y="413"/>
      <point x="358" y="346"/>
      <point x="227" y="291" type="curve"/>
      <point x="227" y="180" type="line"/>
      <point x="171" y="180" type="line"/>
      <point x="171" y="325" type="line"/>
      <point x="263" y="357"/>
      <point x="316" y="421"/>
      <point x="316" y="500" type="curve" smooth="yes"/>
      <point x="316" y="591"/>
      <point x="267" y="638"/>
      <point x="173" y="638" type="curve"/>
      <point x="132" y="536" type="line"/>
      <point x="127" y="535"/>
      <point x="121" y="534"/>
      <point x="116" y="534" type="curve" smooth="yes"/>
      <point x="74" y="534"/>
      <point x="51" y="553"/>
    </contour>
    <contour>
      <point x="140" y="49" type="curve" smooth="yes"/>
      <point x="140" y="85"/>
      <point x="165" y="110"/>
      <point x="201" y="110" type="curve" smooth="yes"/>
      <point x="236" y="110"/>
      <point x="263" y="83"/>
      <point x="263" y="48" type="curve" smooth="yes"/>
      <point x="263" y="13"/>
      <point x="236" y="-13"/>
      <point x="201" y="-13" type="curve" smooth="yes"/>
      <point x="166" y="-13"/>
      <point x="140" y="14"/>
    </contour>
  </outline>
</glyph>
<glyph name="A" format="2">
  <advance width="673"/>
  <unicode hex="0041"/>
  <anchor x="337" y="748" name="top"/>
  <anchor x="329" y="640" name="t.ring"/>
  <anchor x="603" y="0" name="b.ogonek"/>
  <anchor x="337" y="-60" name="bottom"/>
  <anchor x="314" y="323" name="c.OCS"/>
  <anchor x="5" y="748" name="left.OCSn"/>
  <outline>
    <contour>
      <point x="5" y="0" type="line"/>
      <point x="5" y="43" type="line"/>
      <point x="63" y="56" type="line"/>
      <point x="296" y="688" type="line"/>
      <point x="371" y="688" type="line"/>
      <point x="603" y="71" type="line" smooth="yes"/>
      <point x="608" y="57"/>
      <point x="611" y="53"/>
      <point x="624" y="51" type="curve" smooth="yes"/>
      <point x="669" y="43" type="line"/>
      <point x="669" y="0" type="line"/>
      <point x="431" y="0" type="line"/>
      <point x="431" y="43" type="line"/>
      <point x="489" y="49" type="line" smooth="yes"/>
      <point x="497" y="50"/>
      <point x="500" y="54"/>
      <point x="500" y="61" type="curve"/>
      <point x="500" y="63"/>
      <point x="500" y="65"/>
      <point x="499" y="66" type="curve"/>
      <point x="430" y="249" type="line"/>
      <point x="199" y="249" type="line"/>
      <point x="133" y="69" type="line"/>
      <point x="132" y="67"/>
      <point x="132" y="65"/>
      <point x="132" y="63" type="curve"/>
      <point x="132" y="54"/>
      <point x="138" y="50"/>
      <point x="147" y="49" type="curve" smooth="yes"/>
      <point x="206" y="43" type="line"/>
      <point x="206" y="0" type="line"/>
    </contour>
    <contour>
      <point x="217" y="296" type="line"/>
      <point x="412" y="296" type="line"/>
      <point x="314" y="558" type="line"/>
    </contour>
  </outline>
  <guideline angle="0" x="0" y="814"/>
  <guideline angle="90" x="5" y="0"/>
</glyph>
<glyph name="E" format="2">
  <advance width="583"/>
  <unicode hex="0045"/>
  <anchor x="291" y="748" name="top"/>
  <anchor x="291" y="-60" name="bottom"/>
  <anchor x="352" y="0" name="b.ogonek"/>
  <anchor x="314" y="323" name="c.OCS"/>
  <anchor x="-54" y="748" name="left.OCSn"/>
  <outline>
    <contour>
      <point x="32" y="0" type="line"/>
      <point x="32" y="43" type="line"/>
      <point x="84" y="47" type="line" smooth="yes"/>
      <point x="96" y="48"/>
      <point x="106" y="57"/>
      <point x="106" y="69" type="curve" smooth="yes"/>
      <point x="106" y="602" type="line" smooth="yes"/>
      <point x="106" y="614"/>
      <point x="96" y="623"/>
      <point x="84" y="624" type="curve" smooth="yes"/>
      <point x="32" y="628" type="line"/>
      <point x="32" y="671" type="line"/>
      <point x="518" y="671" type="line"/>
      <point x="518" y="522" type="line"/>
      <point x="458" y="522" type="line"/>
      <point x="443" y="604" type="line" smooth="yes"/>
      <point x="441.341" y="613.069"/>
      <point x="435" y="623"/>
      <point x="425" y="623" type="curve" smooth="yes"/>
      <point x="208" y="623" type="line"/>
      <point x="208" y="374" type="line"/>
      <point x="358" y="374" type="line" smooth="yes"/>
      <point x="368" y="374"/>
      <point x="374.396" y="379.935"/>
      <point x="376" y="391" type="curve" smooth="yes"/>
      <point x="386" y="460" type="line"/>
      <point x="437" y="460" type="line"/>
      <point x="437" y="237" type="line"/>
      <point x="386" y="237" type="line"/>
      <point x="377" y="306" type="line" smooth="yes"/>
      <point x="375.7" y="315.965"/>
      <point x="370" y="324"/>
      <point x="359" y="324" type="curve" smooth="yes"/>
      <point x="209" y="324" type="line"/>
      <point x="209" y="49" type="line"/>
      <point x="462" y="49" type="line" smooth="yes"/>
      <point x="470" y="49"/>
      <point x="478" y="61"/>
      <point x="479" y="68" type="curve"/>
      <point x="497" y="167" type="line"/>
      <point x="551" y="167" type="line"/>
      <point x="551" y="0" type="line"/>
    </contour>
  </outline>
</glyph>
<glyph name="J" format="2">
  <advance width="484"/>
  <unicode hex="004A"/>
  <anchor x="329" y="748" name="top"/>
  <anchor x="241" y="-60" name="bottom"/>
  <outline>
    <contour>
      <point x="25" y="12" type="curve"/>
      <point x="25" y="183" type="line"/>
      <point x="85" y="183" type="line"/>
      <point x="107" y="61" type="line" smooth="yes"/>
      <point x="111" y="41"/>
      <point x="132" y="34"/>
      <point x="153" y="34" type="curve" smooth="yes"/>
      <point x="261" y="34"/>
      <point x="279" y="134"/>
      <point x="279" y="245" type="curve" smooth="yes"/>
      <point x="279" y="601" type="line" smooth="yes"/>
      <point x="279" y="613"/>
      <point x="270" y="622"/>
      <point x="258" y="623" type="curve" smooth="yes"/>
      <point x="195" y="627" type="line"/>
      <point x="195" y="670" type="line"/>
      <point x="459" y="670" type="line"/>
      <point x="459" y="627" type="line"/>
      <point x="401" y="623" type="line" smooth="yes"/>
      <point x="390" y="622"/>
      <point x="380" y="612"/>
      <point x="380" y="601" type="curve" smooth="yes"/>
      <point x="380" y="252" type="line" smooth="yes"/>
      <point x="380" y="89"/>
      <point x="324" y="-17"/>
      <point x="160" y="-17" type="curve" smooth="yes"/>
      <point x="108" y="-17"/>
      <point x="61" y="-3"/>
    </contour>
  </outline>
</glyph>
<glyph name="P" format="2">
  <advance width="578"/>
  <unicode hex="0050"/>
  <anchor x="281" y="748" name="top"/>
  <anchor x="291" y="323" name="c.OCS"/>
  <anchor x="278" y="-60" name="bottom"/>
  <outline>
    <contour>
      <point x="32" y="628" type="line"/>
      <point x="32" y="671" type="line"/>
      <point x="263" y="671" type="line" smooth="yes"/>
      <point x="428" y="671"/>
      <point x="539" y="632"/>
      <point x="539" y="469" type="curve" smooth="yes"/>
      <point x="539" y="324"/>
      <point x="433" y="251"/>
      <point x="290" y="251" type="curve" smooth="yes"/>
      <point x="263" y="251"/>
      <point x="229" y="253"/>
      <point x="207" y="255" type="curve"/>
      <point x="207" y="69" type="line" smooth="yes"/>
      <point x="207" y="57"/>
      <point x="216" y="48"/>
      <point x="228" y="47" type="curve" smooth="yes"/>
      <point x="294" y="43" type="line"/>
      <point x="294" y="0" type="line"/>
      <point x="39" y="0" type="line"/>
      <point x="39" y="43" type="line"/>
      <point x="84" y="47" type="line" smooth="yes"/>
      <point x="96" y="48"/>
      <point x="106" y="57"/>
      <point x="106" y="69" type="curve" smooth="yes"/>
      <point x="106" y="602" type="line" smooth="yes"/>
      <point x="106" y="614"/>
      <point x="96" y="623"/>
      <point x="84" y="624" type="curve" smooth="yes"/>
    </contour>
    <contour>
      <point x="207" y="306" type="line"/>
      <point x="224" y="303"/>
      <point x="243" y="301"/>
      <point x="263" y="301" type="curve" smooth="yes"/>
      <point x="375" y="301"/>
      <point x="435" y="356"/>
      <point x="435" y="468" type="curve" smooth="yes"/>
      <point x="435" y="579"/>
      <point x="370" y="622"/>
      <point x="258" y="622" type="curve" smooth="yes"/>
      <point x="233" y="622"/>
      <point x="216" y="621"/>
      <point x="207" y="620" type="curve"/>
    </contour>
  </outline>
</glyph>
<glyph name="R" format="2">
  <advance width="648"/>
  <unicode hex="0052"/>
  <anchor x="289" y="748" name="top"/>
  <anchor x="340" y="-60" name="bottom"/>
  <outline>
    <contour>
      <point x="31" y="0" type="line"/>
      <point x="31" y="43" type="line"/>
      <point x="83" y="47" type="line" smooth="yes"/>
      <point x="96" y="48"/>
      <point x="105" y="58"/>
      <point x="105" y="69" type="curve" smooth="yes"/>
      <point x="105" y="602" type="line" smooth="yes"/>
      <point x="105" y="614"/>
      <point x="96" y="623"/>
      <point x="83" y="624" type="curve" smooth="yes"/>
      <point x="31" y="628" type="line"/>
      <point x="31" y="671" type="line"/>
      <point x="292" y="671" type="line" smooth="yes"/>
      <point x="459" y="671"/>
      <point x="537" y="613"/>
      <point x="537" y="489" type="curve" smooth="yes"/>
      <point x="537" y="402"/>
      <point x="483" y="347"/>
      <point x="373" y="323" type="curve"/>
      <point x="450" y="304"/>
      <point x="479" y="263"/>
      <point x="504" y="180" type="curve" smooth="yes"/>
      <point x="535.223" y="76.3412"/>
      <point x="562" y="40"/>
      <point x="648" y="40" type="curve"/>
      <point x="648" y="-5" type="line"/>
      <point x="642" y="-5"/>
      <point x="634.055" y="-7.1548"/>
      <point x="623" y="-11" type="curve" smooth="yes"/>
      <point x="611.053" y="-15.1555"/>
      <point x="597" y="-17"/>
      <point x="581" y="-17" type="curve" smooth="yes"/>
      <point x="493" y="-17"/>
      <point x="458.748" y="22.7565"/>
      <point x="421" y="136" type="curve" smooth="yes"/>
      <point x="381" y="256"/>
      <point x="345" y="299"/>
      <point x="252" y="299" type="curve" smooth="yes"/>
      <point x="206" y="299" type="line"/>
      <point x="206" y="69" type="line" smooth="yes"/>
      <point x="206" y="57"/>
      <point x="215" y="48"/>
      <point x="227" y="47" type="curve" smooth="yes"/>
      <point x="280" y="43" type="line"/>
      <point x="280" y="0" type="line"/>
    </contour>
    <contour>
      <point x="206" y="347" type="line"/>
      <point x="256" y="347" type="line" smooth="yes"/>
      <point x="375" y="347"/>
      <point x="428" y="390"/>
      <point x="428" y="489" type="curve" smooth="yes"/>
      <point x="428" y="579"/>
      <point x="371" y="622"/>
      <point x="252" y="622" type="curve" smooth="yes"/>
      <point x="206" y="622" type="line"/>
    </contour>
  </outline>
</glyph>
<glyph name="X" format="2">
  <advance width="633"/>
  <unicode hex="0058"/>
  <anchor x="316" y="748" name="top"/>
  <anchor x="318" y="323" name="c.OCS"/>
  <anchor x="318" y="-60" name="bottom"/>
  <outline>
    <contour>
      <point x="11" y="0" type="line"/>
      <point x="11" y="43" type="line"/>
      <point x="71" y="55" type="line"/>
      <point x="272" y="331" type="line"/>
      <point x="90" y="616" type="line"/>
      <point x="24" y="628" type="line"/>
      <point x="24" y="671.5" type="line"/>
      <point x="275" y="671.5" type="line"/>
      <point x="275" y="628" type="line"/>
      <point x="224" y="623" type="line" smooth="yes"/>
      <point x="211" y="622"/>
      <point x="205" y="614"/>
      <point x="212" y="603" type="curve" smooth="yes"/>
      <point x="334" y="415" type="line"/>
      <point x="469" y="600" type="line" smooth="yes"/>
      <point x="476" y="610"/>
      <point x="465" y="620"/>
      <point x="457" y="621" type="curve" smooth="yes"/>
      <point x="406" y="628" type="line"/>
      <point x="406" y="672" type="line"/>
      <point x="615" y="672" type="line"/>
      <point x="615" y="628" type="line"/>
      <point x="551" y="618" type="line"/>
      <point x="365" y="363" type="line"/>
      <point x="562" y="55" type="line"/>
      <point x="624" y="43" type="line"/>
      <point x="624" y="0" type="line"/>
      <point x="367.5" y="0" type="line"/>
      <point x="367.5" y="43" type="line"/>
      <point x="426" y="49" type="line" smooth="yes"/>
      <point x="435" y="50"/>
      <point x="445" y="59"/>
      <point x="438" y="70" type="curve" smooth="yes"/>
      <point x="305" y="279" type="line"/>
      <point x="151" y="67" type="line"/>
      <point x="143" y="57"/>
      <point x="151" y="49"/>
      <point x="163" y="48" type="curve" smooth="yes"/>
      <point x="223" y="43" type="line"/>
      <point x="223" y="0" type="line"/>
    </contour>
  </outline>
</glyph>
<glyph name="Y" format="2">
  <advance width="626"/>
  <unicode hex="0059"/>
  <anchor x="326" y="748" name="top"/>
  <anchor x="313" y="-60" name="bottom"/>
  <outline>
    <contour>
      <point x="10" y="628" type="line"/>
      <point x="10" y="671" type="line"/>
      <point x="247" y="671" type="line"/>
      <point x="247" y="628" type="line"/>
      <point x="197" y="623" type="line" smooth="yes"/>
      <point x="188" y="622"/>
      <point x="182" y="618"/>
      <point x="182" y="612" type="curve" smooth="yes"/>
      <point x="182" y="609"/>
      <point x="183" y="606"/>
      <point x="185" y="603" type="curve"/>
      <point x="326" y="342" type="line"/>
      <point x="481" y="600" type="line"/>
      <point x="482" y="602"/>
      <point x="483" y="605"/>
      <point x="483" y="607" type="curve" smooth="yes"/>
      <point x="483" y="615"/>
      <point x="475" y="620"/>
      <point x="469" y="621" type="curve"/>
      <point x="413" y="628" type="line"/>
      <point x="413" y="671" type="line"/>
      <point x="616" y="671" type="line"/>
      <point x="616" y="628" type="line"/>
      <point x="562" y="618" type="line"/>
      <point x="361" y="285" type="line"/>
      <point x="361" y="69" type="line" smooth="yes"/>
      <point x="361" y="58"/>
      <point x="371" y="48"/>
      <point x="382" y="47" type="curve"/>
      <point x="446" y="43" type="line"/>
      <point x="446" y="0" type="line"/>
      <point x="176" y="0" type="line"/>
      <point x="176" y="43" type="line"/>
      <point x="238" y="47" type="line" smooth="yes"/>
      <point x="250" y="48"/>
      <point x="260" y="57"/>
      <point x="260" y="69" type="curve" smooth="yes"/>
      <point x="260" y="270" type="line"/>
      <point x="68" y="616" type="line"/>
    </contour>
  </outline>
</glyph>
<glyph name="Z" format="2">
  <advance width="575"/>
  <unicode hex="005A"/>
  <anchor x="287" y="748" name="top"/>
  <anchor x="287" y="-60" name="bottom"/>
  <outline>
    <contour>
      <point x="39" y="0" type="line"/>
      <point x="39" y="44" type="line"/>
      <point x="411" y="621" type="line"/>
      <point x="151" y="621" type="line" smooth="yes"/>
      <point x="141" y="621"/>
      <point x="136" y="612"/>
      <point x="134" y="604" type="curve"/>
      <point x="119" y="511" type="line"/>
      <point x="60" y="511" type="line"/>
      <point x="60" y="671" type="line"/>
      <point x="531" y="671" type="line"/>
      <point x="531" y="625" type="line"/>
      <point x="158" y="51" type="line"/>
      <point x="443" y="51" type="line" smooth="yes"/>
      <point x="453" y="51"/>
      <point x="458" y="61"/>
      <point x="460" y="69" type="curve"/>
      <point x="477" y="185" type="line"/>
      <point x="536" y="185" type="line"/>
      <point x="536" y="0" type="line"/>
    </contour>
  </outline>
</glyph>
<glyph name="bracketleft" format="2">
  <advance width="347"/>
  <unicode hex="005B"/>
  <outline>
    <contour>
      <point x="80" y="-132" type="line"/>
      <point x="80" y="708" type="line"/>
      <point x="323" y="708" type="line"/>
      <point x="323" y="663" type="line"/>
      <point x="167" y="663" type="line"/>
      <point x="167" y="-86" type="line"/>
      <point x="323" y="-86" type="line"/>
      <point x="323" y="-132" type="line"/>
    </contour>
  </outline>
</glyph>
<glyph name="bracketright" format="2">
  <advance width="347"/>
  <unicode hex="005D"/>
  <outline>
    <contour>
      <point x="23" y="-86" type="line"/>
      <point x="180" y="-86" type="line"/>
      <point x="180" y="663" type="line"/>
      <point x="23" y="663" type="line"/>
      <point x="23" y="708" type="line"/>
      <point x="267" y="708" type="line"/>
      <point x="267" y="-132" type="line"/>
      <point x="23" y="-132" type="line"/>
    </contour>
  </outline>
</glyph>
<glyph name="asciicircum" format="2">
  <advance width="327"/>
  <unicode hex="005E"/>
  <outline>
    <contour>
      <point x="0" y="551" type="line"/>
      <point x="126" y="720" type="line"/>
      <point x="202" y="720" type="line"/>
      <point x="328" y="551" type="line"/>
      <point x="268" y="551" type="line"/>
      <point x="165" y="650" type="line"/>
      <point x="61" y="551" type="line"/>
    </contour>
  </outline>
</glyph>
<glyph name="grave" format="2">
  <advance width="283"/>
  <unicode hex="0060"/>
  <outline>
    <contour>
      <point x="30" y="697" type="curve" smooth="yes"/>
      <point x="30" y="725"/>
      <point x="48" y="742"/>
      <point x="76" y="742" type="curve" smooth="yes"/>
      <point x="106" y="742"/>
      <point x="116" y="731"/>
      <point x="130" y="715" type="curve" smooth="yes"/>
      <point x="263" y="560" type="line"/>
      <point x="206" y="560" type="line"/>
      <point x="54" y="657" type="line" smooth="yes"/>
      <point x="40" y="666"/>
      <point x="30" y="679"/>
    </contour>
  </outline>
</glyph>
<glyph name="a" format="2">
  <advance width="508"/>
  <unicode hex="0061"/>
  <anchor x="264" y="560" name="top"/>
  <anchor x="262" y="-60" name="bottom"/>
  <anchor x="264" y="560" name="t.ring"/>
  <anchor x="438" y="0" name="b.ogonek"/>
  <outline>
    <contour>
      <point x="33" y="121" type="curve" smooth="yes"/>
      <point x="33" y="201"/>
      <point x="127" y="259"/>
      <point x="330" y="303" type="curve"/>
      <point x="330" y="346" type="line" smooth="yes"/>
      <point x="330" y="414"/>
      <point x="302" y="448"/>
      <point x="237" y="448" type="curve" smooth="yes"/>
      <point x="210" y="448"/>
      <point x="182" y="441"/>
      <point x="166" y="432" type="curve"/>
      <point x="166" y="345" type="line"/>
      <point x="93" y="345" type="line" smooth="yes"/>
      <point x="71" y="345"/>
      <point x="56" y="351"/>
      <point x="56" y="374" type="curve" smooth="yes"/>
      <point x="56" y="458"/>
      <point x="174" y="495"/>
      <point x="264" y="495" type="curve" smooth="yes"/>
      <point x="370" y="495"/>
      <point x="422" y="448"/>
      <point x="422" y="343" type="curve" smooth="yes"/>
      <point x="422" y="63" type="line" smooth="yes"/>
      <point x="422" y="51"/>
      <point x="432" y="43"/>
      <point x="443" y="42" type="curve"/>
      <point x="491" y="39" type="line"/>
      <point x="491" y="0" type="line"/>
      <point x="343" y="0" type="line"/>
      <point x="330" y="59" type="line"/>
      <point x="284" y="24"/>
      <point x="226" y="-13"/>
      <point x="162" y="-13" type="curve" smooth="yes"/>
      <point x="88" y="-13"/>
      <point x="33" y="44"/>
    </contour>
    <contour>
      <point x="133" y="129" type="curve" smooth="yes"/>
      <point x="133" y="81"/>
      <point x="160" y="45"/>
      <point x="207" y="45" type="curve" smooth="yes"/>
      <point x="249" y="45"/>
      <point x="295" y="68"/>
      <point x="330" y="92" type="curve"/>
      <point x="330" y="265" type="line"/>
      <point x="192" y="231"/>
      <point x="133" y="191"/>
    </contour>
  </outline>
</glyph>
<glyph name="f" format="2">
  <advance width="326"/>
  <unicode hex="0066"/>
  <anchor x="274" y="748" name="top"/>
  <anchor x="145" y="-60" name="bottom"/>
  <anchor x="272" y="20" name="b.0321"/>
  <outline>
    <contour>
      <point x="29" y="0" type="line"/>
      <point x="29" y="39" type="line"/>
      <point x="78" y="43" type="line" smooth="yes"/>
      <point x="89" y="44"/>
      <point x="99" y="52"/>
      <point x="99" y="63" type="curve" smooth="yes"/>
      <point x="99" y="421" type="line"/>
      <point x="35" y="421" type="line"/>
      <point x="35" y="456" type="line"/>
      <point x="99" y="474" type="line"/>
      <point x="99" y="624"/>
      <point x="186" y="735"/>
      <point x="303" y="735" type="curve" smooth="yes"/>
      <point x="346" y="735"/>
      <point x="390" y="717"/>
      <point x="390" y="676" type="curve" smooth="yes"/>
      <point x="390" y="650"/>
      <point x="375" y="632"/>
      <point x="344" y="623" type="curve"/>
      <point x="251" y="688" type="line"/>
      <point x="207" y="664"/>
      <point x="192" y="607"/>
      <point x="192" y="536" type="curve" smooth="yes"/>
      <point x="192" y="472" type="line"/>
      <point x="316" y="472" type="line"/>
      <point x="316" y="421" type="line"/>
      <point x="192" y="421" type="line"/>
      <point x="192" y="63" type="line" smooth="yes"/>
      <point x="192" y="52"/>
      <point x="202" y="44"/>
      <point x="213" y="43" type="curve" smooth="yes"/>
      <point x="272" y="39" type="line"/>
      <point x="272" y="0" type="line"/>
    </contour>
  </outline>
</glyph>
<glyph name="h" format="2">
  <advance width="574"/>
  <unicode hex="0068"/>
  <anchor x="291" y="748" name="top"/>
  <anchor x="270" y="-60" name="bottom"/>
  <anchor x="157" y="10" name="b.cedilla"/>
  <outline>
    <contour>
      <point x="14" y="666" type="line"/>
      <point x="14" y="699" type="line"/>
      <point x="142" y="738" type="line"/>
      <point x="182" y="738" type="line"/>
      <point x="182" y="433" type="line"/>
      <point x="250" y="476"/>
      <point x="302" y="495"/>
      <point x="347" y="495" type="curve" smooth="yes"/>
      <point x="432" y="495"/>
      <point x="483" y="439"/>
      <point x="483" y="344" type="curve" smooth="yes"/>
      <point x="483" y="63" type="line" smooth="yes"/>
      <point x="483" y="51"/>
      <point x="494" y="43"/>
      <point x="505" y="42" type="curve" smooth="yes"/>
      <point x="550" y="39" type="line"/>
      <point x="550" y="0" type="line"/>
      <point x="327" y="0" type="line"/>
      <point x="327" y="39" type="line"/>
      <point x="368" y="42" type="line" smooth="yes"/>
      <point x="379" y="43"/>
      <point x="390" y="51"/>
      <point x="390" y="63" type="curve" smooth="yes"/>
      <point x="390" y="323" type="line" smooth="yes"/>
      <point x="390" y="390"/>
      <point x="358" y="422"/>
      <point x="291" y="422" type="curve" smooth="yes"/>
      <point x="254" y="422"/>
      <point x="217" y="412"/>
      <point x="182" y="393" type="curve"/>
      <point x="182" y="63" type="line" smooth="yes"/>
      <point x="182" y="51"/>
      <point x="191" y="43"/>
      <point x="202" y="42" type="curve" smooth="yes"/>
      <point x="245" y="39" type="line"/>
      <point x="245" y="0" type="line"/>
      <point x="20" y="0" type="line"/>
      <point x="20" y="39" type="line"/>
      <point x="68" y="42" type="line"/>
      <point x="79" y="43"/>
      <point x="89" y="51"/>
      <point x="89" y="63" type="curve" smooth="yes"/>
      <point x="89" y="666" type="line"/>
    </contour>
  </outline>
</glyph>
<glyph name="l" format="2">
  <advance width="296"/>
  <unicode hex="006C"/>
  <anchor x="148" y="748" name="top"/>
  <anchor x="149" y="-60" name="bottom"/>
  <anchor x="230" y="740" name="t.r.caron"/>
  <anchor x="315" y="340" name="center"/>
  <anchor x="270" y="20" name="b.0321"/>
  <outline>
    <contour>
      <point x="26" y="665" type="line"/>
      <point x="26" y="698" type="line"/>
      <point x="154" y="737" type="line"/>
      <point x="195" y="737" type="line"/>
      <point x="195" y="63" type="line" smooth="yes"/>
      <point x="195" y="54"/>
      <point x="207" y="42"/>
      <point x="216" y="42" type="curve"/>
      <point x="270" y="39" type="line"/>
      <point x="270" y="0" type="line"/>
      <point x="27" y="0" type="line"/>
      <point x="27" y="39" type="line"/>
      <point x="80" y="42" type="line"/>
      <point x="89" y="43"/>
      <point x="102" y="54"/>
      <point x="102" y="63" type="curve" smooth="yes"/>
      <point x="102" y="665" type="line"/>
    </contour>
  </outline>
</glyph>
<glyph name="s" format="2">
  <advance width="397"/>
  <unicode hex="0073"/>
  <anchor x="198" y="560" name="top"/>
  <anchor x="198" y="-60" name="bottom"/>
  <anchor x="216" y="10" name="b.cedilla"/>
  <outline>
    <contour>
      <point x="33" y="11" type="curve"/>
      <point x="33" y="144" type="line"/>
      <point x="84" y="144" type="line"/>
      <point x="96" y="59" type="line"/>
      <point x="117" y="45"/>
      <point x="148" y="30"/>
      <point x="185" y="30" type="curve" smooth="yes"/>
      <point x="235" y="30"/>
      <point x="275" y="59"/>
      <point x="275" y="109" type="curve" smooth="yes"/>
      <point x="275" y="158"/>
      <point x="239" y="179"/>
      <point x="204" y="195" type="curve" smooth="yes"/>
      <point x="122" y="234" type="line" smooth="yes"/>
      <point x="76" y="256"/>
      <point x="40" y="288"/>
      <point x="40" y="346" type="curve" smooth="yes"/>
      <point x="40" y="448"/>
      <point x="118" y="493"/>
      <point x="220" y="493" type="curve" smooth="yes"/>
      <point x="265" y="493"/>
      <point x="320" y="481"/>
      <point x="349" y="471" type="curve"/>
      <point x="349" y="353" type="line"/>
      <point x="297" y="353" type="line"/>
      <point x="289" y="423" type="line"/>
      <point x="273" y="435"/>
      <point x="241" y="449"/>
      <point x="213" y="449" type="curve" smooth="yes"/>
      <point x="182" y="449"/>
      <point x="131" y="432"/>
      <point x="131" y="377" type="curve" smooth="yes"/>
      <point x="131" y="333"/>
      <point x="158" y="315"/>
      <point x="189" y="300" type="curve" smooth="yes"/>
      <point x="268" y="263" type="line" smooth="yes"/>
      <point x="328" y="235"/>
      <point x="363" y="214"/>
      <point x="363" y="140" type="curve" smooth="yes"/>
      <point x="363" y="33"/>
      <point x="281" y="-14"/>
      <point x="172" y="-14" type="curve" smooth="yes"/>
      <point x="118" y="-14"/>
      <point x="71" y="-3"/>
    </contour>
  </outline>
</glyph>
<glyph name="u" format="2">
  <advance width="568"/>
  <unicode hex="0075"/>
  <anchor x="274" y="560" name="top"/>
  <anchor x="300" y="-60" name="bottom"/>
  <anchor x="274" y="560" name="t.ring"/>
  <anchor x="506" y="0" name="b.ogonek"/>
  <outline>
    <contour>
      <point x="20" y="409" type="line"/>
      <point x="20" y="443" type="line"/>
      <point x="143" y="482" type="line"/>
      <point x="183" y="482" type="line"/>
      <point x="183" y="169" type="line" smooth="yes"/>
      <point x="183" y="98"/>
      <point x="209" y="56"/>
      <point x="280" y="56" type="curve" smooth="yes"/>
      <point x="316" y="56"/>
      <point x="349" y="64"/>
      <point x="389" y="84" type="curve"/>
      <point x="389" y="409" type="line"/>
      <point x="319" y="409" type="line"/>
      <point x="319" y="443" type="line"/>
      <point x="441" y="482" type="line"/>
      <point x="482" y="482" type="line"/>
      <point x="482" y="64" type="line" smooth="yes"/>
      <point x="482" y="52"/>
      <point x="493" y="44"/>
      <point x="504" y="43" type="curve" smooth="yes"/>
      <point x="548" y="39" type="line"/>
      <point x="548" y="0" type="line"/>
      <point x="389" y="0" type="line"/>
      <point x="389" y="56" type="line"/>
      <point x="329" y="10"/>
      <point x="276" y="-12"/>
      <point x="228" y="-12" type="curve" smooth="yes"/>
      <point x="130" y="-12"/>
      <point x="90" y="50"/>
      <point x="90" y="150" type="curve" smooth="yes"/>
      <point x="90" y="409" type="line"/>
    </contour>
  </outline>
</glyph>
<glyph name="v" format="2">
  <advance width="528"/>
  <unicode hex="0076"/>
  <anchor x="274" y="560" name="top"/>
  <anchor x="270" y="-60" name="bottom"/>
  <outline>
    <contour>
      <point x="10" y="443" type="line"/>
      <point x="10" y="482" type="line"/>
      <point x="231" y="482" type="line"/>
      <point x="231" y="443" type="line"/>
      <point x="183" y="440" type="line"/>
      <point x="175" y="439"/>
      <point x="167" y="432"/>
      <point x="167" y="423" type="curve"/>
      <point x="167" y="421"/>
      <point x="167" y="420"/>
      <point x="168" y="418" type="curve"/>
      <point x="280" y="105" type="line"/>
      <point x="403" y="418" type="line"/>
      <point x="404" y="420"/>
      <point x="404" y="422"/>
      <point x="404" y="424" type="curve"/>
      <point x="404" y="433"/>
      <point x="396" y="439"/>
      <point x="389" y="440" type="curve"/>
      <point x="344" y="443" type="line"/>
      <point x="344" y="482" type="line"/>
      <point x="519" y="482" type="line"/>
      <point x="519" y="443" type="line"/>
      <point x="466" y="437" type="line"/>
      <point x="291" y="0" type="line"/>
      <point x="226" y="0" type="line"/>
      <point x="65" y="437" type="line"/>
    </contour>
  </outline>
</glyph>
<glyph name="w" format="2">
  <advance width="783"/>
  <unicode hex="0077"/>
  <anchor x="406" y="560" name="top"/>
  <anchor x="392" y="-60" name="bottom"/>
  <outline>
    <contour>
      <point x="10" y="442" type="line"/>
      <point x="10" y="481" type="line"/>
      <point x="229" y="481" type="line"/>
      <point x="229" y="442" type="line"/>
      <point x="182" y="439" type="line"/>
      <point x="173" y="438"/>
      <point x="166" y="432"/>
      <point x="166" y="423" type="curve"/>
      <point x="166" y="422"/>
      <point x="167" y="420"/>
      <point x="167" y="418" type="curve"/>
      <point x="250" y="107" type="line"/>
      <point x="379" y="482" type="line"/>
      <point x="450" y="482" type="line"/>
      <point x="566" y="107" type="line"/>
      <point x="658" y="418" type="line"/>
      <point x="658" y="420"/>
      <point x="659" y="421"/>
      <point x="659" y="423" type="curve"/>
      <point x="659" y="432"/>
      <point x="652" y="439"/>
      <point x="644" y="440" type="curve"/>
      <point x="598" y="443" type="line"/>
      <point x="598" y="482" type="line"/>
      <point x="773" y="482" type="line"/>
      <point x="773" y="443" type="line"/>
      <point x="722" y="437" type="line"/>
      <point x="585" y="-1" type="line"/>
      <point x="514" y="-1" type="line"/>
      <point x="396" y="373" type="line"/>
      <point x="264" y="-1" type="line"/>
      <point x="193" y="-1" type="line"/>
      <point x="65" y="436" type="line"/>
    </contour>
  </outline>
</glyph>
<glyph name="y" format="2">
  <advance width="529"/>
  <unicode hex="0079"/>
  <anchor x="274" y="560" name="top"/>
  <anchor x="365" y="-60" name="bottom"/>
  <outline>
    <contour>
      <point x="10" y="443" type="line"/>
      <point x="10" y="482" type="line"/>
      <point x="231" y="482" type="line"/>
      <point x="231" y="443" type="line"/>
      <point x="183" y="440" type="line"/>
      <point x="176" y="439"/>
      <point x="167" y="433"/>
      <point x="167" y="424" type="curve"/>
      <point x="167" y="422"/>
      <point x="167" y="420"/>
      <point x="168" y="418" type="curve"/>
      <point x="284" y="123" type="line"/>
      <point x="403" y="418" type="line"/>
      <point x="404" y="420"/>
      <point x="404" y="422"/>
      <point x="404" y="424" type="curve"/>
      <point x="404" y="433"/>
      <point x="396" y="439"/>
      <point x="389" y="440" type="curve"/>
      <point x="342" y="443" type="line"/>
      <point x="342" y="482" type="line"/>
      <point x="520" y="482" type="line"/>
      <point x="520" y="443" type="line"/>
      <point x="468" y="437" type="line"/>
      <point x="277" y="-31" type="line" smooth="yes"/>
      <point x="260" y="-71"/>
      <point x="238" y="-116"/>
      <point x="215" y="-152" type="curve" smooth="yes"/>
      <point x="191" y="-191"/>
      <point x="158" y="-229"/>
      <point x="98" y="-229" type="curve" smooth="yes"/>
      <point x="54" y="-229"/>
      <point x="25" y="-206"/>
      <point x="25" y="-172" type="curve" smooth="yes"/>
      <point x="25" y="-148"/>
      <point x="34" y="-131"/>
      <point x="57" y="-112" type="curve"/>
      <point x="151" y="-155" type="line"/>
      <point x="188" y="-118"/>
      <point x="216" y="-53"/>
      <point x="235" y="1" type="curve"/>
      <point x="65" y="437" type="line"/>
    </contour>
  </outline>
</glyph>
<glyph name="braceleft" format="2">
  <advance width="487"/>
  <unicode hex="007B"/>
  <outline>
    <contour>
      <point x="58" y="269" type="line"/>
      <point x="58" y="314" type="line"/>
      <point x="75" y="314" type="line" smooth="yes"/>
      <point x="172" y="314"/>
      <point x="203" y="349"/>
      <point x="203" y="445" type="curve" smooth="yes"/>
      <point x="203" y="531" type="line" smooth="yes"/>
      <point x="203" y="651"/>
      <point x="260" y="704"/>
      <point x="400" y="704" type="curve" smooth="yes"/>
      <point x="418" y="704" type="line"/>
      <point x="418" y="663" type="line"/>
      <point x="400" y="663" type="line" smooth="yes"/>
      <point x="319" y="663"/>
      <point x="293" y="625"/>
      <point x="293" y="516" type="curve" smooth="yes"/>
      <point x="293" y="485" type="line" smooth="yes"/>
      <point x="293" y="364"/>
      <point x="257" y="312"/>
      <point x="158" y="289" type="curve"/>
      <point x="158" y="293" type="line"/>
      <point x="258" y="267"/>
      <point x="293" y="216"/>
      <point x="293" y="96" type="curve" smooth="yes"/>
      <point x="293" y="49" type="line" smooth="yes"/>
      <point x="293" y="-40"/>
      <point x="328" y="-82"/>
      <point x="400" y="-82" type="curve" smooth="yes"/>
      <point x="418" y="-82" type="line"/>
      <point x="418" y="-123" type="line"/>
      <point x="400" y="-123" type="line" smooth="yes"/>
      <point x="259" y="-123"/>
      <point x="202" y="-68"/>
      <point x="202" y="51" type="curve" smooth="yes"/>
      <point x="202" y="137" type="line" smooth="yes"/>
      <point x="202" y="233"/>
      <point x="171" y="269"/>
      <point x="75" y="269" type="curve" smooth="yes"/>
    </contour>
  </outline>
</glyph>
<glyph name="braceright" format="2">
  <advance width="487"/>
  <unicode hex="007D"/>
  <outline>
    <contour>
      <point x="69" y="-123" type="line"/>
      <point x="69" y="-82" type="line"/>
      <point x="87" y="-82" type="line" smooth="yes"/>
      <point x="159" y="-82"/>
      <point x="194" y="-40"/>
      <point x="194" y="49" type="curve" smooth="yes"/>
      <point x="194" y="96" type="line" smooth="yes"/>
      <point x="194" y="216"/>
      <point x="229" y="267"/>
      <point x="329" y="293" type="curve"/>
      <point x="329" y="289" type="line"/>
      <point x="230" y="312"/>
      <point x="194" y="364"/>
      <point x="194" y="485" type="curve" smooth="yes"/>
      <point x="194" y="516" type="line" smooth="yes"/>
      <point x="194" y="625"/>
      <point x="168" y="663"/>
      <point x="87" y="663" type="curve" smooth="yes"/>
      <point x="69" y="663" type="line"/>
      <point x="69" y="704" type="line"/>
      <point x="87" y="704" type="line" smooth="yes"/>
      <point x="227" y="704"/>
      <point x="284" y="651"/>
      <point x="284" y="531" type="curve" smooth="yes"/>
      <point x="284" y="445" type="line" smooth="yes"/>
      <point x="284" y="349"/>
      <point x="315" y="314"/>
      <point x="412" y="314" type="curve" smooth="yes"/>
      <point x="429" y="314" type="line"/>
      <point x="429" y="269" type="line"/>
      <point x="412" y="269" type="line" smooth="yes"/>
      <point x="316" y="269"/>
      <point x="285" y="233"/>
      <point x="285" y="137" type="curve" smooth="yes"/>
      <point x="285" y="51" type="line" smooth="yes"/>
      <point x="285" y="-68"/>
      <point x="228" y="-123"/>
      <point x="87" y="-123" type="curve" smooth="yes"/>
    </contour>
  </outline>
</glyph>
<glyph name="asciitilde" format="2">
  <advance width="833"/>
  <unicode hex="007E"/>
  <outline>
    <contour>
      <point x="85" y="225" type="curve"/>
      <point x="85" y="290" type="line"/>
      <point x="140" y="328"/>
      <point x="200" y="361"/>
      <point x="276" y="361" type="curve" smooth="yes"/>
      <point x="330" y="361"/>
      <point x="379" y="343"/>
      <point x="422" y="327" type="curve" smooth="yes"/>
      <point x="463" y="311"/>
      <point x="510" y="294"/>
      <point x="561" y="294" type="curve" smooth="yes"/>
      <point x="637" y="294"/>
      <point x="689" y="329"/>
      <point x="747" y="371" type="curve"/>
      <point x="747" y="306" type="line"/>
      <point x="694" y="271"/>
      <point x="642" y="237"/>
      <point x="558" y="237" type="curve" smooth="yes"/>
      <point x="505" y="237"/>
      <point x="459" y="254"/>
      <point x="417" y="271" type="curve" smooth="yes"/>
      <point x="373" y="289"/>
      <point x="325" y="304"/>
      <point x="269" y="304" type="curve" smooth="yes"/>
      <point x="199" y="304"/>
      <point x="133" y="262"/>
    </contour>
  </outline>
</glyph>
<glyph name="cent" format="2">
  <advance width="562"/>
  <unicode hex="00A2"/>
  <outline>
    <contour>
      <point x="73" y="251" type="curve" smooth="yes"/>
      <point x="73" y="386"/>
      <point x="156" y="480"/>
      <point x="293" y="501" type="curve"/>
      <point x="293" y="603" type="line"/>
      <point x="341" y="603" type="line"/>
      <point x="341" y="503" type="line"/>
      <point x="385" y="503"/>
      <point x="421" y="497"/>
      <point x="483" y="478" type="curve"/>
      <point x="483" y="331" type="line"/>
      <point x="435" y="331" type="line"/>
      <point x="416" y="433" type="line"/>
      <point x="400" y="447"/>
      <point x="372" y="454"/>
      <point x="339" y="454" type="curve"/>
      <point x="339" y="45" type="line"/>
      <point x="379" y="45"/>
      <point x="396" y="48"/>
      <point x="414" y="57" type="curve"/>
      <point x="435" y="172" type="line"/>
      <point x="484" y="172" type="line"/>
      <point x="484" y="21" type="line"/>
      <point x="455" y="8"/>
      <point x="395" y="-1"/>
      <point x="341" y="-1" type="curve"/>
      <point x="341" y="-100" type="line"/>
      <point x="293" y="-100" type="line"/>
      <point x="293" y="1" type="line"/>
      <point x="155" y="17"/>
      <point x="73" y="110"/>
    </contour>
    <contour>
      <point x="171" y="255" type="curve" smooth="yes"/>
      <point x="171" y="145"/>
      <point x="217" y="69"/>
      <point x="295" y="51" type="curve"/>
      <point x="295" y="454" type="line"/>
      <point x="223" y="454"/>
      <point x="171" y="370"/>
    </contour>
  </outline>
</glyph>
<glyph name="sterling" format="2">
  <advance width="562"/>
  <unicode hex="00A3"/>
  <outline>
    <contour>
      <point x="43" y="1" type="line"/>
      <point x="43" y="62" type="line"/>
      <point x="129" y="84"/>
      <point x="152" y="156"/>
      <point x="152" y="264" type="curve" smooth="yes"/>
      <point x="152" y="329" type="line"/>
      <point x="82" y="329" type="line"/>
      <point x="82" y="378" type="line"/>
      <point x="152" y="378" type="line"/>
      <point x="150" y="416"/>
      <point x="149" y="452"/>
      <point x="149" y="488" type="curve" smooth="yes"/>
      <point x="149" y="633"/>
      <point x="219" y="737"/>
      <point x="364" y="737" type="curve" smooth="yes"/>
      <point x="437" y="737"/>
      <point x="522" y="705"/>
      <point x="522" y="632" type="curve" smooth="yes"/>
      <point x="522" y="598"/>
      <point x="494" y="575"/>
      <point x="460" y="575" type="curve" smooth="yes"/>
      <point x="448" y="575"/>
      <point x="436" y="577"/>
      <point x="424" y="580" type="curve"/>
      <point x="424" y="680" type="line"/>
      <point x="411" y="684"/>
      <point x="394" y="688"/>
      <point x="378" y="688" type="curve" smooth="yes"/>
      <point x="268" y="688"/>
      <point x="242" y="598"/>
      <point x="242" y="490" type="curve" smooth="yes"/>
      <point x="242" y="453"/>
      <point x="244" y="414"/>
      <point x="246" y="379" type="curve"/>
      <point x="432" y="379" type="line"/>
      <point x="432" y="330" type="line"/>
      <point x="246" y="330" type="line"/>
      <point x="246" y="219"/>
      <point x="236" y="139"/>
      <point x="139" y="77" type="curve"/>
      <point x="166" y="81"/>
      <point x="195" y="83"/>
      <point x="222" y="83" type="curve" smooth="yes"/>
      <point x="518" y="83" type="line"/>
      <point x="518" y="1" type="line"/>
    </contour>
  </outline>
</glyph>
<glyph name="currency" format="2">
  <advance width="609"/>
  <unicode hex="00A4"/>
  <outline>
    <contour>
      <point x="101" y="427" type="curve" smooth="yes"/>
      <point x="101" y="546"/>
      <point x="193" y="639"/>
      <point x="313" y="639" type="curve" smooth="yes"/>
      <point x="430" y="639"/>
      <point x="523" y="544"/>
      <point x="523" y="428" type="curve" smooth="yes"/>
      <point x="523" y="314"/>
      <point x="429" y="216"/>
      <point x="313" y="216" type="curve"/>
      <point x="197" y="216"/>
      <point x="101" y="310"/>
    </contour>
    <contour>
      <point x="157" y="427" type="curve" smooth="yes"/>
      <point x="157" y="337"/>
      <point x="223" y="273"/>
      <point x="312" y="273" type="curve" smooth="yes"/>
      <point x="397" y="273"/>
      <point x="466" y="343"/>
      <point x="466" y="428" type="curve" smooth="yes"/>
      <point x="466" y="517"/>
      <point x="401" y="582"/>
      <point x="313" y="582" type="curve" smooth="yes"/>
      <point x="224" y="582"/>
      <point x="157" y="516"/>
    </contour>
    <contour>
      <point x="429" y="583" type="line"/>
      <point x="546" y="700" type="line"/>
      <point x="582" y="664" type="line"/>
      <point x="467" y="549" type="line"/>
    </contour>
    <contour>
      <point x="158" y="548" type="line"/>
      <point x="42" y="664" type="line"/>
      <point x="78" y="700" type="line"/>
      <point x="194" y="584" type="line"/>
    </contour>
    <contour>
      <point x="431" y="274" type="line"/>
      <point x="467" y="310" type="line"/>
      <point x="581" y="196" type="line"/>
      <point x="545" y="160" type="line"/>
    </contour>
    <contour>
      <point x="42" y="196" type="line"/>
      <point x="156" y="310" type="line"/>
      <point x="192" y="274" type="line"/>
      <point x="78" y="160" type="line"/>
    </contour>
  </outline>
</glyph>
<glyph name="yen" format="2">
  <advance width="596"/>
  <unicode hex="00A5"/>
  <outline>
    <contour>
      <point x="9" y="628" type="line"/>
      <point x="9" y="670" type="line"/>
      <point x="233" y="670" type="line"/>
      <point x="233" y="628" type="line"/>
      <point x="190" y="621" type="line"/>
      <point x="184" y="620"/>
      <point x="176" y="614"/>
      <point x="176" y="606" type="curve" smooth="yes"/>
      <point x="176" y="604"/>
      <point x="177" y="601"/>
      <point x="178" y="599" type="curve"/>
      <point x="310" y="341" type="line"/>
      <point x="455" y="598" type="line"/>
      <point x="457" y="601"/>
      <point x="457" y="604"/>
      <point x="457" y="607" type="curve" smooth="yes"/>
      <point x="457" y="614"/>
      <point x="451" y="620"/>
      <point x="443" y="621" type="curve"/>
      <point x="395" y="629" type="line"/>
      <point x="395" y="671" type="line"/>
      <point x="586" y="671" type="line"/>
      <point x="586" y="629" type="line"/>
      <point x="530" y="616" type="line"/>
      <point x="422" y="426" type="line"/>
      <point x="563" y="426" type="line"/>
      <point x="563" y="382" type="line"/>
      <point x="397" y="382" type="line"/>
      <point x="339" y="280" type="line"/>
      <point x="563" y="280" type="line"/>
      <point x="563" y="236" type="line"/>
      <point x="340" y="236" type="line"/>
      <point x="340" y="68" type="line" smooth="yes"/>
      <point x="340" y="57"/>
      <point x="354" y="47"/>
      <point x="366" y="46" type="curve" smooth="yes"/>
      <point x="424" y="41" type="line"/>
      <point x="424" y="-1" type="line"/>
      <point x="163" y="-1" type="line"/>
      <point x="163" y="41" type="line"/>
      <point x="222" y="46" type="line" smooth="yes"/>
      <point x="236" y="47"/>
      <point x="247" y="56"/>
      <point x="247" y="68" type="curve" smooth="yes"/>
      <point x="247" y="236" type="line"/>
      <point x="31" y="236" type="line"/>
      <point x="31" y="280" type="line"/>
      <point x="245" y="280" type="line"/>
      <point x="191" y="382" type="line"/>
      <point x="31" y="382" type="line"/>
      <point x="31" y="426" type="line"/>
      <point x="167" y="426" type="line"/>
      <point x="68" y="616" type="line"/>
    </contour>
  </outline>
</glyph>
<glyph name="section" format="2">
  <advance width="500"/>
  <unicode hex="00A7"/>
  <outline>
    <contour>
      <point x="60" y="303" type="curve" smooth="yes"/>
      <point x="60" y="393"/>
      <point x="115" y="432"/>
      <point x="178" y="460" type="curve"/>
      <point x="130" y="484"/>
      <point x="78" y="518"/>
      <point x="78" y="588" type="curve" smooth="yes"/>
      <point x="78" y="696"/>
      <point x="161" y="735"/>
      <point x="272" y="735" type="curve" smooth="yes"/>
      <point x="323" y="735"/>
      <point x="375" y="726"/>
      <point x="411" y="711" type="curve"/>
      <point x="411" y="581" type="line"/>
      <point x="364" y="581" type="line"/>
      <point x="354" y="662" type="line"/>
      <point x="328" y="677"/>
      <point x="299" y="691"/>
      <point x="259" y="691" type="curve" smooth="yes"/>
      <point x="205" y="691"/>
      <point x="160" y="661"/>
      <point x="160" y="605" type="curve" smooth="yes"/>
      <point x="160" y="579"/>
      <point x="177" y="553"/>
      <point x="204" y="540" type="curve" smooth="yes"/>
      <point x="278" y="503" type="line" smooth="yes"/>
      <point x="383" y="451"/>
      <point x="441" y="387"/>
      <point x="441" y="322" type="curve" smooth="yes"/>
      <point x="441" y="239"/>
      <point x="381" y="185"/>
      <point x="321" y="161" type="curve"/>
      <point x="372" y="137"/>
      <point x="424" y="101"/>
      <point x="424" y="29" type="curve" smooth="yes"/>
      <point x="424" y="-73"/>
      <point x="339" y="-124"/>
      <point x="237" y="-124" type="curve" smooth="yes"/>
      <point x="178" y="-124"/>
      <point x="124" y="-110"/>
      <point x="83" y="-92" type="curve"/>
      <point x="83" y="39" type="line"/>
      <point x="133" y="39" type="line"/>
      <point x="148" y="-51" type="line"/>
      <point x="170" y="-66"/>
      <point x="206" y="-77"/>
      <point x="242" y="-77" type="curve" smooth="yes"/>
      <point x="298" y="-77"/>
      <point x="345" y="-52"/>
      <point x="345" y="4" type="curve" smooth="yes"/>
      <point x="345" y="38"/>
      <point x="321" y="67"/>
      <point x="263" y="97" type="curve" smooth="yes"/>
      <point x="215" y="122" type="line" smooth="yes"/>
      <point x="103" y="180"/>
      <point x="60" y="229"/>
    </contour>
    <contour>
      <point x="135" y="328" type="curve" smooth="yes"/>
      <point x="135" y="252"/>
      <point x="220" y="211"/>
      <point x="279" y="183" type="curve"/>
      <point x="314" y="203"/>
      <point x="363" y="244"/>
      <point x="363" y="300" type="curve" smooth="yes"/>
      <point x="363" y="372"/>
      <point x="282" y="417"/>
      <point x="225" y="440" type="curve"/>
      <point x="179" y="424"/>
      <point x="135" y="387"/>
    </contour>
  </outline>
</glyph>
<glyph name="dieresis" format="2">
  <advance width="316"/>
  <unicode hex="00A8"/>
  <outline>
    <contour>
      <point x="0" y="615" type="curve" smooth="yes"/>
      <point x="0" y="646"/>
      <point x="24" y="671"/>
      <point x="55" y="671" type="curve" smooth="yes"/>
      <point x="86" y="671"/>
      <point x="109" y="646"/>
      <point x="109" y="616" type="curve" smooth="yes"/>
      <point x="109" y="585"/>
      <point x="86" y="560"/>
      <point x="55" y="560" type="curve" smooth="yes"/>
      <point x="24" y="560"/>
      <point x="0" y="584"/>
    </contour>
    <contour>
      <point x="207" y="616" type="curve" smooth="yes"/>
      <point x="207" y="646"/>
      <point x="233" y="671"/>
      <point x="263" y="671" type="curve" smooth="yes"/>
      <point x="293" y="671"/>
      <point x="316" y="647"/>
      <point x="316" y="616" type="curve" smooth="yes"/>
      <point x="316" y="585"/>
      <point x="294" y="560"/>
      <point x="263" y="560" type="curve" smooth="yes"/>
      <point x="231" y="560"/>
      <point x="207" y="584"/>
    </contour>
  </outline>
</glyph>
<glyph name="ordfeminine" format="2">
  <advance width="340"/>
  <unicode hex="00AA"/>
  <outline>
    <contour>
      <point x="28" y="455" type="curve" smooth="yes"/>
      <point x="28" y="509"/>
      <point x="73" y="524"/>
      <point x="119" y="539" type="curve" smooth="yes"/>
      <point x="144" y="547"/>
      <point x="178" y="556"/>
      <point x="221" y="565" type="curve"/>
      <point x="221" y="591" type="line" smooth="yes"/>
      <point x="221" y="632"/>
      <point x="202" y="650"/>
      <point x="161" y="650" type="curve" smooth="yes"/>
      <point x="143" y="650"/>
      <point x="124" y="646"/>
      <point x="113" y="642" type="curve"/>
      <point x="113" y="590" type="line"/>
      <point x="66" y="590" type="line" smooth="yes"/>
      <point x="53" y="590"/>
      <point x="42" y="593"/>
      <point x="42" y="607" type="curve" smooth="yes"/>
      <point x="42" y="664"/>
      <point x="119" y="678"/>
      <point x="177" y="678" type="curve" smooth="yes"/>
      <point x="245" y="678"/>
      <point x="282" y="653"/>
      <point x="282" y="586" type="curve" smooth="yes"/>
      <point x="282" y="418" type="line" smooth="yes"/>
      <point x="282" y="411"/>
      <point x="289" y="405"/>
      <point x="295" y="405" type="curve"/>
      <point x="327" y="403" type="line"/>
      <point x="327" y="380" type="line"/>
      <point x="231" y="380" type="line"/>
      <point x="222" y="415" type="line"/>
      <point x="194" y="396"/>
      <point x="158" y="374"/>
      <point x="112" y="374" type="curve" smooth="yes"/>
      <point x="62" y="374"/>
      <point x="28" y="405"/>
    </contour>
    <contour>
      <point x="31" y="304" type="line"/>
      <point x="31" y="334" type="line"/>
      <point x="322" y="334" type="line"/>
      <point x="322" y="304" type="line"/>
    </contour>
    <contour>
      <point x="91" y="460" type="curve" smooth="yes"/>
      <point x="91" y="432"/>
      <point x="110" y="410"/>
      <point x="140" y="410" type="curve" smooth="yes"/>
      <point x="173" y="410"/>
      <point x="195" y="420"/>
      <point x="220" y="438" type="curve"/>
      <point x="220" y="542" type="line"/>
      <point x="174" y="532"/>
      <point x="139" y="523"/>
      <point x="112" y="503" type="curve" smooth="yes"/>
      <point x="97" y="492"/>
      <point x="91" y="482"/>
    </contour>
  </outline>
</glyph>
<glyph name="registered" format="2">
  <advance width="836"/>
  <unicode hex="00AE"/>
  <outline>
    <contour>
      <point x="33" y="351" type="curve" smooth="yes"/>
      <point x="33" y="574"/>
      <point x="195" y="738"/>
      <point x="418" y="738" type="curve" smooth="yes"/>
      <point x="639" y="738"/>
      <point x="802" y="573"/>
      <point x="802" y="351" type="curve" smooth="yes"/>
      <point x="802" y="129"/>
      <point x="638" y="-34"/>
      <point x="416" y="-34" type="curve" smooth="yes"/>
      <point x="195" y="-34"/>
      <point x="33" y="131"/>
    </contour>
    <contour>
      <point x="77" y="350" type="curve" smooth="yes"/>
      <point x="77" y="154"/>
      <point x="222" y="8"/>
      <point x="418" y="8" type="curve" smooth="yes"/>
      <point x="614" y="8"/>
      <point x="759" y="154"/>
      <point x="759" y="351" type="curve" smooth="yes"/>
      <point x="759" y="549"/>
      <point x="615" y="697"/>
      <point x="418" y="697" type="curve" smooth="yes"/>
      <point x="217" y="697"/>
      <point x="77" y="551"/>
    </contour>
    <contour>
      <point x="216" y="142" type="line"/>
      <point x="216" y="170" type="line"/>
      <point x="254" y="173" type="line"/>
      <point x="262" y="174"/>
      <point x="269" y="179"/>
      <point x="269" y="187" type="curve" smooth="yes"/>
      <point x="269" y="535" type="line" smooth="yes"/>
      <point x="269" y="543"/>
      <point x="262" y="548"/>
      <point x="254" y="549" type="curve"/>
      <point x="216" y="552" type="line"/>
      <point x="216" y="580" type="line"/>
      <point x="402" y="580" type="line" smooth="yes"/>
      <point x="497" y="580"/>
      <point x="576" y="559"/>
      <point x="576" y="465" type="curve" smooth="yes"/>
      <point x="576" y="394"/>
      <point x="518" y="369"/>
      <point x="459" y="356" type="curve"/>
      <point x="517" y="342"/>
      <point x="543" y="316"/>
      <point x="555" y="260" type="curve" smooth="yes"/>
      <point x="569" y="199"/>
      <point x="590" y="170"/>
      <point x="666" y="170" type="curve"/>
      <point x="666" y="143" type="line"/>
      <point x="649" y="140"/>
      <point x="627" y="138"/>
      <point x="608" y="138" type="curve" smooth="yes"/>
      <point x="531" y="138"/>
      <point x="511" y="175"/>
      <point x="493" y="232" type="curve" smooth="yes"/>
      <point x="474" y="293"/>
      <point x="455" y="337"/>
      <point x="373" y="337" type="curve" smooth="yes"/>
      <point x="340" y="337" type="line"/>
      <point x="340" y="187" type="line" smooth="yes"/>
      <point x="340" y="180"/>
      <point x="348" y="174"/>
      <point x="355" y="173" type="curve"/>
      <point x="393" y="170" type="line"/>
      <point x="393" y="142" type="line"/>
    </contour>
    <contour>
      <point x="340" y="368" type="line"/>
      <point x="352" y="367"/>
      <point x="365" y="366"/>
      <point x="377" y="366" type="curve" smooth="yes"/>
      <point x="451" y="366"/>
      <point x="499" y="388"/>
      <point x="499" y="461" type="curve" smooth="yes"/>
      <point x="499" y="529"/>
      <point x="445" y="549"/>
      <point x="374" y="549" type="curve" smooth="yes"/>
      <point x="340" y="549" type="line"/>
    </contour>
  </outline>
</glyph>
<glyph name="macron" format="2">
  <advance width="335"/>
  <unicode hex="00AF"/>
  <outline>
    <contour>
      <point x="0" y="560" type="line"/>
      <point x="0" y="623" type="line"/>
      <point x="335" y="623" type="line"/>
      <point x="335" y="560" type="line"/>
    </contour>
  </outline>
</glyph>
<glyph name="degree" format="2">
  <advance width="319"/>
  <unicode hex="00B0"/>
  <outline>
    <contour>
      <point x="50" y="660" type="curve" smooth="yes"/>
      <point x="50" y="721"/>
      <point x="99" y="770"/>
      <point x="160" y="770" type="curve" smooth="yes"/>
      <point x="221" y="770"/>
      <point x="270" y="721"/>
      <point x="270" y="660" type="curve" smooth="yes"/>
      <point x="270" y="599"/>
      <point x="221" y="550"/>
      <point x="160" y="550" type="curve" smooth="yes"/>
      <point x="99" y="550"/>
      <point x="50" y="599"/>
    </contour>
    <contour>
      <point x="90" y="660" type="curve" smooth="yes"/>
      <point x="90" y="621"/>
      <point x="121" y="590"/>
      <point x="160" y="590" type="curve" smooth="yes"/>
      <point x="199" y="590"/>
      <point x="230" y="621"/>
      <point x="230" y="660" type="curve" smooth="yes"/>
      <point x="230" y="699"/>
      <point x="199" y="730"/>
      <point x="160" y="730" type="curve" smooth="yes"/>
      <point x="121" y="730"/>
      <point x="90" y="699"/>
    </contour>
  </outline>
</glyph>
<glyph name="uni00B3" format="2">
  <advance width="366"/>
  <unicode hex="00B3"/>
  <outline>
    <contour>
      <point x="32" y="442" type="curve" smooth="yes"/>
      <point x="32" y="462"/>
      <point x="48" y="475"/>
      <point x="70" y="475" type="curve" smooth="yes"/>
      <point x="77" y="475"/>
      <point x="85" y="474"/>
      <point x="92" y="471" type="curve"/>
      <point x="112" y="417" type="line"/>
      <point x="129" y="408"/>
      <point x="148" y="404"/>
      <point x="169" y="404" type="curve" smooth="yes"/>
      <point x="225" y="404"/>
      <point x="270" y="442"/>
      <point x="270" y="497" type="curve" smooth="yes"/>
      <point x="270" y="551"/>
      <point x="225" y="572"/>
      <point x="172" y="572" type="curve" smooth="yes"/>
      <point x="157" y="572"/>
      <point x="146" y="571"/>
      <point x="133" y="569" type="curve"/>
      <point x="133" y="607" type="line"/>
      <point x="137" y="606"/>
      <point x="147" y="606"/>
      <point x="150" y="606" type="curve" smooth="yes"/>
      <point x="206" y="606"/>
      <point x="255" y="628"/>
      <point x="255" y="683" type="curve" smooth="yes"/>
      <point x="255" y="732"/>
      <point x="218" y="759"/>
      <point x="170" y="759" type="curve" smooth="yes"/>
      <point x="146" y="759"/>
      <point x="125" y="752"/>
      <point x="110" y="744" type="curve"/>
      <point x="110" y="685" type="line"/>
      <point x="105" y="680"/>
      <point x="91" y="676"/>
      <point x="80" y="676" type="curve" smooth="yes"/>
      <point x="58" y="676"/>
      <point x="43" y="688"/>
      <point x="43" y="710" type="curve" smooth="yes"/>
      <point x="43" y="769"/>
      <point x="123" y="791"/>
      <point x="185" y="791" type="curve" smooth="yes"/>
      <point x="255" y="791"/>
      <point x="318" y="759"/>
      <point x="318" y="691" type="curve" smooth="yes"/>
      <point x="318" y="632"/>
      <point x="268" y="605"/>
      <point x="214" y="590" type="curve"/>
      <point x="214" y="594" type="line"/>
      <point x="278" y="591"/>
      <point x="336" y="562"/>
      <point x="336" y="496" type="curve" smooth="yes"/>
      <point x="336" y="413"/>
      <point x="251" y="373"/>
      <point x="166" y="373" type="curve" smooth="yes"/>
      <point x="110" y="373"/>
      <point x="32" y="391"/>
    </contour>
  </outline>
</glyph>
<glyph name="acute" format="2">
  <advance width="282"/>
  <unicode hex="00B4"/>
  <outline>
    <contour>
      <point x="20" y="560" type="line"/>
      <point x="152" y="715" type="line" smooth="yes"/>
      <point x="165" y="731"/>
      <point x="176" y="742"/>
      <point x="205" y="742" type="curve" smooth="yes"/>
      <point x="235" y="742"/>
      <point x="252" y="726"/>
      <point x="252" y="697" type="curve" smooth="yes"/>
      <point x="252" y="678"/>
      <point x="240" y="664"/>
      <point x="229" y="657" type="curve" smooth="yes"/>
      <point x="76" y="560" type="line"/>
    </contour>
  </outline>
</glyph>
<glyph name="periodcentered" format="2">
  <advance width="187"/>
  <unicode hex="00B7"/>
  <anchor x="94" y="340" name="_center"/>
  <outline>
    <contour>
      <point x="35" y="340" type="curve" smooth="yes"/>
      <point x="35" y="373"/>
      <point x="61" y="399"/>
      <point x="94" y="399" type="curve" smooth="yes"/>
      <point x="127" y="399"/>
      <point x="153" y="373"/>
      <point x="153" y="340" type="curve" smooth="yes"/>
      <point x="153" y="307"/>
      <point x="127" y="281"/>
      <point x="94" y="281" type="curve" smooth="yes"/>
      <point x="61" y="281"/>
      <point x="35" y="307"/>
    </contour>
  </outline>
  <guideline angle="90" x="94" y="0"/>
  <guideline angle="0" x="0" y="340"/>
</glyph>
<glyph name="cedilla" format="2">
  <advance width="229"/>
  <unicode hex="00B8"/>
  <outline>
    <contour>
      <point x="40" y="-215" type="curve"/>
      <point x="40" y="-176" type="line"/>
      <point x="58" y="-180"/>
      <point x="80" y="-184"/>
      <point x="101" y="-184" type="curve" smooth="yes"/>
      <point x="133" y="-184"/>
      <point x="165" y="-175"/>
      <point x="165" y="-143" type="curve" smooth="yes"/>
      <point x="165" y="-117"/>
      <point x="149" y="-106"/>
      <point x="128" y="-106" type="curve" smooth="yes"/>
      <point x="118" y="-106"/>
      <point x="105" y="-108"/>
      <point x="95" y="-112" type="curve"/>
      <point x="95" y="10" type="line"/>
      <point x="135" y="10" type="line"/>
      <point x="135" y="-63" type="line"/>
      <point x="143" y="-60"/>
      <point x="149" y="-59"/>
      <point x="158" y="-59" type="curve" smooth="yes"/>
      <point x="204" y="-59"/>
      <point x="230" y="-84"/>
      <point x="230" y="-130" type="curve" smooth="yes"/>
      <point x="230" y="-195"/>
      <point x="180" y="-225"/>
      <point x="114" y="-225" type="curve" smooth="yes"/>
      <point x="87" y="-225"/>
      <point x="61" y="-221"/>
    </contour>
  </outline>
</glyph>
<glyph name="ordmasculine" format="2">
  <advance width="357"/>
  <unicode hex="00BA"/>
  <outline>
    <contour>
      <point x="22" y="526" type="curve" smooth="yes"/>
      <point x="22" y="619"/>
      <point x="86" y="679"/>
      <point x="180" y="679" type="curve" smooth="yes"/>
      <point x="273" y="679"/>
      <point x="332" y="619"/>
      <point x="332" y="528" type="curve" smooth="yes"/>
      <point x="332" y="437"/>
      <point x="269" y="376"/>
      <point x="177" y="376" type="curve" smooth="yes"/>
      <point x="83" y="376"/>
      <point x="22" y="433"/>
    </contour>
    <contour>
      <point x="26" y="303" type="line"/>
      <point x="26" y="333" type="line"/>
      <point x="331" y="333" type="line"/>
      <point x="331" y="303" type="line"/>
    </contour>
    <contour>
      <point x="92" y="526" type="curve" smooth="yes"/>
      <point x="92" y="463"/>
      <point x="116" y="403"/>
      <point x="179" y="403" type="curve" smooth="yes"/>
      <point x="241" y="403"/>
      <point x="266" y="464"/>
      <point x="266" y="526" type="curve" smooth="yes"/>
      <point x="266" y="590"/>
      <point x="241" y="651"/>
      <point x="179" y="651" type="curve" smooth="yes"/>
      <point x="116" y="651"/>
      <point x="92" y="590"/>
    </contour>
  </outline>
</glyph>
<glyph name="onehalf" format="2">
  <advance width="875"/>
  <unicode hex="00BD"/>
  <outline>
    <contour>
      <point x="46" y="637" type="line"/>
      <point x="46" y="664" type="line"/>
      <point x="187" y="704" type="line"/>
      <point x="211" y="704" type="line"/>
      <point x="211" y="338" type="line" smooth="yes"/>
      <point x="211" y="331"/>
      <point x="219" y="326"/>
      <point x="226" y="326" type="curve"/>
      <point x="287" y="322" type="line"/>
      <point x="287" y="295" type="line"/>
      <point x="67" y="295" type="line"/>
      <point x="67" y="322" type="line"/>
      <point x="133" y="326" type="line"/>
      <point x="140" y="326"/>
      <point x="147" y="331"/>
      <point x="147" y="338" type="curve" smooth="yes"/>
      <point x="147" y="653" type="line"/>
    </contour>
    <contour>
      <point x="176" y="0" type="line"/>
      <point x="620" y="698" type="line"/>
      <point x="683" y="698" type="line"/>
      <point x="239" y="0" type="line"/>
    </contour>
    <contour>
      <point x="528" y="3" type="line"/>
      <point x="528" y="43" type="line"/>
      <point x="604" y="87"/>
      <point x="748" y="174"/>
      <point x="748" y="292" type="curve" smooth="yes"/>
      <point x="748" y="346"/>
      <point x="717" y="379"/>
      <point x="663" y="379" type="curve" smooth="yes"/>
      <point x="640" y="379"/>
      <point x="622" y="372"/>
      <point x="608" y="365" type="curve"/>
      <point x="608" y="299" type="line"/>
      <point x="602" y="293"/>
      <point x="589" y="289"/>
      <point x="576" y="289" type="curve" smooth="yes"/>
      <point x="555" y="289"/>
      <point x="537" y="301"/>
      <point x="537" y="324" type="curve" smooth="yes"/>
      <point x="537" y="387"/>
      <point x="615" y="410"/>
      <point x="678" y="410" type="curve" smooth="yes"/>
      <point x="758" y="410"/>
      <point x="818" y="373"/>
      <point x="818" y="299" type="curve" smooth="yes"/>
      <point x="818" y="183"/>
      <point x="671" y="96"/>
      <point x="597" y="54" type="curve"/>
      <point x="789" y="54" type="line"/>
      <point x="800" y="106" type="line"/>
      <point x="833" y="106" type="line"/>
      <point x="833" y="3" type="line"/>
    </contour>
  </outline>
</glyph>
<glyph name="questiondown" format="2">
  <advance width="485"/>
  <unicode hex="00BF"/>
  <outline>
    <contour>
      <point x="68" y="-25" type="curve" smooth="yes"/>
      <point x="68" y="102"/>
      <point x="170" y="153"/>
      <point x="258" y="192" type="curve"/>
      <point x="258" y="304" type="line"/>
      <point x="314" y="304" type="line"/>
      <point x="314" y="159" type="line"/>
      <point x="242" y="134"/>
      <point x="170" y="79"/>
      <point x="170" y="-18" type="curve" smooth="yes"/>
      <point x="170" y="-110"/>
      <point x="221" y="-155"/>
      <point x="313" y="-155" type="curve"/>
      <point x="354" y="-54" type="line"/>
      <point x="360" y="-51"/>
      <point x="367" y="-50"/>
      <point x="372" y="-50" type="curve" smooth="yes"/>
      <point x="408" y="-50"/>
      <point x="434" y="-67"/>
      <point x="434" y="-105" type="curve" smooth="yes"/>
      <point x="434" y="-178"/>
      <point x="354" y="-204"/>
      <point x="276" y="-204" type="curve" smooth="yes"/>
      <point x="159" y="-204"/>
      <point x="68" y="-141"/>
    </contour>
    <contour>
      <point x="222" y="435" type="curve" smooth="yes"/>
      <point x="222" y="471"/>
      <point x="248" y="496"/>
      <point x="284" y="496" type="curve" smooth="yes"/>
      <point x="319" y="496"/>
      <point x="345" y="469"/>
      <point x="345" y="434" type="curve" smooth="yes"/>
      <point x="345" y="399"/>
      <point x="319" y="373"/>
      <point x="284" y="373" type="curve" smooth="yes"/>
      <point x="248" y="373"/>
      <point x="222" y="399"/>
    </contour>
  </outline>
</glyph>
<glyph name="Eth" format="2">
  <advance width="695"/>
  <unicode hex="00D0"/>
  <outline>
    <component base="D"/>
    <contour>
      <point x="14" y="377" type="line"/>
      <point x="367" y="377" type="line"/>
      <point x="367" y="326" type="line"/>
      <point x="14" y="326" type="line"/>
    </contour>
  </outline>
</glyph>
<glyph name="multiply" format="2">
  <advance width="1000"/>
  <unicode hex="00D7"/>
  <outline>
    <contour>
      <point x="230" y="69" type="line"/>
      <point x="731" y="570" type="line"/>
      <point x="770" y="531" type="line"/>
      <point x="269" y="30" type="line"/>
    </contour>
    <contour>
      <point x="731" y="30" type="line"/>
      <point x="230" y="531" type="line"/>
      <point x="269" y="570" type="line"/>
      <point x="770" y="69" type="line"/>
    </contour>
  </outline>
</glyph>
<glyph name="Oslash" format="2">
  <advance width="730"/>
  <unicode hex="00D8"/>
  <outline>
    <component base="O"/>
    <contour>
      <point x="98" y="-51" type="line"/>
      <point x="573" y="747" type="line"/>
      <point x="620" y="719" type="line"/>
      <point x="144" y="-79" type="line"/>
    </contour>
  </outline>
</glyph>
<glyph name="germandbls" format="2">
  <advance width="627"/>
  <unicode hex="00DF"/>
  <outline>
    <contour>
      <point x="22" y="0" type="line"/>
      <point x="22" y="38" type="line"/>
      <point x="70" y="43" type="line" smooth="yes"/>
      <point x="80" y="44"/>
      <point x="90" y="55"/>
      <point x="90" y="66" type="curve" smooth="yes"/>
      <point x="90" y="452" type="line" smooth="yes"/>
      <point x="90" y="616"/>
      <point x="179" y="737"/>
      <point x="342" y="737" type="curve" smooth="yes"/>
      <point x="451" y="737"/>
      <point x="517" y="680"/>
      <point x="517" y="571" type="curve" smooth="yes"/>
      <point x="517" y="532"/>
      <point x="510" y="498"/>
      <point x="500" y="467" type="curve"/>
      <point x="495" y="469"/>
      <point x="486" y="471"/>
      <point x="480" y="471" type="curve" smooth="yes"/>
      <point x="476" y="471" type="line" smooth="yes"/>
      <point x="423" y="471"/>
      <point x="386" y="448"/>
      <point x="386" y="395" type="curve" smooth="yes"/>
      <point x="386" y="351"/>
      <point x="446" y="315"/>
      <point x="481" y="295" type="curve" smooth="yes"/>
      <point x="533" y="265"/>
      <point x="595" y="228"/>
      <point x="595" y="151" type="curve" smooth="yes"/>
      <point x="595" y="52"/>
      <point x="519" y="-10"/>
      <point x="421" y="-10" type="curve" smooth="yes"/>
      <point x="378" y="-10"/>
      <point x="337" y="2"/>
      <point x="303" y="14" type="curve"/>
      <point x="303" y="148" type="line"/>
      <point x="357" y="148" type="line"/>
      <point x="366" y="61" type="line"/>
      <point x="378" y="49"/>
      <point x="400" y="36"/>
      <point x="426" y="36" type="curve" smooth="yes"/>
      <point x="475" y="36"/>
      <point x="510" y="72"/>
      <point x="510" y="121" type="curve" smooth="yes"/>
      <point x="510" y="176"/>
      <point x="448" y="211"/>
      <point x="407" y="234" type="curve" smooth="yes"/>
      <point x="360" y="260"/>
      <point x="295" y="296"/>
      <point x="295" y="362" type="curve" smooth="yes"/>
      <point x="295" y="441"/>
      <point x="351" y="484"/>
      <point x="416" y="499" type="curve"/>
      <point x="421" y="521"/>
      <point x="425" y="546"/>
      <point x="425" y="571" type="curve" smooth="yes"/>
      <point x="425" y="636"/>
      <point x="389" y="686"/>
      <point x="324" y="686" type="curve" smooth="yes"/>
      <point x="213" y="686"/>
      <point x="183" y="572"/>
      <point x="183" y="462" type="curve" smooth="yes"/>
      <point x="183" y="66" type="line" smooth="yes"/>
      <point x="183" y="54"/>
      <point x="189" y="43"/>
      <point x="198" y="42" type="curve"/>
      <point x="249" y="38" type="line"/>
      <point x="249" y="0" type="line"/>
    </contour>
  </outline>
</glyph>
<glyph name="eth" format="2">
  <advance width="539"/>
  <unicode hex="00F0"/>
  <outline>
    <contour>
      <point x="34" y="244" type="curve" smooth="yes"/>
      <point x="34" y="391"/>
      <point x="129" y="494"/>
      <point x="276" y="494" type="curve" smooth="yes"/>
      <point x="301" y="494"/>
      <point x="324" y="488"/>
      <point x="343" y="480" type="curve"/>
      <point x="319" y="517"/>
      <point x="292" y="555"/>
      <point x="266" y="588" type="curve"/>
      <point x="139" y="512" type="line"/>
      <point x="117" y="552" type="line"/>
      <point x="232" y="621" type="line"/>
      <point x="197" y="661" type="line"/>
      <point x="113" y="672" type="line"/>
      <point x="113" y="700" type="line"/>
      <point x="236" y="737" type="line"/>
      <point x="308" y="663" type="line"/>
      <point x="417" y="728" type="line"/>
      <point x="440" y="688" type="line"/>
      <point x="338" y="626" type="line"/>
      <point x="410" y="545"/>
      <point x="505" y="422"/>
      <point x="505" y="271" type="curve" smooth="yes"/>
      <point x="505" y="113"/>
      <point x="425" y="-11"/>
      <point x="270" y="-11" type="curve" smooth="yes"/>
      <point x="121" y="-11"/>
      <point x="34" y="96"/>
    </contour>
    <contour>
      <point x="137" y="243" type="curve" smooth="yes"/>
      <point x="137" y="139"/>
      <point x="170" y="33"/>
      <point x="273" y="33" type="curve" smooth="yes"/>
      <point x="378" y="33"/>
      <point x="407" y="144"/>
      <point x="407" y="251" type="curve" smooth="yes"/>
      <point x="407" y="327"/>
      <point x="396" y="385"/>
      <point x="368" y="430" type="curve"/>
      <point x="346" y="441"/>
      <point x="322" y="450"/>
      <point x="292" y="450" type="curve" smooth="yes"/>
      <point x="180" y="450"/>
      <point x="137" y="355"/>
    </contour>
  </outline>
</glyph>
<glyph name="oslash" format="2">
  <advance width="543"/>
  <unicode hex="00F8"/>
  <anchor x="274" y="560" name="top"/>
  <anchor x="270" y="-40" name="bottom"/>
  <outline>
    <component base="o"/>
    <contour>
      <point x="69" y="-62" type="line"/>
      <point x="424" y="561" type="line"/>
      <point x="460" y="541" type="line"/>
      <point x="104" y="-83" type="line"/>
    </contour>
  </outline>
</glyph>
<glyph name="dcroat" format="2">
  <advance width="563"/>
  <unicode hex="0111"/>
  <outline>
    <component base="d"/>
    <contour>
      <point x="237" y="541" type="line"/>
      <point x="237" y="591" type="line"/>
      <point x="565" y="591" type="line"/>
      <point x="565" y="541" type="line"/>
    </contour>
  </outline>
</glyph>
<glyph name="Gcommaaccent" format="2">
  <advance width="694"/>
  <unicode hex="0122"/>
  <outline>
    <component base="G"/>
    <contour>
      <point x="325" y="-122" type="curve" smooth="yes"/>
      <point x="325" y="-93"/>
      <point x="350" y="-75"/>
      <point x="380" y="-75" type="curve" smooth="yes"/>
      <point x="426" y="-75"/>
      <point x="451" y="-108"/>
      <point x="451" y="-157" type="curve" smooth="yes"/>
      <point x="451" y="-233"/>
      <point x="392" y="-271"/>
      <point x="327" y="-282" type="curve"/>
      <point x="327" y="-252" type="line"/>
      <point x="373" y="-238"/>
      <point x="399" y="-219"/>
      <point x="399" y="-159" type="curve"/>
      <point x="340" y="-159" type="line"/>
      <point x="332" y="-151"/>
      <point x="325" y="-138"/>
    </contour>
  </outline>
</glyph>
<glyph name="gcommaaccent" format="2">
  <advance width="524"/>
  <unicode hex="0123"/>
  <outline>
    <component base="g"/>
    <contour>
      <point x="171" y="648" type="curve" smooth="yes"/>
      <point x="171" y="735"/>
      <point x="233" y="792"/>
      <point x="280" y="834" type="curve"/>
      <point x="317" y="827" type="line"/>
      <point x="277" y="788"/>
      <point x="234" y="746"/>
      <point x="234" y="659" type="curve" smooth="yes"/>
      <point x="234" y="656" type="line"/>
      <point x="297" y="656" type="line"/>
      <point x="305" y="646"/>
      <point x="312" y="633"/>
      <point x="312" y="616" type="curve" smooth="yes"/>
      <point x="312" y="583"/>
      <point x="290" y="555"/>
      <point x="247" y="555" type="curve" smooth="yes"/>
      <point x="203" y="555"/>
      <point x="171" y="593"/>
    </contour>
  </outline>
</glyph>
<glyph name="Hbar" format="2">
  <advance width="743"/>
  <unicode hex="0126"/>
  <outline>
    <component base="H"/>
    <contour>
      <point x="32" y="477" type="line"/>
      <point x="32" y="527" type="line"/>
      <point x="711" y="527" type="line"/>
      <point x="711" y="477" type="line"/>
    </contour>
  </outline>
</glyph>
<glyph name="hbar" format="2">
  <advance width="574"/>
  <unicode hex="0127"/>
  <outline>
    <component base="h"/>
    <contour>
      <point x="0" y="526" type="line"/>
      <point x="0" y="576" type="line"/>
      <point x="297" y="576" type="line"/>
      <point x="297" y="526" type="line"/>
    </contour>
  </outline>
</glyph>
<glyph name="Kcommaaccent" format="2">
  <advance width="638"/>
  <unicode hex="0136"/>
  <outline>
    <component base="K"/>
    <contour>
      <point x="268" y="-107" type="curve" smooth="yes"/>
      <point x="268" y="-78"/>
      <point x="293" y="-60"/>
      <point x="323" y="-60" type="curve" smooth="yes"/>
      <point x="369" y="-60"/>
      <point x="394" y="-93"/>
      <point x="394" y="-142" type="curve" smooth="yes"/>
      <point x="394" y="-218"/>
      <point x="335" y="-256"/>
      <point x="270" y="-267" type="curve"/>
      <point x="270" y="-237" type="line"/>
      <point x="316" y="-223"/>
      <point x="342" y="-204"/>
      <point x="342" y="-144" type="curve"/>
      <point x="283" y="-144" type="line"/>
      <point x="275" y="-136"/>
      <point x="268" y="-123"/>
    </contour>
  </outline>
</glyph>
<glyph name="kcommaaccent" format="2">
  <advance width="534"/>
  <unicode hex="0137"/>
  <outline>
    <component base="k"/>
    <contour>
      <point x="215" y="-98" type="curve" smooth="yes"/>
      <point x="215" y="-69"/>
      <point x="240" y="-51"/>
      <point x="270" y="-51" type="curve" smooth="yes"/>
      <point x="316" y="-51"/>
      <point x="341" y="-84"/>
      <point x="341" y="-133" type="curve" smooth="yes"/>
      <point x="341" y="-209"/>
      <point x="282" y="-247"/>
      <point x="217" y="-258" type="curve"/>
      <point x="217" y="-228" type="line"/>
      <point x="263" y="-214"/>
      <point x="289" y="-195"/>
      <point x="289" y="-135" type="curve"/>
      <point x="230" y="-135" type="line"/>
      <point x="222" y="-127"/>
      <point x="215" y="-114"/>
    </contour>
  </outline>
</glyph>
<glyph name="Lcommaaccent" format="2">
  <advance width="530"/>
  <unicode hex="013B"/>
  <outline>
    <component base="L"/>
    <contour>
      <point x="207" y="-107" type="curve" smooth="yes"/>
      <point x="207" y="-78"/>
      <point x="232" y="-60"/>
      <point x="262" y="-60" type="curve" smooth="yes"/>
      <point x="308" y="-60"/>
      <point x="333" y="-93"/>
      <point x="333" y="-142" type="curve" smooth="yes"/>
      <point x="333" y="-218"/>
      <point x="274" y="-256"/>
      <point x="209" y="-267" type="curve"/>
      <point x="209" y="-237" type="line"/>
      <point x="255" y="-223"/>
      <point x="281" y="-204"/>
      <point x="281" y="-144" type="curve"/>
      <point x="222" y="-144" type="line"/>
      <point x="214" y="-136"/>
      <point x="207" y="-123"/>
    </contour>
  </outline>
</glyph>
<glyph name="lcommaaccent" format="2">
  <advance width="296"/>
  <unicode hex="013C"/>
  <outline>
    <component base="l"/>
    <contour>
      <point x="86" y="-107" type="curve" smooth="yes"/>
      <point x="86" y="-78"/>
      <point x="111" y="-60"/>
      <point x="141" y="-60" type="curve" smooth="yes"/>
      <point x="187" y="-60"/>
      <point x="212" y="-93"/>
      <point x="212" y="-142" type="curve" smooth="yes"/>
      <point x="212" y="-218"/>
      <point x="153" y="-256"/>
      <point x="88" y="-267" type="curve"/>
      <point x="88" y="-237" type="line"/>
      <point x="134" y="-223"/>
      <point x="160" y="-204"/>
      <point x="160" y="-144" type="curve"/>
      <point x="101" y="-144" type="line"/>
      <point x="93" y="-136"/>
      <point x="86" y="-123"/>
    </contour>
  </outline>
</glyph>
<glyph name="Lslash" format="2">
  <advance width="530"/>
  <unicode hex="0141"/>
  <outline>
    <component base="L"/>
    <contour>
      <point x="35" y="238" type="line"/>
      <point x="10" y="279" type="line"/>
      <point x="302" y="475" type="line"/>
      <point x="329" y="436" type="line"/>
    </contour>
  </outline>
</glyph>
<glyph name="lslash" format="2">
  <advance width="296"/>
  <unicode hex="0142"/>
  <outline>
    <component base="l"/>
    <contour>
      <point x="16" y="243" type="line"/>
      <point x="-9" y="284" type="line"/>
      <point x="280" y="482" type="line"/>
      <point x="307" y="441" type="line"/>
    </contour>
  </outline>
</glyph>
<glyph name="Eng" format="2">
  <advance width="727"/>
  <unicode hex="014A"/>
  <outline>
    <contour>
      <point x="35" y="0" type="line"/>
      <point x="35" y="43" type="line"/>
      <point x="86" y="47" type="line" smooth="yes"/>
      <point x="98" y="48"/>
      <point x="107" y="57"/>
      <point x="107" y="69" type="curve" smooth="yes"/>
      <point x="107" y="604" type="line" smooth="yes"/>
      <point x="107" y="614"/>
      <point x="98" y="622"/>
      <point x="87" y="623" type="curve" smooth="yes"/>
      <point x="29" y="628" type="line"/>
      <point x="29" y="671" type="line"/>
      <point x="208" y="671" type="line"/>
      <point x="208" y="590" type="line"/>
      <point x="294" y="662"/>
      <point x="349" y="687"/>
      <point x="422" y="687" type="curve" smooth="yes"/>
      <point x="550" y="687"/>
      <point x="638" y="600"/>
      <point x="638" y="473" type="curve" smooth="yes"/>
      <point x="638" y="-21" type="line" smooth="yes"/>
      <point x="638" y="-149"/>
      <point x="556" y="-230"/>
      <point x="429" y="-230" type="curve" smooth="yes"/>
      <point x="376" y="-230"/>
      <point x="332" y="-206"/>
      <point x="332" y="-155" type="curve" smooth="yes"/>
      <point x="332" y="-127"/>
      <point x="352" y="-100"/>
      <point x="380" y="-92" type="curve"/>
      <point x="458" y="-179" type="line"/>
      <point x="523" y="-179"/>
      <point x="537" y="-125"/>
      <point x="537" y="-60" type="curve" smooth="yes"/>
      <point x="537" y="453" type="line" smooth="yes"/>
      <point x="537" y="545"/>
      <point x="476" y="604"/>
      <point x="383" y="604" type="curve" smooth="yes"/>
      <point x="324" y="604"/>
      <point x="271" y="583"/>
      <point x="208" y="533" type="curve"/>
      <point x="208" y="69" type="line" smooth="yes"/>
      <point x="208" y="57"/>
      <point x="217" y="48"/>
      <point x="229" y="47" type="curve" smooth="yes"/>
      <point x="291" y="43" type="line"/>
      <point x="291" y="0" type="line"/>
    </contour>
  </outline>
</glyph>
<glyph name="OE" format="2">
  <advance width="999"/>
  <unicode hex="0152"/>
  <outline>
    <contour>
      <point x="41" y="335" type="curve" smooth="yes"/>
      <point x="41" y="537"/>
      <point x="131" y="686"/>
      <point x="333" y="686" type="curve" smooth="yes"/>
      <point x="418" y="686"/>
      <point x="479" y="658"/>
      <point x="523" y="615" type="curve"/>
      <point x="523" y="670" type="line"/>
      <point x="935" y="670" type="line"/>
      <point x="935" y="521" type="line"/>
      <point x="875" y="521" type="line"/>
      <point x="860" y="603" type="line"/>
      <point x="858" y="612"/>
      <point x="852" y="622"/>
      <point x="842" y="622" type="curve" smooth="yes"/>
      <point x="625" y="622" type="line"/>
      <point x="625" y="373" type="line"/>
      <point x="775" y="373" type="line" smooth="yes"/>
      <point x="783" y="373"/>
      <point x="792" y="382"/>
      <point x="793" y="390" type="curve" smooth="yes"/>
      <point x="803" y="459" type="line"/>
      <point x="854" y="459" type="line"/>
      <point x="854" y="236" type="line"/>
      <point x="803" y="236" type="line"/>
      <point x="794" y="304" type="line" smooth="yes"/>
      <point x="793" y="313"/>
      <point x="783" y="322"/>
      <point x="776" y="322" type="curve" smooth="yes"/>
      <point x="626" y="322" type="line"/>
      <point x="626" y="47" type="line"/>
      <point x="879" y="47" type="line" smooth="yes"/>
      <point x="887" y="47"/>
      <point x="896" y="59"/>
      <point x="897" y="66" type="curve"/>
      <point x="914" y="165" type="line"/>
      <point x="968" y="165" type="line"/>
      <point x="968" y="-2" type="line"/>
      <point x="523" y="-2" type="line"/>
      <point x="523" y="53" type="line"/>
      <point x="479" y="10"/>
      <point x="419" y="-18"/>
      <point x="334" y="-18" type="curve" smooth="yes"/>
      <point x="131" y="-18"/>
      <point x="41" y="133"/>
    </contour>
    <contour>
      <point x="155" y="336" type="curve" smooth="yes"/>
      <point x="155" y="185"/>
      <point x="182" y="39"/>
      <point x="330" y="39" type="curve" smooth="yes"/>
      <point x="482" y="39"/>
      <point x="509" y="183"/>
      <point x="509" y="333" type="curve" smooth="yes"/>
      <point x="509" y="483"/>
      <point x="481" y="630"/>
      <point x="333" y="630" type="curve" smooth="yes"/>
      <point x="182" y="630"/>
      <point x="155" y="487"/>
    </contour>
  </outline>
</glyph>
<glyph name="oe" format="2">
  <advance width="819"/>
  <unicode hex="0153"/>
  <outline>
    <contour>
      <point x="34" y="239" type="curve" smooth="yes"/>
      <point x="34" y="385"/>
      <point x="117" y="492"/>
      <point x="262" y="492" type="curve" smooth="yes"/>
      <point x="346" y="492"/>
      <point x="413" y="452"/>
      <point x="442" y="398" type="curve"/>
      <point x="473" y="450"/>
      <point x="529" y="493"/>
      <point x="609" y="493" type="curve" smooth="yes"/>
      <point x="729" y="493"/>
      <point x="785" y="408"/>
      <point x="785" y="288" type="curve" smooth="yes"/>
      <point x="785" y="278"/>
      <point x="785" y="269"/>
      <point x="784" y="260" type="curve"/>
      <point x="483" y="260" type="line"/>
      <point x="483" y="144"/>
      <point x="531" y="54"/>
      <point x="647" y="54" type="curve" smooth="yes"/>
      <point x="706" y="54"/>
      <point x="751" y="84"/>
      <point x="785" y="111" type="curve"/>
      <point x="785" y="50" type="line"/>
      <point x="740" y="19"/>
      <point x="688" y="-12"/>
      <point x="614" y="-12" type="curve" smooth="yes"/>
      <point x="526" y="-12"/>
      <point x="472" y="34"/>
      <point x="437" y="87" type="curve"/>
      <point x="399" y="35"/>
      <point x="349" y="-13"/>
      <point x="261" y="-13" type="curve" smooth="yes"/>
      <point x="117" y="-13"/>
      <point x="34" y="96"/>
    </contour>
    <contour>
      <point x="138" y="244" type="curve" smooth="yes"/>
      <point x="138" y="147"/>
      <point x="168" y="34"/>
      <point x="263" y="34" type="curve" smooth="yes"/>
      <point x="359" y="34"/>
      <point x="389" y="141"/>
      <point x="389" y="238" type="curve" smooth="yes"/>
      <point x="389" y="337"/>
      <point x="361" y="446"/>
      <point x="264" y="446" type="curve" smooth="yes"/>
      <point x="167" y="446"/>
      <point x="138" y="342"/>
    </contour>
    <contour>
      <point x="488" y="305" type="curve"/>
      <point x="684" y="305" type="line"/>
      <point x="684" y="328" type="line" smooth="yes"/>
      <point x="684" y="390"/>
      <point x="660" y="445"/>
      <point x="599" y="445" type="curve" smooth="yes"/>
      <point x="525" y="445"/>
      <point x="495" y="373"/>
    </contour>
  </outline>
</glyph>
<glyph name="tcaron" format="2">
  <advance width="339"/>
  <unicode hex="0165"/>
  <outline>
    <component base="t"/>
    <contour>
      <point x="228" y="705" type="curve" smooth="yes"/>
      <point x="228" y="736"/>
      <point x="252" y="752"/>
      <point x="283" y="752" type="curve" smooth="yes"/>
      <point x="329" y="752"/>
      <point x="354" y="720"/>
      <point x="354" y="671" type="curve" smooth="yes"/>
      <point x="354" y="594"/>
      <point x="294" y="558"/>
      <point x="229" y="546" type="curve"/>
      <point x="229" y="575" type="line"/>
      <point x="276" y="589"/>
      <point x="302" y="609"/>
      <point x="302" y="669" type="curve"/>
      <point x="243" y="669" type="line"/>
      <point x="233" y="679"/>
      <point x="228" y="694"/>
    </contour>
  </outline>
</glyph>
<glyph name="Tbar" format="2">
  <advance width="599"/>
  <unicode hex="0166"/>
  <outline>
    <component base="T"/>
    <contour>
      <point x="109" y="326" type="line"/>
      <point x="109" y="377" type="line"/>
      <point x="490" y="377" type="line"/>
      <point x="490" y="326" type="line"/>
    </contour>
  </outline>
</glyph>
<glyph name="tbar" format="2">
  <advance width="339"/>
  <unicode hex="0167"/>
  <outline>
    <component base="t"/>
    <contour>
      <point x="27" y="222" type="line"/>
      <point x="27" y="272" type="line"/>
      <point x="325" y="272" type="line"/>
      <point x="325" y="222" type="line"/>
    </contour>
  </outline>
</glyph>
<glyph name="uni0180" format="2">
  <advance width="555"/>
  <unicode hex="0180"/>
  <outline>
    <contour>
      <point x="7" y="539" type="line"/>
      <point x="7" y="590" type="line"/>
      <point x="90" y="590" type="line"/>
      <point x="90" y="665" type="line"/>
      <point x="14" y="665" type="line"/>
      <point x="14" y="698" type="line"/>
      <point x="144" y="737" type="line"/>
      <point x="183" y="737" type="line"/>
      <point x="183" y="590" type="line"/>
      <point x="304" y="590" type="line"/>
      <point x="304" y="539" type="line"/>
      <point x="183" y="539" type="line"/>
      <point x="183" y="456" type="line"/>
      <point x="221" y="473"/>
      <point x="266" y="493"/>
      <point x="321" y="493" type="curve" smooth="yes"/>
      <point x="453" y="493"/>
      <point x="520" y="394"/>
      <point x="520" y="263" type="curve" smooth="yes"/>
      <point x="520" y="88"/>
      <point x="411" y="0"/>
      <point x="234" y="0" type="curve" smooth="yes"/>
      <point x="90" y="0" type="line"/>
      <point x="90" y="539" type="line"/>
    </contour>
    <contour>
      <point x="182" y="48" type="line"/>
      <point x="197" y="47"/>
      <point x="215" y="47"/>
      <point x="231" y="47" type="curve" smooth="yes"/>
      <point x="362" y="47"/>
      <point x="418" y="111"/>
      <point x="418" y="243" type="curve" smooth="yes"/>
      <point x="418" y="355"/>
      <point x="374" y="434"/>
      <point x="264" y="434" type="curve" smooth="yes"/>
      <point x="235" y="434"/>
      <point x="205" y="426"/>
      <point x="182" y="419" type="curve"/>
    </contour>
  </outline>
</glyph>
<glyph name="uni0181" format="2">
  <advance width="676"/>
  <unicode hex="0181"/>
  <outline>
    <contour>
      <point x="276" y="370" type="line"/>
      <point x="288.21" y="368"/>
      <point x="300.79" y="368"/>
      <point x="313" y="368" type="curve" smooth="yes"/>
      <point x="420" y="368"/>
      <point x="488" y="400"/>
      <point x="488" y="504" type="curve" smooth="yes"/>
      <point x="488" y="592"/>
      <point x="424" y="625"/>
      <point x="334" y="625" type="curve" smooth="yes"/>
      <point x="314" y="625"/>
      <point x="295" y="624"/>
      <point x="276" y="622" type="curve"/>
    </contour>
    <contour>
      <point x="277" y="52" type="line"/>
      <point x="297" y="50"/>
      <point x="318" y="49"/>
      <point x="340" y="49" type="curve" smooth="yes"/>
      <point x="456" y="49"/>
      <point x="528" y="103"/>
      <point x="528" y="190" type="curve" smooth="yes"/>
      <point x="528" y="286"/>
      <point x="466" y="322"/>
      <point x="366" y="322" type="curve" smooth="yes"/>
      <point x="336" y="322"/>
      <point x="304" y="319"/>
      <point x="277" y="316" type="curve"/>
    </contour>
    <contour>
      <point x="104" y="0" type="line"/>
      <point x="104" y="43" type="line"/>
      <point x="154" y="47" type="line" smooth="yes"/>
      <point x="166" y="48"/>
      <point x="179" y="57"/>
      <point x="179" y="69" type="curve" smooth="yes"/>
      <point x="179" y="603" type="line" smooth="yes"/>
      <point x="179" y="616"/>
      <point x="171" y="624"/>
      <point x="158" y="624" type="curve" smooth="yes"/>
      <point x="120" y="624" type="line" smooth="yes"/>
      <point x="88" y="624"/>
      <point x="73" y="618"/>
      <point x="61" y="600" type="curve"/>
      <point x="103" y="529" type="line"/>
      <point x="84.6429" y="508.348"/>
      <point x="64.7" y="499"/>
      <point x="42.6133" y="499" type="curve" smooth="yes"/>
      <point x="5.58589" y="499"/>
      <point x="-16" y="524.118"/>
      <point x="-16" y="567" type="curve" smooth="yes"/>
      <point x="-16" y="635.147"/>
      <point x="38.1111" y="671"/>
      <point x="147" y="671" type="curve" smooth="yes"/>
      <point x="372" y="671" type="line" smooth="yes"/>
      <point x="499" y="671"/>
      <point x="598" y="633"/>
      <point x="598" y="510" type="curve" smooth="yes"/>
      <point x="598" y="415"/>
      <point x="527" y="376"/>
      <point x="453" y="356" type="curve"/>
      <point x="559" y="356"/>
      <point x="638" y="304"/>
      <point x="638" y="198" type="curve" smooth="yes"/>
      <point x="638" y="55"/>
      <point x="525" y="0"/>
      <point x="384" y="0" type="curve" smooth="yes"/>
    </contour>
  </outline>
</glyph>
<glyph name="uni0183" format="2">
  <advance width="555"/>
  <unicode hex="0183"/>
  <outline>
    <contour>
      <point x="90" y="0" type="line"/>
      <point x="90" y="737" type="line"/>
      <point x="466" y="737" type="line"/>
      <point x="466" y="581" type="line"/>
      <point x="411" y="581" type="line"/>
      <point x="398" y="671" type="line"/>
      <point x="397" y="680"/>
      <point x="391" y="690"/>
      <point x="381" y="690" type="curve" smooth="yes"/>
      <point x="203" y="690" type="line" smooth="yes"/>
      <point x="191" y="690"/>
      <point x="182" y="680"/>
      <point x="182" y="669" type="curve" smooth="yes"/>
      <point x="182" y="457" type="line"/>
      <point x="220" y="474"/>
      <point x="265" y="494"/>
      <point x="320" y="494" type="curve" smooth="yes"/>
      <point x="452" y="494"/>
      <point x="520" y="396"/>
      <point x="520" y="264" type="curve" smooth="yes"/>
      <point x="520" y="89"/>
      <point x="411" y="0"/>
      <point x="234" y="0" type="curve" smooth="yes"/>
    </contour>
    <contour>
      <point x="182" y="48" type="line"/>
      <point x="197" y="47"/>
      <point x="215" y="47"/>
      <point x="231" y="47" type="curve" smooth="yes"/>
      <point x="362" y="47"/>
      <point x="418" y="112"/>
      <point x="418" y="244" type="curve" smooth="yes"/>
      <point x="418" y="357"/>
      <point x="371" y="435"/>
      <point x="265" y="435" type="curve" smooth="yes"/>
      <point x="235" y="435"/>
      <point x="206" y="427"/>
      <point x="182" y="419" type="curve"/>
    </contour>
  </outline>
</glyph>
<glyph name="uni0187" format="2">
  <advance width="626"/>
  <unicode hex="0187"/>
  <outline>
    <contour>
      <point x="39" y="336" type="curve" smooth="yes"/>
      <point x="39" y="548"/>
      <point x="177" y="687"/>
      <point x="389" y="687" type="curve" smooth="yes"/>
      <point x="437" y="687"/>
      <point x="470" y="680"/>
      <point x="510" y="670" type="curve"/>
      <point x="518" y="771"/>
      <point x="566" y="843"/>
      <point x="675" y="843" type="curve" smooth="yes"/>
      <point x="722" y="843"/>
      <point x="770" y="827"/>
      <point x="770" y="781" type="curve" smooth="yes"/>
      <point x="770" y="749"/>
      <point x="751" y="732"/>
      <point x="727" y="725" type="curve"/>
      <point x="636" y="794" type="line"/>
      <point x="601" y="782"/>
      <point x="593" y="757"/>
      <point x="592" y="710" type="curve"/>
      <point x="592" y="490" type="line"/>
      <point x="532" y="490" type="line"/>
      <point x="517" y="581" type="line" smooth="yes"/>
      <point x="514" y="597"/>
      <point x="498" y="605"/>
      <point x="484" y="611" type="curve" smooth="yes"/>
      <point x="461" y="621"/>
      <point x="432" y="631"/>
      <point x="397" y="631" type="curve" smooth="yes"/>
      <point x="233" y="631"/>
      <point x="156" y="503"/>
      <point x="156" y="337" type="curve" smooth="yes"/>
      <point x="156" y="163"/>
      <point x="237" y="38"/>
      <point x="408" y="38" type="curve" smooth="yes"/>
      <point x="436" y="38"/>
      <point x="462" y="44"/>
      <point x="481" y="52" type="curve"/>
      <point x="494" y="58"/>
      <point x="503" y="62"/>
      <point x="507" y="75" type="curve"/>
      <point x="530" y="184" type="line"/>
      <point x="588" y="184" type="line"/>
      <point x="588" y="22" type="line"/>
      <point x="542" y="-2"/>
      <point x="458" y="-17"/>
      <point x="388" y="-17" type="curve" smooth="yes"/>
      <point x="176" y="-17"/>
      <point x="39" y="127"/>
    </contour>
  </outline>
</glyph>
<glyph name="uni018B" format="2">
  <advance width="612"/>
  <unicode hex="018B"/>
  <outline>
    <contour>
      <point x="40" y="186" type="curve" smooth="yes"/>
      <point x="40" y="325"/>
      <point x="185" y="370"/>
      <point x="325" y="370" type="curve" smooth="yes"/>
      <point x="350" y="370"/>
      <point x="375" y="368"/>
      <point x="397" y="365" type="curve"/>
      <point x="397" y="603" type="line" smooth="yes"/>
      <point x="397" y="615"/>
      <point x="388" y="625"/>
      <point x="377" y="625" type="curve" smooth="yes"/>
      <point x="209" y="625" type="line" smooth="yes"/>
      <point x="199" y="625"/>
      <point x="193" y="615"/>
      <point x="192" y="606" type="curve" smooth="yes"/>
      <point x="180" y="516" type="line"/>
      <point x="125" y="516" type="line"/>
      <point x="125" y="672" type="line"/>
      <point x="573" y="672" type="line"/>
      <point x="573" y="629" type="line"/>
      <point x="521" y="625" type="line" smooth="yes"/>
      <point x="509" y="624"/>
      <point x="500" y="615"/>
      <point x="500" y="604" type="curve" smooth="yes"/>
      <point x="500" y="69" type="line" smooth="yes"/>
      <point x="500" y="58"/>
      <point x="509" y="49"/>
      <point x="521" y="48" type="curve" smooth="yes"/>
      <point x="582" y="44" type="line"/>
      <point x="582" y="1" type="line"/>
      <point x="342" y="1" type="line" smooth="yes"/>
      <point x="178" y="1"/>
      <point x="40" y="24"/>
    </contour>
    <contour>
      <point x="147" y="180" type="curve" smooth="yes"/>
      <point x="147" y="65"/>
      <point x="231" y="46"/>
      <point x="347" y="46" type="curve" smooth="yes"/>
      <point x="364" y="46"/>
      <point x="381" y="47"/>
      <point x="397" y="48" type="curve"/>
      <point x="397" y="317" type="line"/>
      <point x="377" y="320"/>
      <point x="356" y="322"/>
      <point x="333" y="322" type="curve" smooth="yes"/>
      <point x="220" y="322"/>
      <point x="147" y="291"/>
    </contour>
  </outline>
</glyph>
<glyph name="uni018C" format="2">
  <advance width="563"/>
  <unicode hex="018C"/>
  <outline>
    <contour>
      <point x="33" y="229" type="curve" smooth="yes"/>
      <point x="33" y="386"/>
      <point x="130" y="495"/>
      <point x="288" y="495" type="curve" smooth="yes"/>
      <point x="321" y="495"/>
      <point x="354" y="489"/>
      <point x="381" y="483" type="curve"/>
      <point x="381" y="670" type="line" smooth="yes"/>
      <point x="381" y="680"/>
      <point x="371" y="691"/>
      <point x="360" y="691" type="curve" smooth="yes"/>
      <point x="182" y="691" type="line" smooth="yes"/>
      <point x="175" y="691"/>
      <point x="168" y="683"/>
      <point x="167" y="676" type="curve" smooth="yes"/>
      <point x="153" y="582" type="line"/>
      <point x="98" y="582" type="line"/>
      <point x="98" y="738" type="line"/>
      <point x="474" y="738" type="line"/>
      <point x="474" y="65" type="line" smooth="yes"/>
      <point x="474" y="53"/>
      <point x="484" y="45"/>
      <point x="495" y="44" type="curve" smooth="yes"/>
      <point x="538" y="41" type="line"/>
      <point x="538" y="2" type="line"/>
      <point x="381" y="2" type="line"/>
      <point x="381" y="55" type="line"/>
      <point x="341" y="25"/>
      <point x="292" y="-11"/>
      <point x="225" y="-11" type="curve" smooth="yes"/>
      <point x="97" y="-11"/>
      <point x="33" y="101"/>
    </contour>
    <contour>
      <point x="133" y="245" type="curve" smooth="yes"/>
      <point x="133" y="140"/>
      <point x="174" y="57"/>
      <point x="278" y="57" type="curve" smooth="yes"/>
      <point x="321" y="57"/>
      <point x="353" y="75"/>
      <point x="381" y="92" type="curve"/>
      <point x="381" y="432" type="line"/>
      <point x="357" y="440"/>
      <point x="327" y="447"/>
      <point x="296" y="447" type="curve" smooth="yes"/>
      <point x="184" y="447"/>
      <point x="133" y="356"/>
    </contour>
  </outline>
</glyph>
<glyph name="uni018D" format="2">
  <advance width="519"/>
  <unicode hex="018D"/>
  <outline>
    <contour>
      <point x="35" y="257" type="curve" smooth="yes"/>
      <point x="35" y="394"/>
      <point x="123" y="493"/>
      <point x="257" y="493" type="curve" smooth="yes"/>
      <point x="395" y="493"/>
      <point x="486" y="417"/>
      <point x="486" y="278" type="curve" smooth="yes"/>
      <point x="486" y="145"/>
      <point x="371" y="83"/>
      <point x="273" y="47" type="curve"/>
      <point x="309" y="22"/>
      <point x="348" y="-6"/>
      <point x="380" y="-34" type="curve" smooth="yes"/>
      <point x="403" y="-54"/>
      <point x="429" y="-79"/>
      <point x="429" y="-117" type="curve" smooth="yes"/>
      <point x="429" y="-206"/>
      <point x="356" y="-254"/>
      <point x="268" y="-254" type="curve" smooth="yes"/>
      <point x="179" y="-254"/>
      <point x="66" y="-222"/>
      <point x="66" y="-139" type="curve" smooth="yes"/>
      <point x="66" y="-105"/>
      <point x="90" y="-83"/>
      <point x="127" y="-83" type="curve" smooth="yes"/>
      <point x="140" y="-83"/>
      <point x="157" y="-85"/>
      <point x="165" y="-90" type="curve"/>
      <point x="186" y="-169" type="line"/>
      <point x="209" y="-187"/>
      <point x="235" y="-204"/>
      <point x="272" y="-204" type="curve" smooth="yes"/>
      <point x="314" y="-204"/>
      <point x="356" y="-179"/>
      <point x="356" y="-136" type="curve" smooth="yes"/>
      <point x="356" y="-99"/>
      <point x="289" y="-56"/>
      <point x="255" y="-34" type="curve" smooth="yes"/>
      <point x="214" y="-8"/>
      <point x="173" y="22"/>
      <point x="136" y="54" type="curve" smooth="yes"/>
      <point x="84" y="99"/>
      <point x="35" y="163"/>
    </contour>
    <contour>
      <point x="136" y="265" type="curve" smooth="yes"/>
      <point x="136" y="175"/>
      <point x="187" y="122"/>
      <point x="237" y="79" type="curve"/>
      <point x="310" y="114"/>
      <point x="385" y="172"/>
      <point x="385" y="279" type="curve" smooth="yes"/>
      <point x="385" y="369"/>
      <point x="350" y="449"/>
      <point x="263" y="449" type="curve" smooth="yes"/>
      <point x="168" y="449"/>
      <point x="136" y="361"/>
    </contour>
  </outline>
</glyph>
<glyph name="uni018F" format="2">
  <advance width="662"/>
  <unicode hex="018F"/>
  <outline>
    <contour>
      <point x="40" y="335" type="line"/>
      <point x="508" y="335" type="line"/>
      <point x="508" y="492"/>
      <point x="451" y="625"/>
      <point x="299" y="625" type="curve" smooth="yes"/>
      <point x="194" y="625"/>
      <point x="118" y="575"/>
      <point x="64" y="518" type="curve"/>
      <point x="64" y="601" type="line"/>
      <point x="121" y="654"/>
      <point x="195" y="686"/>
      <point x="298" y="686" type="curve" smooth="yes"/>
      <point x="500" y="686"/>
      <point x="625" y="540"/>
      <point x="625" y="335" type="curve" smooth="yes"/>
      <point x="625" y="143"/>
      <point x="522" y="-16"/>
      <point x="333" y="-16" type="curve" smooth="yes"/>
      <point x="136" y="-16"/>
      <point x="40" y="100"/>
      <point x="40" y="296" type="curve" smooth="yes"/>
    </contour>
    <contour>
      <point x="155" y="242" type="line" smooth="yes"/>
      <point x="155" y="126"/>
      <point x="218" y="39"/>
      <point x="333" y="39" type="curve" smooth="yes"/>
      <point x="446" y="39"/>
      <point x="495" y="168"/>
      <point x="504" y="273" type="curve"/>
      <point x="155" y="273" type="line"/>
    </contour>
  </outline>
</glyph>
<glyph name="uni0190" format="2">
  <advance width="559"/>
  <unicode hex="0190"/>
  <outline>
    <contour>
      <point x="39" y="189" type="curve" smooth="yes"/>
      <point x="39" y="296"/>
      <point x="125" y="347"/>
      <point x="227" y="351" type="curve"/>
      <point x="150" y="373"/>
      <point x="79" y="417"/>
      <point x="79" y="512" type="curve" smooth="yes"/>
      <point x="79" y="629"/>
      <point x="177" y="685"/>
      <point x="295" y="685" type="curve" smooth="yes"/>
      <point x="405" y="685"/>
      <point x="513" y="657"/>
      <point x="513" y="551" type="curve" smooth="yes"/>
      <point x="513" y="516"/>
      <point x="486" y="491"/>
      <point x="452" y="491" type="curve" smooth="yes"/>
      <point x="437" y="491"/>
      <point x="417" y="498"/>
      <point x="408" y="507" type="curve"/>
      <point x="408" y="602" type="line"/>
      <point x="382" y="620"/>
      <point x="359" y="634"/>
      <point x="317" y="634" type="curve" smooth="yes"/>
      <point x="239" y="634"/>
      <point x="189" y="581"/>
      <point x="189" y="502" type="curve" smooth="yes"/>
      <point x="189" y="416"/>
      <point x="243" y="373"/>
      <point x="332" y="373" type="curve" smooth="yes"/>
      <point x="346" y="373"/>
      <point x="351" y="373"/>
      <point x="359" y="374" type="curve"/>
      <point x="359" y="315" type="line"/>
      <point x="346" y="317"/>
      <point x="325" y="318"/>
      <point x="304" y="318" type="curve" smooth="yes"/>
      <point x="215" y="318"/>
      <point x="149" y="280"/>
      <point x="149" y="190" type="curve" smooth="yes"/>
      <point x="149" y="92"/>
      <point x="219" y="34"/>
      <point x="318" y="34" type="curve" smooth="yes"/>
      <point x="355" y="34"/>
      <point x="376" y="47"/>
      <point x="400" y="62" type="curve"/>
      <point x="434" y="154" type="line"/>
      <point x="442" y="158"/>
      <point x="455" y="160"/>
      <point x="467" y="160" type="curve" smooth="yes"/>
      <point x="501" y="160"/>
      <point x="525" y="137"/>
      <point x="525" y="102" type="curve" smooth="yes"/>
      <point x="525" y="17"/>
      <point x="397" y="-19"/>
      <point x="305" y="-19" type="curve" smooth="yes"/>
      <point x="150" y="-19"/>
      <point x="39" y="37"/>
    </contour>
  </outline>
</glyph>
<glyph name="uni0193" format="2">
  <advance width="694"/>
  <unicode hex="0193"/>
  <outline>
    <contour>
      <point x="39" y="337" type="curve" smooth="yes"/>
      <point x="39" y="555"/>
      <point x="180" y="687"/>
      <point x="398" y="687" type="curve" smooth="yes"/>
      <point x="445" y="687"/>
      <point x="478" y="683"/>
      <point x="518" y="673" type="curve"/>
      <point x="526" y="774"/>
      <point x="573" y="844"/>
      <point x="682" y="844" type="curve" smooth="yes"/>
      <point x="729" y="844"/>
      <point x="777" y="828"/>
      <point x="777" y="782" type="curve" smooth="yes"/>
      <point x="777" y="750"/>
      <point x="757" y="733"/>
      <point x="734" y="725" type="curve"/>
      <point x="643" y="794" type="line"/>
      <point x="608" y="782"/>
      <point x="599" y="757"/>
      <point x="599" y="710" type="curve" smooth="yes"/>
      <point x="599" y="490" type="line"/>
      <point x="539" y="490" type="line"/>
      <point x="523" y="580" type="line" smooth="yes"/>
      <point x="520" y="597"/>
      <point x="504" y="607"/>
      <point x="489" y="613" type="curve"/>
      <point x="466" y="623"/>
      <point x="435" y="630"/>
      <point x="402" y="630" type="curve" smooth="yes"/>
      <point x="233" y="630"/>
      <point x="153" y="512"/>
      <point x="153" y="341" type="curve" smooth="yes"/>
      <point x="153" y="165"/>
      <point x="237" y="39"/>
      <point x="410" y="39" type="curve" smooth="yes"/>
      <point x="443" y="39"/>
      <point x="472" y="46"/>
      <point x="497" y="55" type="curve"/>
      <point x="497" y="255" type="line" smooth="yes"/>
      <point x="497" y="268"/>
      <point x="489" y="275"/>
      <point x="476" y="276" type="curve" smooth="yes"/>
      <point x="409" y="281" type="line"/>
      <point x="409" y="324" type="line"/>
      <point x="670" y="324" type="line"/>
      <point x="670" y="281" type="line"/>
      <point x="619" y="276" type="line" smooth="yes"/>
      <point x="606" y="275"/>
      <point x="598" y="268"/>
      <point x="598" y="255" type="curve" smooth="yes"/>
      <point x="598" y="24" type="line"/>
      <point x="539" y="2"/>
      <point x="470" y="-16"/>
      <point x="388" y="-16" type="curve" smooth="yes"/>
      <point x="176" y="-16"/>
      <point x="39" y="126"/>
    </contour>
  </outline>
</glyph>
<glyph name="uni0194" format="2">
  <advance width="666"/>
  <unicode hex="0194"/>
  <outline>
    <contour>
      <point x="11" y="633" type="line"/>
      <point x="11" y="672" type="line"/>
      <point x="275" y="672" type="line"/>
      <point x="275" y="633" type="line"/>
      <point x="219" y="630" type="line"/>
      <point x="208" y="629"/>
      <point x="201" y="625"/>
      <point x="201" y="618" type="curve"/>
      <point x="201" y="616"/>
      <point x="202" y="614"/>
      <point x="203" y="612" type="curve" smooth="yes"/>
      <point x="354" y="325" type="line"/>
      <point x="517" y="612" type="line"/>
      <point x="519" y="615"/>
      <point x="520" y="618"/>
      <point x="520" y="620" type="curve" smooth="yes"/>
      <point x="520" y="625"/>
      <point x="515" y="630"/>
      <point x="506" y="630" type="curve"/>
      <point x="448" y="633" type="line"/>
      <point x="448" y="672" type="line"/>
      <point x="658" y="672" type="line"/>
      <point x="658" y="633" type="line"/>
      <point x="590" y="627" type="line"/>
      <point x="387" y="262" type="line"/>
      <point x="458" y="126" type="line" smooth="yes"/>
      <point x="465" y="113"/>
      <point x="471" y="101"/>
      <point x="471" y="87" type="curve" smooth="yes"/>
      <point x="471" y="20"/>
      <point x="415" y="-15"/>
      <point x="345" y="-15" type="curve" smooth="yes"/>
      <point x="279" y="-15"/>
      <point x="224" y="10"/>
      <point x="224" y="73" type="curve" smooth="yes"/>
      <point x="224" y="89"/>
      <point x="228" y="102"/>
      <point x="234" y="113" type="curve" smooth="yes"/>
      <point x="295" y="221" type="line"/>
      <point x="82" y="628" type="line"/>
    </contour>
    <contour>
      <point x="286" y="77" type="curve" smooth="yes"/>
      <point x="286" y="56"/>
      <point x="305" y="42"/>
      <point x="327" y="42" type="curve" smooth="yes"/>
      <point x="351" y="42"/>
      <point x="366" y="56"/>
      <point x="366" y="78" type="curve" smooth="yes"/>
      <point x="366" y="85"/>
      <point x="363" y="91"/>
      <point x="360" y="97" type="curve" smooth="yes"/>
      <point x="328" y="159" type="line"/>
      <point x="291" y="97" type="line"/>
      <point x="287" y="91"/>
      <point x="286" y="83"/>
    </contour>
  </outline>
</glyph>
<glyph name="uni0195" format="2">
  <advance width="869"/>
  <unicode hex="0195"/>
  <outline>
    <contour>
      <point x="14" y="666" type="line"/>
      <point x="14" y="699" type="line"/>
      <point x="142" y="738" type="line"/>
      <point x="182" y="738" type="line"/>
      <point x="182" y="433" type="line"/>
      <point x="247" y="475"/>
      <point x="298" y="494"/>
      <point x="348" y="494" type="curve" smooth="yes"/>
      <point x="433" y="494"/>
      <point x="484" y="438"/>
      <point x="484" y="343" type="curve" smooth="yes"/>
      <point x="484" y="169" type="line" smooth="yes"/>
      <point x="484" y="88"/>
      <point x="517" y="51"/>
      <point x="591" y="51" type="curve" smooth="yes"/>
      <point x="656" y="51"/>
      <point x="687" y="88"/>
      <point x="687" y="166" type="curve" smooth="yes"/>
      <point x="687" y="423" type="line"/>
      <point x="617" y="423" type="line"/>
      <point x="617" y="457" type="line"/>
      <point x="739" y="496" type="line"/>
      <point x="780" y="496" type="line"/>
      <point x="780" y="173" type="line" smooth="yes"/>
      <point x="780" y="60"/>
      <point x="703" y="-11"/>
      <point x="581" y="-11" type="curve" smooth="yes"/>
      <point x="459" y="-11"/>
      <point x="390" y="53"/>
      <point x="390" y="166" type="curve" smooth="yes"/>
      <point x="390" y="323" type="line" smooth="yes"/>
      <point x="390" y="390"/>
      <point x="358" y="422"/>
      <point x="291" y="422" type="curve" smooth="yes"/>
      <point x="254" y="422"/>
      <point x="217" y="412"/>
      <point x="182" y="393" type="curve"/>
      <point x="182" y="65" type="line" smooth="yes"/>
      <point x="182" y="53"/>
      <point x="191" y="45"/>
      <point x="202" y="44" type="curve" smooth="yes"/>
      <point x="245" y="41" type="line"/>
      <point x="245" y="2" type="line"/>
      <point x="20" y="2" type="line"/>
      <point x="20" y="41" type="line"/>
      <point x="68" y="44" type="line"/>
      <point x="79" y="45"/>
      <point x="89" y="53"/>
      <point x="89" y="65" type="curve" smooth="yes"/>
      <point x="89" y="666" type="line"/>
    </contour>
  </outline>
</glyph>
<glyph name="uni0196" format="2">
  <advance width="410"/>
  <unicode hex="0196"/>
  <outline>
    <contour>
      <point x="28" y="628" type="line"/>
      <point x="28" y="671" type="line"/>
      <point x="218" y="671" type="line"/>
      <point x="218" y="136" type="line" smooth="yes"/>
      <point x="218" y="87"/>
      <point x="238" y="64"/>
      <point x="281" y="64" type="curve" smooth="yes"/>
      <point x="317" y="64"/>
      <point x="337" y="82"/>
      <point x="356" y="133" type="curve"/>
      <point x="410" y="133" type="line"/>
      <point x="385" y="44"/>
      <point x="317" y="-16"/>
      <point x="242" y="-16" type="curve" smooth="yes"/>
      <point x="152" y="-16"/>
      <point x="112" y="31"/>
      <point x="112" y="138" type="curve" smooth="yes"/>
      <point x="112" y="602" type="line" smooth="yes"/>
      <point x="112" y="614"/>
      <point x="103" y="622"/>
      <point x="91" y="623" type="curve" smooth="yes"/>
    </contour>
  </outline>
</glyph>
<glyph name="uni0198" format="2">
  <advance width="638"/>
  <unicode hex="0198"/>
  <outline>
    <contour>
      <point x="31" y="0" type="line"/>
      <point x="31" y="43" type="line"/>
      <point x="84" y="47" type="line" smooth="yes"/>
      <point x="96" y="48"/>
      <point x="105" y="57"/>
      <point x="105" y="69" type="curve" smooth="yes"/>
      <point x="105" y="602" type="line" smooth="yes"/>
      <point x="105" y="614"/>
      <point x="96" y="623"/>
      <point x="84" y="624" type="curve" smooth="yes"/>
      <point x="31" y="628" type="line"/>
      <point x="31" y="671" type="line"/>
      <point x="284" y="671" type="line"/>
      <point x="284" y="628" type="line"/>
      <point x="227" y="624" type="line" smooth="yes"/>
      <point x="215" y="623"/>
      <point x="206" y="614"/>
      <point x="206" y="602" type="curve" smooth="yes"/>
      <point x="206" y="340" type="line"/>
      <point x="242" y="340" type="line"/>
      <point x="446" y="588" type="line" smooth="yes"/>
      <point x="506" y="661"/>
      <point x="549" y="687"/>
      <point x="610" y="687" type="curve" smooth="yes"/>
      <point x="660" y="687"/>
      <point x="697" y="657"/>
      <point x="697" y="618" type="curve" smooth="yes"/>
      <point x="697" y="593"/>
      <point x="681" y="574"/>
      <point x="649" y="563" type="curve"/>
      <point x="558" y="629" type="line"/>
      <point x="545" y="623"/>
      <point x="531" y="608"/>
      <point x="509" y="582" type="curve" smooth="yes"/>
      <point x="341" y="376" type="line"/>
      <point x="564" y="48" type="line"/>
      <point x="637" y="43" type="line"/>
      <point x="637" y="0" type="line"/>
      <point x="461" y="0" type="line"/>
      <point x="461" y="31" type="line"/>
      <point x="276" y="298" type="line"/>
      <point x="206" y="298" type="line"/>
      <point x="206" y="69" type="line" smooth="yes"/>
      <point x="206" y="57"/>
      <point x="215" y="48"/>
      <point x="227" y="47" type="curve" smooth="yes"/>
      <point x="284" y="43" type="line"/>
      <point x="284" y="0" type="line"/>
    </contour>
  </outline>
</glyph>
<glyph name="uni019A" format="2">
  <advance width="296"/>
  <unicode hex="019A"/>
  <outline>
    <contour>
      <point x="0" y="326" type="line"/>
      <point x="0" y="376" type="line"/>
      <point x="297" y="376" type="line"/>
      <point x="297" y="326" type="line"/>
    </contour>
    <contour>
      <point x="26" y="665" type="line"/>
      <point x="26" y="698" type="line"/>
      <point x="154" y="737" type="line"/>
      <point x="195" y="737" type="line"/>
      <point x="195" y="63" type="line" smooth="yes"/>
      <point x="195" y="54"/>
      <point x="207" y="42"/>
      <point x="216" y="42" type="curve"/>
      <point x="270" y="39" type="line"/>
      <point x="270" y="0" type="line"/>
      <point x="27" y="0" type="line"/>
      <point x="27" y="39" type="line"/>
      <point x="80" y="42" type="line"/>
      <point x="89" y="42"/>
      <point x="102" y="54"/>
      <point x="102" y="63" type="curve" smooth="yes"/>
      <point x="102" y="665" type="line"/>
    </contour>
  </outline>
</glyph>
<glyph name="uni019B" format="2">
  <advance width="645"/>
  <unicode hex="019B"/>
  <outline>
    <contour>
      <point x="11" y="-2" type="line"/>
      <point x="246" y="454" type="line"/>
      <point x="224" y="509" type="line"/>
      <point x="97" y="398" type="line"/>
      <point x="97" y="470" type="line"/>
      <point x="202" y="562" type="line"/>
      <point x="188" y="593"/>
      <point x="174" y="620"/>
      <point x="142" y="620" type="curve" smooth="yes"/>
      <point x="131" y="620"/>
      <point x="121" y="618"/>
      <point x="117" y="610" type="curve" smooth="yes"/>
      <point x="73" y="525" type="line"/>
      <point x="45" y="525"/>
      <point x="14" y="557"/>
      <point x="14" y="585" type="curve" smooth="yes"/>
      <point x="14" y="664"/>
      <point x="53" y="687"/>
      <point x="132" y="687" type="curve" smooth="yes"/>
      <point x="197" y="687"/>
      <point x="226" y="652"/>
      <point x="250" y="605" type="curve"/>
      <point x="343" y="687" type="line"/>
      <point x="343" y="615" type="line"/>
      <point x="272" y="554" type="line"/>
      <point x="438" y="141" type="line" smooth="yes"/>
      <point x="461" y="83"/>
      <point x="484" y="54"/>
      <point x="507" y="54" type="curve" smooth="yes"/>
      <point x="517" y="54"/>
      <point x="526" y="57"/>
      <point x="535" y="63" type="curve"/>
      <point x="578" y="148" type="line"/>
      <point x="619" y="148"/>
      <point x="647" y="116"/>
      <point x="647" y="68" type="curve" smooth="yes"/>
      <point x="647" y="14"/>
      <point x="610" y="-14"/>
      <point x="539" y="-14" type="curve" smooth="yes"/>
      <point x="469" y="-14"/>
      <point x="424" y="22"/>
      <point x="387" y="108" type="curve"/>
      <point x="289" y="351" type="line"/>
      <point x="107" y="-2" type="line"/>
    </contour>
  </outline>
</glyph>
<glyph name="uni019C" format="2">
  <advance width="1077"/>
  <unicode hex="019C"/>
  <outline>
    <contour>
      <point x="29" y="629" type="line"/>
      <point x="29" y="672" type="line"/>
      <point x="285" y="672" type="line"/>
      <point x="285" y="629" type="line"/>
      <point x="234" y="625" type="line" smooth="yes"/>
      <point x="222" y="624"/>
      <point x="213" y="615"/>
      <point x="213" y="603" type="curve" smooth="yes"/>
      <point x="213" y="219" type="line" smooth="yes"/>
      <point x="213" y="127"/>
      <point x="274" y="68"/>
      <point x="367" y="68" type="curve" smooth="yes"/>
      <point x="404" y="68"/>
      <point x="445" y="82"/>
      <point x="502" y="113" type="curve"/>
      <point x="494" y="138"/>
      <point x="490" y="166"/>
      <point x="490" y="198" type="curve" smooth="yes"/>
      <point x="490" y="602" type="line" smooth="yes"/>
      <point x="490" y="613"/>
      <point x="480" y="623"/>
      <point x="469" y="624" type="curve"/>
      <point x="407" y="628" type="line"/>
      <point x="407" y="671" type="line"/>
      <point x="663" y="671" type="line"/>
      <point x="663" y="628" type="line"/>
      <point x="612" y="624" type="line" smooth="yes"/>
      <point x="600" y="623"/>
      <point x="591" y="614"/>
      <point x="591" y="602" type="curve" smooth="yes"/>
      <point x="591" y="218" type="line" smooth="yes"/>
      <point x="591" y="119"/>
      <point x="634" y="67"/>
      <point x="717" y="67" type="curve" smooth="yes"/>
      <point x="773" y="67"/>
      <point x="809" y="84"/>
      <point x="866" y="138" type="curve"/>
      <point x="866" y="602" type="line" smooth="yes"/>
      <point x="866" y="613"/>
      <point x="856" y="623"/>
      <point x="845" y="624" type="curve"/>
      <point x="783" y="628" type="line"/>
      <point x="783" y="671" type="line"/>
      <point x="1039" y="671" type="line"/>
      <point x="1039" y="628" type="line"/>
      <point x="988" y="624" type="line" smooth="yes"/>
      <point x="976" y="623"/>
      <point x="967" y="614"/>
      <point x="967" y="602" type="curve" smooth="yes"/>
      <point x="967" y="67" type="line" smooth="yes"/>
      <point x="967" y="57"/>
      <point x="976" y="49"/>
      <point x="987" y="48" type="curve" smooth="yes"/>
      <point x="1045" y="43" type="line"/>
      <point x="1045" y="0" type="line"/>
      <point x="866" y="0" type="line"/>
      <point x="866" y="81" type="line"/>
      <point x="793" y="8"/>
      <point x="747" y="-15"/>
      <point x="677" y="-15" type="curve" smooth="yes"/>
      <point x="609" y="-15"/>
      <point x="555" y="13"/>
      <point x="522" y="66" type="curve"/>
      <point x="444" y="6"/>
      <point x="393" y="-15"/>
      <point x="328" y="-15" type="curve" smooth="yes"/>
      <point x="200" y="-15"/>
      <point x="112" y="72"/>
      <point x="112" y="199" type="curve" smooth="yes"/>
      <point x="112" y="603" type="line" smooth="yes"/>
      <point x="112" y="615"/>
      <point x="103" y="624"/>
      <point x="91" y="625" type="curve" smooth="yes"/>
    </contour>
  </outline>
</glyph>
<glyph name="uni019F" format="2">
  <advance width="722"/>
  <unicode hex="019F"/>
  <outline>
    <contour>
      <point x="37" y="332" type="curve" smooth="yes"/>
      <point x="37" y="532"/>
      <point x="170" y="676"/>
      <point x="368" y="676" type="curve" smooth="yes"/>
      <point x="558" y="676"/>
      <point x="684" y="525"/>
      <point x="684" y="334" type="curve" smooth="yes"/>
      <point x="684" y="132"/>
      <point x="561" y="-17"/>
      <point x="360" y="-17" type="curve" smooth="yes"/>
      <point x="163" y="-17"/>
      <point x="37" y="133"/>
    </contour>
    <contour>
      <point x="100" y="292" type="line"/>
      <point x="100" y="370" type="line"/>
      <point x="626" y="370" type="line"/>
      <point x="626" y="292" type="line"/>
    </contour>
    <contour>
      <point x="148" y="336" type="curve" smooth="yes"/>
      <point x="148" y="175"/>
      <point x="201" y="19"/>
      <point x="358" y="19" type="curve" smooth="yes"/>
      <point x="515" y="19"/>
      <point x="574" y="159"/>
      <point x="574" y="321" type="curve" smooth="yes"/>
      <point x="574" y="493"/>
      <point x="526" y="642"/>
      <point x="357" y="642" type="curve" smooth="yes"/>
      <point x="201" y="642"/>
      <point x="148" y="496"/>
    </contour>
  </outline>
</glyph>
<glyph name="uni01A2" format="2">
  <advance width="897"/>
  <unicode hex="01A2"/>
  <outline>
    <contour>
      <point x="39" y="335" type="curve" smooth="yes"/>
      <point x="39" y="537"/>
      <point x="164" y="685"/>
      <point x="366" y="685" type="curve" smooth="yes"/>
      <point x="434" y="685"/>
      <point x="489" y="680"/>
      <point x="538" y="665" type="curve" smooth="yes"/>
      <point x="573" y="654"/>
      <point x="605" y="644"/>
      <point x="651" y="644" type="curve" smooth="yes"/>
      <point x="704" y="644"/>
      <point x="730" y="659"/>
      <point x="758" y="686" type="curve"/>
      <point x="804" y="686" type="line"/>
      <point x="804" y="-150" type="line" smooth="yes"/>
      <point x="804" y="-162"/>
      <point x="813" y="-171"/>
      <point x="825" y="-172" type="curve" smooth="yes"/>
      <point x="886" y="-176" type="line"/>
      <point x="886" y="-219" type="line"/>
      <point x="622" y="-219" type="line"/>
      <point x="622" y="-176" type="line"/>
      <point x="682" y="-172" type="line" smooth="yes"/>
      <point x="694" y="-171"/>
      <point x="703" y="-162"/>
      <point x="703" y="-150" type="curve" smooth="yes"/>
      <point x="703" y="569" type="line"/>
      <point x="686" y="565"/>
      <point x="661" y="563"/>
      <point x="636" y="563" type="curve" smooth="yes"/>
      <point x="623" y="563"/>
      <point x="610" y="564"/>
      <point x="598" y="565" type="curve"/>
      <point x="598" y="160" type="line" smooth="yes"/>
      <point x="598" y="42"/>
      <point x="498" y="-17"/>
      <point x="378" y="-17" type="curve" smooth="yes"/>
      <point x="171" y="-17"/>
      <point x="39" y="130"/>
    </contour>
    <contour>
      <point x="154" y="335" type="curve" smooth="yes"/>
      <point x="154" y="173"/>
      <point x="223" y="40"/>
      <point x="380" y="40" type="curve" smooth="yes"/>
      <point x="469" y="40"/>
      <point x="498" y="87"/>
      <point x="498" y="176" type="curve" smooth="yes"/>
      <point x="498" y="593" type="line"/>
      <point x="458" y="615"/>
      <point x="427" y="628"/>
      <point x="367" y="628" type="curve" smooth="yes"/>
      <point x="214" y="628"/>
      <point x="154" y="489"/>
    </contour>
  </outline>
</glyph>
<glyph name="uni01A3" format="2">
  <advance width="740"/>
  <unicode hex="01A3"/>
  <outline>
    <contour>
      <point x="35" y="239" type="curve" smooth="yes"/>
      <point x="35" y="387"/>
      <point x="126" y="494"/>
      <point x="274" y="494" type="curve" smooth="yes"/>
      <point x="324" y="494"/>
      <point x="368" y="487"/>
      <point x="418" y="472" type="curve" smooth="yes"/>
      <point x="448" y="463"/>
      <point x="479" y="458"/>
      <point x="508" y="458" type="curve" smooth="yes"/>
      <point x="547" y="458"/>
      <point x="574" y="464"/>
      <point x="613" y="482" type="curve"/>
      <point x="652" y="482" type="line"/>
      <point x="652" y="-154" type="line" smooth="yes"/>
      <point x="652" y="-166"/>
      <point x="662" y="-175"/>
      <point x="673" y="-176" type="curve"/>
      <point x="725" y="-179" type="line"/>
      <point x="725" y="-218" type="line"/>
      <point x="490" y="-218" type="line"/>
      <point x="490" y="-179" type="line"/>
      <point x="539" y="-176" type="line"/>
      <point x="550" y="-175"/>
      <point x="560" y="-167"/>
      <point x="560" y="-155" type="curve" smooth="yes"/>
      <point x="560" y="398" type="line"/>
      <point x="549" y="395"/>
      <point x="533" y="394"/>
      <point x="514" y="394" type="curve" smooth="yes"/>
      <point x="495" y="394"/>
      <point x="479" y="395"/>
      <point x="468" y="398" type="curve"/>
      <point x="468" y="111" type="line" smooth="yes"/>
      <point x="468" y="20"/>
      <point x="365" y="-13"/>
      <point x="271" y="-13" type="curve" smooth="yes"/>
      <point x="122" y="-13"/>
      <point x="35" y="91"/>
    </contour>
    <contour>
      <point x="138" y="241" type="curve" smooth="yes"/>
      <point x="138" y="141"/>
      <point x="174" y="32"/>
      <point x="272" y="32" type="curve" smooth="yes"/>
      <point x="345" y="32"/>
      <point x="375" y="66"/>
      <point x="375" y="139" type="curve" smooth="yes"/>
      <point x="375" y="424" type="line"/>
      <point x="335" y="443"/>
      <point x="312" y="448"/>
      <point x="273" y="448" type="curve" smooth="yes"/>
      <point x="171" y="448"/>
      <point x="138" y="343"/>
    </contour>
  </outline>
</glyph>
<glyph name="uni01A4" format="2">
  <advance width="650"/>
  <unicode hex="01A4"/>
  <outline>
    <contour>
      <point x="-16" y="563" type="curve" smooth="yes"/>
      <point x="-16" y="647"/>
      <point x="56" y="671"/>
      <point x="147" y="671" type="curve" smooth="yes"/>
      <point x="336" y="671" type="line" smooth="yes"/>
      <point x="530" y="671"/>
      <point x="612" y="611"/>
      <point x="612" y="469" type="curve" smooth="yes"/>
      <point x="612" y="334"/>
      <point x="512" y="251"/>
      <point x="351" y="251" type="curve" smooth="yes"/>
      <point x="335" y="251"/>
      <point x="288" y="254"/>
      <point x="280" y="255" type="curve"/>
      <point x="280" y="69" type="line" smooth="yes"/>
      <point x="280" y="58"/>
      <point x="290" y="48"/>
      <point x="301" y="47" type="curve"/>
      <point x="367" y="43" type="line"/>
      <point x="367" y="0" type="line"/>
      <point x="104" y="0" type="line"/>
      <point x="104" y="43" type="line"/>
      <point x="156" y="47" type="line" smooth="yes"/>
      <point x="167" y="48"/>
      <point x="179" y="59"/>
      <point x="179" y="69" type="curve" smooth="yes"/>
      <point x="179" y="603" type="line" smooth="yes"/>
      <point x="179" y="616"/>
      <point x="171" y="624"/>
      <point x="158" y="624" type="curve" smooth="yes"/>
      <point x="120" y="624" type="line" smooth="yes"/>
      <point x="88" y="624"/>
      <point x="73" y="618"/>
      <point x="61" y="600" type="curve"/>
      <point x="103" y="529" type="line"/>
      <point x="87" y="511"/>
      <point x="68" y="499"/>
      <point x="39" y="499" type="curve" smooth="yes"/>
      <point x="7" y="499"/>
      <point x="-16" y="531"/>
    </contour>
    <contour>
      <point x="280" y="306" type="line"/>
      <point x="298" y="303"/>
      <point x="318" y="301"/>
      <point x="336" y="301" type="curve" smooth="yes"/>
      <point x="449" y="301"/>
      <point x="508" y="359"/>
      <point x="508" y="468" type="curve" smooth="yes"/>
      <point x="508" y="572"/>
      <point x="450" y="622"/>
      <point x="331" y="622" type="curve" smooth="yes"/>
      <point x="280" y="622" type="line"/>
    </contour>
  </outline>
</glyph>
<glyph name="uni01A5" format="2">
  <advance width="559"/>
  <unicode hex="01A5"/>
  <outline>
    <contour>
      <point x="21" y="-178" type="line"/>
      <point x="69" y="-172" type="line"/>
      <point x="80" y="-171"/>
      <point x="90" y="-164"/>
      <point x="90" y="-152" type="curve" smooth="yes"/>
      <point x="90" y="521" type="line" smooth="yes"/>
      <point x="90" y="646"/>
      <point x="179" y="737"/>
      <point x="301" y="737" type="curve" smooth="yes"/>
      <point x="423" y="737"/>
      <point x="476" y="707"/>
      <point x="476" y="640" type="curve" smooth="yes"/>
      <point x="476" y="608"/>
      <point x="454" y="583"/>
      <point x="425" y="583" type="curve" smooth="yes"/>
      <point x="410" y="583"/>
      <point x="402" y="584"/>
      <point x="395" y="588" type="curve"/>
      <point x="361" y="672" type="line"/>
      <point x="351" y="681"/>
      <point x="331" y="686"/>
      <point x="304" y="686" type="curve" smooth="yes"/>
      <point x="230" y="686"/>
      <point x="183" y="621"/>
      <point x="183" y="521" type="curve" smooth="yes"/>
      <point x="183" y="432" type="line"/>
      <point x="233" y="472"/>
      <point x="283" y="493"/>
      <point x="333" y="493" type="curve" smooth="yes"/>
      <point x="445" y="493"/>
      <point x="523" y="392"/>
      <point x="523" y="247" type="curve" smooth="yes"/>
      <point x="523" y="85"/>
      <point x="428" y="-12"/>
      <point x="271" y="-12" type="curve" smooth="yes"/>
      <point x="239" y="-12"/>
      <point x="208" y="-9"/>
      <point x="183" y="-3" type="curve"/>
      <point x="183" y="-152" type="line" smooth="yes"/>
      <point x="183" y="-164"/>
      <point x="194" y="-171"/>
      <point x="205" y="-172" type="curve" smooth="yes"/>
      <point x="264" y="-178" type="line"/>
      <point x="264" y="-217" type="line"/>
      <point x="21" y="-217" type="line"/>
    </contour>
    <contour>
      <point x="183" y="50" type="line"/>
      <point x="216" y="39"/>
      <point x="240" y="34"/>
      <point x="265" y="34" type="curve" smooth="yes"/>
      <point x="364" y="34"/>
      <point x="424" y="109"/>
      <point x="424" y="234" type="curve" smooth="yes"/>
      <point x="424" y="351"/>
      <point x="371" y="424"/>
      <point x="285" y="424" type="curve" smooth="yes"/>
      <point x="251" y="424"/>
      <point x="215" y="413"/>
      <point x="183" y="394" type="curve"/>
    </contour>
  </outline>
</glyph>
<glyph name="uni01A6" format="2">
  <advance width="617"/>
  <unicode hex="01A6"/>
  <outline>
    <contour>
      <point x="30" y="-1" type="line"/>
      <point x="30" y="42" type="line"/>
      <point x="90" y="46" type="line" smooth="yes"/>
      <point x="102" y="47"/>
      <point x="111" y="56"/>
      <point x="111" y="68" type="curve" smooth="yes"/>
      <point x="111" y="601" type="line" smooth="yes"/>
      <point x="111" y="613"/>
      <point x="102" y="621"/>
      <point x="90" y="622" type="curve" smooth="yes"/>
      <point x="30" y="626" type="line"/>
      <point x="30" y="670" type="line"/>
      <point x="294" y="670" type="line"/>
      <point x="294" y="626" type="line"/>
      <point x="233" y="622" type="line" smooth="yes"/>
      <point x="221" y="621"/>
      <point x="213" y="614"/>
      <point x="212" y="601" type="curve"/>
      <point x="212" y="579" type="line"/>
      <point x="275" y="579" type="line" smooth="yes"/>
      <point x="402" y="579"/>
      <point x="516" y="566"/>
      <point x="516" y="442" type="curve" smooth="yes"/>
      <point x="516" y="349"/>
      <point x="449" y="293"/>
      <point x="358" y="293" type="curve"/>
      <point x="424" y="278"/>
      <point x="456" y="222"/>
      <point x="482" y="166" type="curve"/>
      <point x="488" y="151"/>
      <point x="495" y="136"/>
      <point x="501" y="121" type="curve" smooth="yes"/>
      <point x="518" y="77"/>
      <point x="535" y="32"/>
      <point x="565" y="3" type="curve" smooth="yes"/>
      <point x="576" y="-8"/>
      <point x="589" y="-13"/>
      <point x="604" y="-13" type="curve" smooth="yes"/>
      <point x="616" y="-13"/>
      <point x="628" y="-13"/>
      <point x="637" y="-11" type="curve"/>
      <point x="637" y="-55" type="line"/>
      <point x="615" y="-65"/>
      <point x="595" y="-71"/>
      <point x="563" y="-71" type="curve" smooth="yes"/>
      <point x="511" y="-71"/>
      <point x="481" y="-46"/>
      <point x="457" y="-14" type="curve" smooth="yes"/>
      <point x="433" y="17"/>
      <point x="414" y="58"/>
      <point x="397" y="99" type="curve" smooth="yes"/>
      <point x="383" y="132"/>
      <point x="368" y="166"/>
      <point x="350" y="195" type="curve" smooth="yes"/>
      <point x="325" y="235"/>
      <point x="288" y="286"/>
      <point x="228" y="286" type="curve" smooth="yes"/>
      <point x="212" y="286" type="line"/>
      <point x="212" y="68" type="line" smooth="yes"/>
      <point x="212" y="57"/>
      <point x="222" y="47"/>
      <point x="233" y="46" type="curve" smooth="yes"/>
      <point x="294" y="42" type="line"/>
      <point x="294" y="-1" type="line"/>
    </contour>
    <contour>
      <point x="212" y="338" type="line"/>
      <point x="227" y="336"/>
      <point x="243" y="336"/>
      <point x="262" y="336" type="curve" smooth="yes"/>
      <point x="341" y="336"/>
      <point x="401" y="365"/>
      <point x="401" y="442" type="curve" smooth="yes"/>
      <point x="401" y="511"/>
      <point x="336" y="531"/>
      <point x="257" y="531" type="curve" smooth="yes"/>
      <point x="212" y="531" type="line"/>
    </contour>
  </outline>
</glyph>
<glyph name="uni01A7" format="2">
  <advance width="522"/>
  <unicode hex="01A7"/>
  <outline>
    <contour>
      <point x="41" y="167" type="curve" smooth="yes"/>
      <point x="41" y="249"/>
      <point x="83" y="301"/>
      <point x="198" y="361" type="curve" smooth="yes"/>
      <point x="295" y="412" type="line" smooth="yes"/>
      <point x="351" y="441"/>
      <point x="381" y="482"/>
      <point x="381" y="527" type="curve" smooth="yes"/>
      <point x="381" y="591"/>
      <point x="334" y="630"/>
      <point x="256" y="630" type="curve" smooth="yes"/>
      <point x="223" y="630"/>
      <point x="198" y="626"/>
      <point x="181" y="618" type="curve" smooth="yes"/>
      <point x="164" y="610"/>
      <point x="155" y="601"/>
      <point x="153" y="591" type="curve" smooth="yes"/>
      <point x="134" y="495" type="line"/>
      <point x="77" y="495" type="line"/>
      <point x="83" y="651" type="line"/>
      <point x="132" y="671"/>
      <point x="188" y="685"/>
      <point x="260" y="685" type="curve" smooth="yes"/>
      <point x="404" y="685"/>
      <point x="485" y="626"/>
      <point x="485" y="521" type="curve" smooth="yes"/>
      <point x="485" y="430"/>
      <point x="437" y="367"/>
      <point x="324" y="309" type="curve" smooth="yes"/>
      <point x="217" y="254" type="line" smooth="yes"/>
      <point x="165" y="227"/>
      <point x="143" y="197"/>
      <point x="143" y="152" type="curve" smooth="yes"/>
      <point x="143" y="73"/>
      <point x="206" y="38"/>
      <point x="286" y="38" type="curve" smooth="yes"/>
      <point x="322" y="38"/>
      <point x="356" y="46"/>
      <point x="379" y="57" type="curve" smooth="yes"/>
      <point x="390" y="62"/>
      <point x="403" y="70"/>
      <point x="405" y="84" type="curve" smooth="yes"/>
      <point x="422" y="197" type="line"/>
      <point x="485" y="197" type="line"/>
      <point x="479" y="20" type="line"/>
      <point x="433" y="-2"/>
      <point x="372" y="-17"/>
      <point x="300" y="-17" type="curve" smooth="yes"/>
      <point x="159" y="-17"/>
      <point x="41" y="31"/>
    </contour>
  </outline>
</glyph>
<glyph name="uni01A8" format="2">
  <advance width="399"/>
  <unicode hex="01A8"/>
  <outline>
    <contour>
      <point x="36" y="125" type="curve" smooth="yes"/>
      <point x="36" y="169"/>
      <point x="54" y="207"/>
      <point x="82" y="224" type="curve" smooth="yes"/>
      <point x="213" y="301" type="line" smooth="yes"/>
      <point x="255" y="326"/>
      <point x="272" y="349"/>
      <point x="272" y="381" type="curve" smooth="yes"/>
      <point x="272" y="423"/>
      <point x="243" y="446"/>
      <point x="192" y="446" type="curve" smooth="yes"/>
      <point x="168" y="446"/>
      <point x="141" y="437"/>
      <point x="120" y="423" type="curve"/>
      <point x="109" y="353" type="line"/>
      <point x="57" y="353" type="line"/>
      <point x="61" y="471" type="line"/>
      <point x="92" y="485"/>
      <point x="140" y="494"/>
      <point x="185" y="494" type="curve" smooth="yes"/>
      <point x="299" y="494"/>
      <point x="362" y="448"/>
      <point x="362" y="365" type="curve" smooth="yes"/>
      <point x="362" y="315"/>
      <point x="342" y="280"/>
      <point x="297" y="253" type="curve" smooth="yes"/>
      <point x="197" y="193" type="line" smooth="yes"/>
      <point x="143" y="161"/>
      <point x="123" y="138"/>
      <point x="123" y="109" type="curve" smooth="yes"/>
      <point x="123" y="64"/>
      <point x="158" y="33"/>
      <point x="210" y="33" type="curve" smooth="yes"/>
      <point x="241" y="33"/>
      <point x="273" y="43"/>
      <point x="300" y="61" type="curve"/>
      <point x="315" y="146" type="line"/>
      <point x="366" y="146" type="line"/>
      <point x="361" y="13" type="line"/>
      <point x="325" y="-3"/>
      <point x="274" y="-12"/>
      <point x="222" y="-12" type="curve" smooth="yes"/>
      <point x="99" y="-12"/>
      <point x="36" y="34"/>
    </contour>
  </outline>
</glyph>
<glyph name="uni01B1" format="2">
  <advance width="683"/>
  <unicode hex="01B1"/>
  <outline>
    <contour>
      <point x="39" y="310" type="curve" smooth="yes"/>
      <point x="39" y="407"/>
      <point x="77" y="515"/>
      <point x="140" y="596" type="curve"/>
      <point x="142" y="600"/>
      <point x="144" y="603"/>
      <point x="144" y="607" type="curve" smooth="yes"/>
      <point x="144" y="613"/>
      <point x="140" y="617"/>
      <point x="134" y="618" type="curve"/>
      <point x="64" y="624" type="line"/>
      <point x="64" y="669" type="line"/>
      <point x="239" y="669" type="line"/>
      <point x="174" y="531"/>
      <point x="153" y="450"/>
      <point x="153" y="340" type="curve" smooth="yes"/>
      <point x="153" y="153"/>
      <point x="223" y="43"/>
      <point x="341" y="43" type="curve" smooth="yes"/>
      <point x="459" y="43"/>
      <point x="529" y="154"/>
      <point x="529" y="342" type="curve" smooth="yes"/>
      <point x="529" y="458"/>
      <point x="508" y="536"/>
      <point x="443" y="671" type="curve"/>
      <point x="619" y="671" type="line"/>
      <point x="619" y="626" type="line"/>
      <point x="548" y="620" type="line"/>
      <point x="542" y="619"/>
      <point x="539" y="615"/>
      <point x="539" y="609" type="curve" smooth="yes"/>
      <point x="539" y="605"/>
      <point x="540" y="601"/>
      <point x="542" y="598" type="curve"/>
      <point x="605" y="517"/>
      <point x="644" y="409"/>
      <point x="644" y="312" type="curve" smooth="yes"/>
      <point x="644" y="114"/>
      <point x="523" y="-18"/>
      <point x="341" y="-18" type="curve" smooth="yes"/>
      <point x="160" y="-18"/>
      <point x="39" y="113"/>
    </contour>
  </outline>
</glyph>
<glyph name="uni01B2" format="2">
  <advance width="706"/>
  <unicode hex="01B2"/>
  <outline>
    <contour>
      <point x="29" y="630" type="line"/>
      <point x="29" y="671" type="line"/>
      <point x="207" y="671" type="line"/>
      <point x="207" y="229" type="line" smooth="yes"/>
      <point x="207" y="119"/>
      <point x="273" y="51"/>
      <point x="379" y="51" type="curve" smooth="yes"/>
      <point x="510" y="51"/>
      <point x="604" y="177"/>
      <point x="604" y="352" type="curve" smooth="yes"/>
      <point x="604" y="439"/>
      <point x="573" y="516"/>
      <point x="519" y="562" type="curve"/>
      <point x="413" y="562" type="line"/>
      <point x="394" y="574"/>
      <point x="383" y="595"/>
      <point x="383" y="616" type="curve" smooth="yes"/>
      <point x="383" y="657"/>
      <point x="418" y="687"/>
      <point x="467" y="687" type="curve" smooth="yes"/>
      <point x="573" y="687"/>
      <point x="667" y="537"/>
      <point x="667" y="367" type="curve" smooth="yes"/>
      <point x="667" y="126"/>
      <point x="543" y="-17"/>
      <point x="333" y="-17" type="curve" smooth="yes"/>
      <point x="198" y="-17"/>
      <point x="106" y="74"/>
      <point x="106" y="208" type="curve" smooth="yes"/>
      <point x="106" y="604" type="line" smooth="yes"/>
      <point x="106" y="616"/>
      <point x="98" y="624"/>
      <point x="85" y="625" type="curve" smooth="yes"/>
    </contour>
  </outline>
</glyph>
<glyph name="uni01B3" format="2">
  <advance width="666"/>
  <unicode hex="01B3"/>
  <outline>
    <contour>
      <point x="-10" y="562" type="curve" smooth="yes"/>
      <point x="-10" y="643"/>
      <point x="43" y="686"/>
      <point x="123" y="686" type="curve" smooth="yes"/>
      <point x="202" y="686"/>
      <point x="235" y="658"/>
      <point x="261" y="603" type="curve" smooth="yes"/>
      <point x="383" y="342" type="line"/>
      <point x="518" y="600" type="line" smooth="yes"/>
      <point x="519" y="602"/>
      <point x="520" y="605"/>
      <point x="520" y="607" type="curve" smooth="yes"/>
      <point x="520" y="615"/>
      <point x="512" y="620"/>
      <point x="506" y="621" type="curve"/>
      <point x="450" y="628" type="line"/>
      <point x="450" y="671" type="line"/>
      <point x="653" y="671" type="line"/>
      <point x="653" y="628" type="line"/>
      <point x="599" y="618" type="line"/>
      <point x="417" y="285" type="line"/>
      <point x="417" y="69" type="line" smooth="yes"/>
      <point x="417" y="58"/>
      <point x="427" y="48"/>
      <point x="438" y="47" type="curve"/>
      <point x="502" y="43" type="line"/>
      <point x="502" y="0" type="line"/>
      <point x="232" y="0" type="line"/>
      <point x="232" y="43" type="line"/>
      <point x="294" y="47" type="line" smooth="yes"/>
      <point x="306" y="48"/>
      <point x="316" y="57"/>
      <point x="316" y="69" type="curve" smooth="yes"/>
      <point x="316" y="270" type="line"/>
      <point x="152" y="598" type="line" smooth="yes"/>
      <point x="145" y="612"/>
      <point x="133" y="624"/>
      <point x="118" y="624" type="curve" smooth="yes"/>
      <point x="92" y="624"/>
      <point x="80" y="616"/>
      <point x="69" y="600" type="curve"/>
      <point x="111" y="529" type="line"/>
      <point x="95" y="511"/>
      <point x="76" y="499"/>
      <point x="47" y="499" type="curve" smooth="yes"/>
      <point x="14" y="499"/>
      <point x="-10" y="531"/>
    </contour>
  </outline>
</glyph>
<glyph name="uni01B4" format="2">
  <advance width="648"/>
  <unicode hex="01B4"/>
  <outline>
    <contour>
      <point x="11" y="444" type="line"/>
      <point x="11" y="482" type="line"/>
      <point x="232" y="482" type="line"/>
      <point x="232" y="444" type="line"/>
      <point x="184" y="441" type="line"/>
      <point x="177" y="441"/>
      <point x="168" y="434"/>
      <point x="168" y="425" type="curve"/>
      <point x="168" y="423"/>
      <point x="168" y="421"/>
      <point x="169" y="419" type="curve"/>
      <point x="283" y="128" type="line"/>
      <point x="393" y="436" type="line" smooth="yes"/>
      <point x="418" y="506"/>
      <point x="474" y="628"/>
      <point x="565" y="628" type="curve" smooth="yes"/>
      <point x="604" y="628"/>
      <point x="643" y="602"/>
      <point x="643" y="565" type="curve" smooth="yes"/>
      <point x="643" y="537"/>
      <point x="629" y="517"/>
      <point x="610" y="502" type="curve"/>
      <point x="521" y="550" type="line"/>
      <point x="479" y="528"/>
      <point x="454" y="462"/>
      <point x="433" y="404" type="curve" smooth="yes"/>
      <point x="276" y="-30" type="line" smooth="yes"/>
      <point x="248" y="-108"/>
      <point x="201" y="-229"/>
      <point x="103" y="-229" type="curve" smooth="yes"/>
      <point x="64" y="-229"/>
      <point x="30" y="-210"/>
      <point x="30" y="-172" type="curve" smooth="yes"/>
      <point x="30" y="-143"/>
      <point x="44" y="-127"/>
      <point x="62" y="-112" type="curve"/>
      <point x="156" y="-155" type="line"/>
      <point x="193" y="-118"/>
      <point x="217" y="-52"/>
      <point x="236" y="1" type="curve"/>
      <point x="66" y="438" type="line"/>
    </contour>
  </outline>
</glyph>
<glyph name="uni01B8" format="2">
  <advance width="611"/>
  <unicode hex="01B8"/>
  <outline>
    <contour>
      <point x="33" y="43" type="curve" smooth="yes"/>
      <point x="33" y="186"/>
      <point x="151" y="299"/>
      <point x="301" y="299" type="curve"/>
      <point x="64" y="598" type="line"/>
      <point x="64" y="670" type="line"/>
      <point x="540" y="670" type="line"/>
      <point x="540" y="450" type="line"/>
      <point x="483" y="450" type="line"/>
      <point x="472" y="548" type="line"/>
      <point x="470" y="562"/>
      <point x="459" y="575"/>
      <point x="449" y="575" type="curve" smooth="yes"/>
      <point x="165" y="575" type="line"/>
      <point x="410" y="270" type="line"/>
      <point x="379" y="235" type="line"/>
      <point x="370" y="244"/>
      <point x="355" y="249"/>
      <point x="335" y="249" type="curve" smooth="yes"/>
      <point x="225" y="249"/>
      <point x="147" y="167"/>
      <point x="147" y="51" type="curve" smooth="yes"/>
      <point x="147" y="-70"/>
      <point x="237" y="-173"/>
      <point x="343" y="-173" type="curve" smooth="yes"/>
      <point x="376" y="-173"/>
      <point x="404" y="-163"/>
      <point x="441" y="-138" type="curve"/>
      <point x="477" y="-20" type="line"/>
      <point x="485" y="-15"/>
      <point x="504" y="-10"/>
      <point x="515" y="-10" type="curve" smooth="yes"/>
      <point x="556" y="-10"/>
      <point x="584" y="-41"/>
      <point x="584" y="-86" type="curve" smooth="yes"/>
      <point x="584" y="-169"/>
      <point x="483" y="-230"/>
      <point x="346" y="-230" type="curve" smooth="yes"/>
      <point x="168" y="-230"/>
      <point x="33" y="-112"/>
    </contour>
  </outline>
</glyph>
<glyph name="uni01B9" format="2">
  <advance width="528"/>
  <unicode hex="01B9"/>
  <outline>
    <contour>
      <point x="31" y="-17" type="curve" smooth="yes"/>
      <point x="31" y="101"/>
      <point x="131" y="197"/>
      <point x="253" y="197" type="curve"/>
      <point x="59" y="414" type="line"/>
      <point x="59" y="481" type="line"/>
      <point x="461" y="481" type="line"/>
      <point x="461" y="298" type="line"/>
      <point x="409" y="298" type="line"/>
      <point x="399" y="374" type="line"/>
      <point x="398" y="385"/>
      <point x="389" y="395"/>
      <point x="380" y="395" type="curve" smooth="yes"/>
      <point x="147" y="395" type="line"/>
      <point x="347" y="175" type="line"/>
      <point x="320" y="147" type="line"/>
      <point x="310" y="155"/>
      <point x="299" y="158"/>
      <point x="282" y="158" type="curve" smooth="yes"/>
      <point x="202" y="158"/>
      <point x="135" y="83"/>
      <point x="135" y="-7" type="curve" smooth="yes"/>
      <point x="135" y="-105"/>
      <point x="204" y="-183"/>
      <point x="289" y="-183" type="curve" smooth="yes"/>
      <point x="317" y="-183"/>
      <point x="343" y="-175"/>
      <point x="375" y="-158" type="curve"/>
      <point x="406" y="-65" type="line"/>
      <point x="412" y="-61"/>
      <point x="429" y="-57"/>
      <point x="439" y="-57" type="curve" smooth="yes"/>
      <point x="474" y="-57"/>
      <point x="499" y="-81"/>
      <point x="499" y="-116" type="curve" smooth="yes"/>
      <point x="499" y="-181"/>
      <point x="410" y="-229"/>
      <point x="292" y="-229" type="curve" smooth="yes"/>
      <point x="141" y="-229"/>
      <point x="31" y="-140"/>
    </contour>
  </outline>
</glyph>
<glyph name="uni01BA" format="2">
  <advance width="484"/>
  <unicode hex="01BA"/>
  <outline>
    <contour>
      <point x="35" y="300" type="line"/>
      <point x="35" y="483" type="line"/>
      <point x="437" y="483" type="line"/>
      <point x="437" y="416" type="line"/>
      <point x="284" y="251" type="line"/>
      <point x="402" y="251"/>
      <point x="451" y="219"/>
      <point x="451" y="140" type="curve" smooth="yes"/>
      <point x="451" y="77"/>
      <point x="405" y="33"/>
      <point x="298" y="-5" type="curve" smooth="yes"/>
      <point x="205" y="-38"/>
      <point x="162" y="-74"/>
      <point x="162" y="-120" type="curve" smooth="yes"/>
      <point x="162" y="-153"/>
      <point x="199" y="-183"/>
      <point x="241" y="-183" type="curve" smooth="yes"/>
      <point x="269" y="-183"/>
      <point x="295" y="-175"/>
      <point x="327" y="-158" type="curve"/>
      <point x="358" y="-65" type="line"/>
      <point x="364" y="-61"/>
      <point x="381" y="-57"/>
      <point x="392" y="-57" type="curve" smooth="yes"/>
      <point x="427" y="-57"/>
      <point x="452" y="-81"/>
      <point x="452" y="-116" type="curve" smooth="yes"/>
      <point x="452" y="-181"/>
      <point x="363" y="-229"/>
      <point x="245" y="-229" type="curve" smooth="yes"/>
      <point x="143" y="-229"/>
      <point x="83" y="-182"/>
      <point x="83" y="-102" type="curve" smooth="yes"/>
      <point x="83" y="-43"/>
      <point x="137" y="7"/>
      <point x="236" y="41" type="curve" smooth="yes"/>
      <point x="320" y="70"/>
      <point x="363" y="104"/>
      <point x="363" y="142" type="curve" smooth="yes"/>
      <point x="363" y="171"/>
      <point x="324" y="186"/>
      <point x="251" y="186" type="curve" smooth="yes"/>
      <point x="225" y="186"/>
      <point x="198" y="181"/>
      <point x="158" y="168" type="curve"/>
      <point x="150" y="185" type="line"/>
      <point x="349" y="397" type="line"/>
      <point x="116" y="397" type="line" smooth="yes"/>
      <point x="107" y="397"/>
      <point x="98" y="387"/>
      <point x="97" y="376" type="curve"/>
      <point x="87" y="300" type="line"/>
    </contour>
  </outline>
</glyph>
<glyph name="uni01BC" format="2">
  <advance width="556"/>
  <unicode hex="01BC"/>
  <outline>
    <contour>
      <point x="21" y="628" type="line"/>
      <point x="21" y="671" type="line"/>
      <point x="484" y="671" type="line"/>
      <point x="484" y="515" type="line"/>
      <point x="429" y="515" type="line"/>
      <point x="417" y="605" type="line"/>
      <point x="416" y="616"/>
      <point x="408" y="624"/>
      <point x="399" y="624" type="curve" smooth="yes"/>
      <point x="207" y="624" type="line" smooth="yes"/>
      <point x="196" y="624"/>
      <point x="185" y="613"/>
      <point x="185" y="603" type="curve" smooth="yes"/>
      <point x="185" y="464" type="line"/>
      <point x="379" y="464"/>
      <point x="516" y="363"/>
      <point x="516" y="221" type="curve" smooth="yes"/>
      <point x="516" y="77"/>
      <point x="409" y="-12"/>
      <point x="234" y="-12" type="curve" smooth="yes"/>
      <point x="126" y="-12"/>
      <point x="44" y="38"/>
      <point x="44" y="105" type="curve" smooth="yes"/>
      <point x="44" y="138"/>
      <point x="68" y="162"/>
      <point x="102" y="162" type="curve" smooth="yes"/>
      <point x="110" y="162"/>
      <point x="125" y="160"/>
      <point x="134" y="157" type="curve"/>
      <point x="167" y="65" type="line"/>
      <point x="183" y="49"/>
      <point x="222" y="35"/>
      <point x="250" y="35" type="curve" smooth="yes"/>
      <point x="344" y="35"/>
      <point x="415" y="104"/>
      <point x="415" y="195" type="curve" smooth="yes"/>
      <point x="415" y="307"/>
      <point x="290" y="379"/>
      <point x="95" y="379" type="curve"/>
      <point x="95" y="604" type="line" smooth="yes"/>
      <point x="95" y="614"/>
      <point x="85" y="623"/>
      <point x="74" y="624" type="curve" smooth="yes"/>
    </contour>
  </outline>
</glyph>
<glyph name="uni01BD" format="2">
  <advance width="437"/>
  <unicode hex="01BD"/>
  <outline>
    <contour>
      <point x="22" y="437" type="line"/>
      <point x="22" y="482" type="line"/>
      <point x="371" y="482" type="line"/>
      <point x="371" y="365" type="line"/>
      <point x="326" y="365" type="line"/>
      <point x="317" y="420" type="line"/>
      <point x="316" y="428"/>
      <point x="311" y="434"/>
      <point x="305" y="434" type="curve" smooth="yes"/>
      <point x="193" y="434" type="line" smooth="yes"/>
      <point x="183" y="434"/>
      <point x="177" y="428"/>
      <point x="177" y="418" type="curve" smooth="yes"/>
      <point x="177" y="334" type="line"/>
      <point x="314" y="334"/>
      <point x="402" y="264"/>
      <point x="402" y="155" type="curve" smooth="yes"/>
      <point x="402" y="54"/>
      <point x="321" y="-12"/>
      <point x="199" y="-12" type="curve" smooth="yes"/>
      <point x="109" y="-12"/>
      <point x="44" y="27"/>
      <point x="44" y="81" type="curve" smooth="yes"/>
      <point x="44" y="115"/>
      <point x="66" y="141"/>
      <point x="94" y="141" type="curve" smooth="yes"/>
      <point x="103" y="141"/>
      <point x="116" y="139"/>
      <point x="123" y="137" type="curve"/>
      <point x="158" y="46" type="line"/>
      <point x="170" y="39"/>
      <point x="193" y="34"/>
      <point x="212" y="34" type="curve" smooth="yes"/>
      <point x="279" y="34"/>
      <point x="319" y="74"/>
      <point x="319" y="140" type="curve" smooth="yes"/>
      <point x="319" y="222"/>
      <point x="231" y="271"/>
      <point x="85" y="271" type="curve"/>
      <point x="85" y="419" type="line" smooth="yes"/>
      <point x="85" y="427"/>
      <point x="79" y="433"/>
      <point x="70" y="434" type="curve"/>
    </contour>
  </outline>
</glyph>
<glyph name="uni01BF" format="2">
  <advance width="529"/>
  <unicode hex="01BF"/>
  <outline>
    <contour>
      <point x="21" y="-178" type="line"/>
      <point x="69" y="-172" type="line"/>
      <point x="80" y="-171"/>
      <point x="90" y="-164"/>
      <point x="90" y="-152" type="curve" smooth="yes"/>
      <point x="90" y="411" type="line"/>
      <point x="21" y="411" type="line"/>
      <point x="21" y="444" type="line"/>
      <point x="144" y="482" type="line"/>
      <point x="183" y="482" type="line"/>
      <point x="183" y="408" type="line"/>
      <point x="220" y="445"/>
      <point x="274" y="494"/>
      <point x="344" y="494" type="curve" smooth="yes"/>
      <point x="450" y="494"/>
      <point x="496" y="423"/>
      <point x="496" y="318" type="curve" smooth="yes"/>
      <point x="496" y="112"/>
      <point x="315" y="-6"/>
      <point x="183" y="-86" type="curve"/>
      <point x="183" y="-152" type="line" smooth="yes"/>
      <point x="183" y="-164"/>
      <point x="194" y="-171"/>
      <point x="205" y="-172" type="curve" smooth="yes"/>
      <point x="264" y="-178" type="line"/>
      <point x="264" y="-217" type="line"/>
      <point x="21" y="-217" type="line"/>
    </contour>
    <contour>
      <point x="183" y="-33" type="line"/>
      <point x="292" y="42"/>
      <point x="397" y="135"/>
      <point x="397" y="290" type="curve" smooth="yes"/>
      <point x="397" y="375"/>
      <point x="382" y="424"/>
      <point x="296" y="424" type="curve" smooth="yes"/>
      <point x="247" y="424"/>
      <point x="208" y="384"/>
      <point x="183" y="355" type="curve"/>
    </contour>
  </outline>
</glyph>
<glyph name="uni01C2" format="2">
  <advance width="416"/>
  <unicode hex="01C2"/>
  <outline>
    <contour>
      <point x="24" y="167" type="line"/>
      <point x="24" y="218" type="line"/>
      <point x="392" y="218" type="line"/>
      <point x="392" y="167" type="line"/>
    </contour>
    <contour>
      <point x="24" y="302" type="line"/>
      <point x="24" y="353" type="line"/>
      <point x="392" y="353" type="line"/>
      <point x="392" y="302" type="line"/>
    </contour>
    <contour>
      <point x="183" y="-215" type="line"/>
      <point x="183" y="736" type="line"/>
      <point x="234" y="736" type="line"/>
      <point x="234" y="-215" type="line"/>
    </contour>
  </outline>
</glyph>
<glyph name="uni01DE" format="2">
  <advance width="673"/>
  <unicode hex="01DE"/>
  <outline>
    <contour>
      <point x="176" y="803" type="curve" smooth="yes"/>
      <point x="176" y="834"/>
      <point x="200" y="859"/>
      <point x="231" y="859" type="curve" smooth="yes"/>
      <point x="262" y="859"/>
      <point x="285" y="834"/>
      <point x="285" y="804" type="curve" smooth="yes"/>
      <point x="285" y="773"/>
      <point x="262" y="748"/>
      <point x="231" y="748" type="curve" smooth="yes"/>
      <point x="200" y="748"/>
      <point x="176" y="772"/>
    </contour>
    <contour>
      <point x="383" y="804" type="curve" smooth="yes"/>
      <point x="383" y="834"/>
      <point x="409" y="859"/>
      <point x="439" y="859" type="curve" smooth="yes"/>
      <point x="469" y="859"/>
      <point x="492" y="835"/>
      <point x="492" y="804" type="curve" smooth="yes"/>
      <point x="492" y="773"/>
      <point x="470" y="748"/>
      <point x="439" y="748" type="curve" smooth="yes"/>
      <point x="407" y="748"/>
      <point x="383" y="772"/>
    </contour>
    <contour>
      <point x="5" y="0" type="line"/>
      <point x="5" y="43" type="line"/>
      <point x="63" y="56" type="line"/>
      <point x="296" y="688" type="line"/>
      <point x="371" y="688" type="line"/>
      <point x="603" y="71" type="line" smooth="yes"/>
      <point x="608" y="57"/>
      <point x="611" y="53"/>
      <point x="624" y="51" type="curve" smooth="yes"/>
      <point x="669" y="43" type="line"/>
      <point x="669" y="0" type="line"/>
      <point x="431" y="0" type="line"/>
      <point x="431" y="43" type="line"/>
      <point x="489" y="49" type="line" smooth="yes"/>
      <point x="497" y="50"/>
      <point x="500" y="54"/>
      <point x="500" y="61" type="curve"/>
      <point x="500" y="63"/>
      <point x="499" y="65"/>
      <point x="499" y="66" type="curve"/>
      <point x="430" y="249" type="line"/>
      <point x="199" y="249" type="line"/>
      <point x="133" y="69" type="line"/>
      <point x="133" y="68"/>
      <point x="132" y="65"/>
      <point x="132" y="63" type="curve"/>
      <point x="132" y="54"/>
      <point x="138" y="50"/>
      <point x="147" y="49" type="curve" smooth="yes"/>
      <point x="206" y="43" type="line"/>
      <point x="206" y="0" type="line"/>
    </contour>
    <contour>
      <point x="168" y="919" type="line"/>
      <point x="168" y="982" type="line"/>
      <point x="503" y="982" type="line"/>
      <point x="503" y="919" type="line"/>
    </contour>
    <contour>
      <point x="217" y="296" type="line"/>
      <point x="412" y="296" type="line"/>
      <point x="314" y="558" type="line"/>
    </contour>
  </outline>
</glyph>
<glyph name="uni01E0" format="2">
  <advance width="673"/>
  <unicode hex="01E0"/>
  <outline>
    <contour>
      <point x="5" y="0" type="line"/>
      <point x="5" y="43" type="line"/>
      <point x="63" y="56" type="line"/>
      <point x="296" y="688" type="line"/>
      <point x="371" y="688" type="line"/>
      <point x="603" y="71" type="line" smooth="yes"/>
      <point x="608" y="57"/>
      <point x="611" y="53"/>
      <point x="624" y="51" type="curve" smooth="yes"/>
      <point x="669" y="43" type="line"/>
      <point x="669" y="0" type="line"/>
      <point x="431" y="0" type="line"/>
      <point x="431" y="43" type="line"/>
      <point x="489" y="49" type="line" smooth="yes"/>
      <point x="497" y="50"/>
      <point x="500" y="54"/>
      <point x="500" y="61" type="curve"/>
      <point x="500" y="63"/>
      <point x="499" y="65"/>
      <point x="499" y="66" type="curve"/>
      <point x="430" y="249" type="line"/>
      <point x="199" y="249" type="line"/>
      <point x="133" y="69" type="line"/>
      <point x="133" y="68"/>
      <point x="132" y="65"/>
      <point x="132" y="63" type="curve"/>
      <point x="132" y="54"/>
      <point x="138" y="50"/>
      <point x="147" y="49" type="curve" smooth="yes"/>
      <point x="206" y="43" type="line"/>
      <point x="206" y="0" type="line"/>
    </contour>
    <contour>
      <point x="166" y="921" type="line"/>
      <point x="166" y="984" type="line"/>
      <point x="501" y="984" type="line"/>
      <point x="501" y="921" type="line"/>
    </contour>
    <contour>
      <point x="217" y="296" type="line"/>
      <point x="412" y="296" type="line"/>
      <point x="314" y="558" type="line"/>
    </contour>
    <contour>
      <point x="278" y="804" type="curve" smooth="yes"/>
      <point x="278" y="837"/>
      <point x="302" y="861"/>
      <point x="334" y="861" type="curve" smooth="yes"/>
      <point x="366" y="861"/>
      <point x="390" y="837"/>
      <point x="390" y="804" type="curve" smooth="yes"/>
      <point x="390" y="772"/>
      <point x="366" y="748"/>
      <point x="334" y="748" type="curve" smooth="yes"/>
      <point x="302" y="748"/>
      <point x="278" y="772"/>
    </contour>
  </outline>
</glyph>
<glyph name="uni01E2" format="2">
  <advance width="933"/>
  <unicode hex="01E2"/>
  <outline>
    <contour>
      <point x="5" y="1" type="line"/>
      <point x="5" y="44" type="line"/>
      <point x="58" y="52" type="line"/>
      <point x="398" y="604" type="line"/>
      <point x="399" y="606"/>
      <point x="400" y="607"/>
      <point x="400" y="609" type="curve"/>
      <point x="400" y="617"/>
      <point x="390" y="623"/>
      <point x="384" y="624" type="curve"/>
      <point x="335" y="629" type="line"/>
      <point x="335" y="671" type="line"/>
      <point x="865" y="671" type="line"/>
      <point x="865" y="522" type="line"/>
      <point x="807" y="522" type="line"/>
      <point x="793" y="604" type="line"/>
      <point x="791" y="613"/>
      <point x="786" y="623"/>
      <point x="776" y="623" type="curve" smooth="yes"/>
      <point x="582" y="623" type="line"/>
      <point x="582" y="374" type="line"/>
      <point x="708" y="374" type="line" smooth="yes"/>
      <point x="717" y="374"/>
      <point x="725" y="384"/>
      <point x="726" y="391" type="curve" smooth="yes"/>
      <point x="735" y="460" type="line"/>
      <point x="784" y="460" type="line"/>
      <point x="784" y="237" type="line"/>
      <point x="735" y="237" type="line"/>
      <point x="726" y="307" type="line"/>
      <point x="725" y="313"/>
      <point x="716" y="324"/>
      <point x="708" y="324" type="curve" smooth="yes"/>
      <point x="582" y="324" type="line"/>
      <point x="582" y="49" type="line"/>
      <point x="811" y="49" type="line" smooth="yes"/>
      <point x="819" y="49"/>
      <point x="828" y="61"/>
      <point x="829" y="69" type="curve" smooth="yes"/>
      <point x="844" y="168" type="line"/>
      <point x="901" y="168" type="line"/>
      <point x="901" y="1" type="line"/>
      <point x="406" y="1" type="line"/>
      <point x="406" y="44" type="line"/>
      <point x="455" y="48" type="line" smooth="yes"/>
      <point x="467" y="49"/>
      <point x="481" y="58"/>
      <point x="481" y="70" type="curve" smooth="yes"/>
      <point x="481" y="251" type="line"/>
      <point x="250" y="251" type="line"/>
      <point x="138" y="70" type="line"/>
      <point x="136" y="67"/>
      <point x="135" y="63"/>
      <point x="135" y="60" type="curve" smooth="yes"/>
      <point x="135" y="54"/>
      <point x="138" y="50"/>
      <point x="145" y="49" type="curve"/>
      <point x="202" y="44" type="line"/>
      <point x="202" y="1" type="line"/>
    </contour>
    <contour>
      <point x="278" y="299" type="line"/>
      <point x="481" y="299" type="line"/>
      <point x="481" y="625" type="line"/>
    </contour>
    <contour>
      <point x="433" y="746" type="line"/>
      <point x="433" y="809" type="line"/>
      <point x="768" y="809" type="line"/>
      <point x="768" y="746" type="line"/>
    </contour>
  </outline>
</glyph>
<glyph name="uni01E3" format="2">
  <advance width="721"/>
  <unicode hex="01E3"/>
  <outline>
    <contour>
      <point x="36" y="116" type="curve" smooth="yes"/>
      <point x="36" y="214"/>
      <point x="108" y="241"/>
      <point x="187" y="265" type="curve"/>
      <point x="317" y="301" type="line"/>
      <point x="317" y="342" type="line" smooth="yes"/>
      <point x="317" y="408"/>
      <point x="296" y="443"/>
      <point x="230" y="443" type="curve" smooth="yes"/>
      <point x="204" y="443"/>
      <point x="182" y="437"/>
      <point x="167" y="430" type="curve"/>
      <point x="167" y="343" type="line"/>
      <point x="97" y="343" type="line" smooth="yes"/>
      <point x="72" y="343"/>
      <point x="59" y="348"/>
      <point x="59" y="372" type="curve" smooth="yes"/>
      <point x="59" y="461"/>
      <point x="165" y="490"/>
      <point x="255" y="490" type="curve" smooth="yes"/>
      <point x="328" y="490"/>
      <point x="357" y="470"/>
      <point x="388" y="432" type="curve"/>
      <point x="416" y="465"/>
      <point x="459" y="491"/>
      <point x="522" y="491" type="curve" smooth="yes"/>
      <point x="638" y="491"/>
      <point x="688" y="403"/>
      <point x="688" y="288" type="curve" smooth="yes"/>
      <point x="688" y="275"/>
      <point x="687" y="266"/>
      <point x="686" y="254" type="curve"/>
      <point x="409" y="254" type="line"/>
      <point x="409" y="121" type="line"/>
      <point x="443" y="87"/>
      <point x="485" y="53"/>
      <point x="554" y="53" type="curve" smooth="yes"/>
      <point x="617" y="53"/>
      <point x="654" y="80"/>
      <point x="689" y="107" type="curve"/>
      <point x="689" y="47" type="line"/>
      <point x="647" y="16"/>
      <point x="597" y="-15"/>
      <point x="523" y="-15" type="curve" smooth="yes"/>
      <point x="440" y="-15"/>
      <point x="381" y="18"/>
      <point x="341" y="61" type="curve"/>
      <point x="297" y="26"/>
      <point x="242" y="-15"/>
      <point x="165" y="-15" type="curve" smooth="yes"/>
      <point x="84" y="-15"/>
      <point x="36" y="36"/>
    </contour>
    <contour>
      <point x="131" y="133" type="curve" smooth="yes"/>
      <point x="131" y="82"/>
      <point x="156" y="46"/>
      <point x="207" y="46" type="curve" smooth="yes"/>
      <point x="252" y="46"/>
      <point x="289" y="73"/>
      <point x="316" y="93" type="curve"/>
      <point x="316" y="266" type="line"/>
      <point x="256" y="249"/>
      <point x="207" y="231"/>
      <point x="168" y="207" type="curve" smooth="yes"/>
      <point x="143" y="191"/>
      <point x="131" y="169"/>
    </contour>
    <contour>
      <point x="205" y="555" type="line"/>
      <point x="205" y="618" type="line"/>
      <point x="540" y="618" type="line"/>
      <point x="540" y="555" type="line"/>
    </contour>
    <contour>
      <point x="408" y="299" type="curve"/>
      <point x="588" y="299" type="line"/>
      <point x="588" y="329" type="line" smooth="yes"/>
      <point x="588" y="391"/>
      <point x="564" y="447"/>
      <point x="503" y="447" type="curve" smooth="yes"/>
      <point x="428" y="447"/>
      <point x="408" y="373"/>
    </contour>
  </outline>
</glyph>
<glyph name="uni01EB" format="2">
  <advance width="543"/>
  <unicode hex="01EB"/>
  <outline>
    <contour>
      <point x="181" y="-118" type="curve" smooth="yes"/>
      <point x="181" y="-66"/>
      <point x="217" y="-27"/>
      <point x="251" y="-7" type="curve"/>
      <point x="298" y="-7" type="line"/>
      <point x="272" y="-24"/>
      <point x="244" y="-55"/>
      <point x="244" y="-97" type="curve" smooth="yes"/>
      <point x="244" y="-134"/>
      <point x="262" y="-150"/>
      <point x="294" y="-150" type="curve" smooth="yes"/>
      <point x="315" y="-150"/>
      <point x="331" y="-141"/>
      <point x="344" y="-133" type="curve"/>
      <point x="367" y="-172" type="line"/>
      <point x="341" y="-191"/>
      <point x="311" y="-200"/>
      <point x="276" y="-200" type="curve" smooth="yes"/>
      <point x="223" y="-200"/>
      <point x="181" y="-175"/>
    </contour>
    <contour>
      <point x="34" y="240" type="curve" smooth="yes"/>
      <point x="34" y="381"/>
      <point x="133" y="495"/>
      <point x="273" y="495" type="curve" smooth="yes"/>
      <point x="413" y="495"/>
      <point x="509" y="381"/>
      <point x="509" y="240" type="curve" smooth="yes"/>
      <point x="509" y="100"/>
      <point x="410" y="-13"/>
      <point x="270" y="-13" type="curve" smooth="yes"/>
      <point x="130" y="-13"/>
      <point x="34" y="100"/>
    </contour>
    <contour>
      <point x="138" y="240" type="curve" smooth="yes"/>
      <point x="138" y="150"/>
      <point x="172" y="34"/>
      <point x="272" y="34" type="curve" smooth="yes"/>
      <point x="372" y="34"/>
      <point x="406" y="150"/>
      <point x="406" y="240" type="curve" smooth="yes"/>
      <point x="406" y="330"/>
      <point x="373" y="450"/>
      <point x="273" y="450" type="curve" smooth="yes"/>
      <point x="173" y="450"/>
      <point x="138" y="330"/>
    </contour>
  </outline>
</glyph>
<glyph name="uni01EC" format="2">
  <advance width="730"/>
  <unicode hex="01EC"/>
  <outline>
    <contour>
      <point x="39" y="337" type="curve" smooth="yes"/>
      <point x="39" y="526"/>
      <point x="176" y="686"/>
      <point x="366" y="686" type="curve" smooth="yes"/>
      <point x="556" y="686"/>
      <point x="693" y="526"/>
      <point x="693" y="337" type="curve" smooth="yes"/>
      <point x="693" y="147"/>
      <point x="556" y="-15"/>
      <point x="366" y="-15" type="curve" smooth="yes"/>
      <point x="176" y="-15"/>
      <point x="39" y="147"/>
    </contour>
    <contour>
      <point x="155" y="337" type="curve" smooth="yes"/>
      <point x="155" y="207"/>
      <point x="214" y="39"/>
      <point x="364" y="39" type="curve" smooth="yes"/>
      <point x="514" y="39"/>
      <point x="576" y="207"/>
      <point x="576" y="337" type="curve" smooth="yes"/>
      <point x="576" y="467"/>
      <point x="518" y="628"/>
      <point x="368" y="628" type="curve" smooth="yes"/>
      <point x="218" y="628"/>
      <point x="155" y="467"/>
    </contour>
    <contour>
      <point x="273" y="-120" type="curve" smooth="yes"/>
      <point x="273" y="-68"/>
      <point x="309" y="-29"/>
      <point x="343" y="-9" type="curve"/>
      <point x="390" y="-9" type="line"/>
      <point x="364" y="-26"/>
      <point x="336" y="-57"/>
      <point x="336" y="-99" type="curve" smooth="yes"/>
      <point x="336" y="-136"/>
      <point x="354" y="-152"/>
      <point x="386" y="-152" type="curve" smooth="yes"/>
      <point x="407" y="-152"/>
      <point x="423" y="-143"/>
      <point x="436" y="-135" type="curve"/>
      <point x="459" y="-174" type="line"/>
      <point x="433" y="-193"/>
      <point x="403" y="-202"/>
      <point x="368" y="-202" type="curve" smooth="yes"/>
      <point x="315" y="-202"/>
      <point x="273" y="-177"/>
    </contour>
    <contour>
      <point x="199" y="746" type="line"/>
      <point x="199" y="809" type="line"/>
      <point x="534" y="809" type="line"/>
      <point x="534" y="746" type="line"/>
    </contour>
  </outline>
</glyph>
<glyph name="uni01F2" format="2">
  <advance width="1156"/>
  <unicode hex="01F2"/>
  <outline>
    <contour>
      <point x="33" y="0" type="line"/>
      <point x="33" y="43" type="line"/>
      <point x="86" y="47" type="line" smooth="yes"/>
      <point x="98" y="48"/>
      <point x="108" y="57"/>
      <point x="108" y="69" type="curve" smooth="yes"/>
      <point x="108" y="602" type="line" smooth="yes"/>
      <point x="108" y="614"/>
      <point x="98" y="623"/>
      <point x="86" y="624" type="curve" smooth="yes"/>
      <point x="33" y="628" type="line"/>
      <point x="33" y="671" type="line"/>
      <point x="291" y="671" type="line" smooth="yes"/>
      <point x="514" y="671"/>
      <point x="657" y="561"/>
      <point x="657" y="337" type="curve" smooth="yes"/>
      <point x="657" y="119"/>
      <point x="529" y="0"/>
      <point x="311" y="0" type="curve" smooth="yes"/>
    </contour>
    <contour>
      <point x="208" y="48" type="line"/>
      <point x="289" y="48" type="line" smooth="yes"/>
      <point x="466" y="48"/>
      <point x="544" y="154"/>
      <point x="544" y="335" type="curve" smooth="yes"/>
      <point x="544" y="519"/>
      <point x="465" y="623"/>
      <point x="284" y="623" type="curve" smooth="yes"/>
      <point x="208" y="623" type="line"/>
    </contour>
    <contour>
      <point x="729" y="0" type="line"/>
      <point x="729" y="53" type="line"/>
      <point x="995" y="435" type="line"/>
      <point x="821" y="435" type="line" smooth="yes"/>
      <point x="811" y="435"/>
      <point x="802" y="423"/>
      <point x="801" y="414" type="curve" smooth="yes"/>
      <point x="791" y="340" type="line"/>
      <point x="740" y="340" type="line"/>
      <point x="740" y="482" type="line"/>
      <point x="1110" y="482" type="line"/>
      <point x="1110" y="441" type="line"/>
      <point x="836" y="48" type="line"/>
      <point x="1038" y="48" type="line" smooth="yes"/>
      <point x="1049" y="48"/>
      <point x="1057" y="63"/>
      <point x="1059" y="72" type="curve"/>
      <point x="1069" y="151" type="line"/>
      <point x="1123" y="151" type="line"/>
      <point x="1123" y="0" type="line"/>
    </contour>
  </outline>
</glyph>
<glyph name="uni01F7" format="2">
  <advance width="583"/>
  <unicode hex="01F7"/>
  <outline>
    <contour>
      <point x="24" y="600" type="line"/>
      <point x="24" y="633" type="line"/>
      <point x="152" y="672" type="line"/>
      <point x="201" y="672" type="line"/>
      <point x="201" y="591" type="line"/>
      <point x="244" y="639"/>
      <point x="307" y="688"/>
      <point x="395" y="688" type="curve" smooth="yes"/>
      <point x="499" y="688"/>
      <point x="550" y="611"/>
      <point x="550" y="508" type="curve" smooth="yes"/>
      <point x="550" y="283"/>
      <point x="340" y="126"/>
      <point x="202" y="26" type="curve"/>
      <point x="202" y="-153" type="line" smooth="yes"/>
      <point x="202" y="-164"/>
      <point x="212" y="-174"/>
      <point x="222" y="-175" type="curve"/>
      <point x="276" y="-178" type="line"/>
      <point x="276" y="-217" type="line"/>
      <point x="25" y="-217" type="line"/>
      <point x="25" y="-178" type="line"/>
      <point x="78" y="-175" type="line"/>
      <point x="87" y="-174"/>
      <point x="100" y="-163"/>
      <point x="100" y="-154" type="curve" smooth="yes"/>
      <point x="100" y="600" type="line"/>
    </contour>
    <contour>
      <point x="202" y="509" type="curve"/>
      <point x="202" y="94" type="line"/>
      <point x="303" y="187"/>
      <point x="438" y="312"/>
      <point x="438" y="488" type="curve" smooth="yes"/>
      <point x="438" y="553"/>
      <point x="428" y="622"/>
      <point x="364" y="622" type="curve" smooth="yes"/>
      <point x="289" y="622"/>
      <point x="235" y="555"/>
    </contour>
  </outline>
</glyph>
<glyph name="Aringacute" format="2">
  <advance width="673"/>
  <unicode hex="01FA"/>
  <outline>
    <contour>
      <point x="5" y="0" type="line"/>
      <point x="5" y="43" type="line"/>
      <point x="63" y="56" type="line"/>
      <point x="296" y="688" type="line"/>
      <point x="371" y="688" type="line"/>
      <point x="603" y="71" type="line" smooth="yes"/>
      <point x="608" y="57"/>
      <point x="611" y="53"/>
      <point x="624" y="51" type="curve" smooth="yes"/>
      <point x="669" y="43" type="line"/>
      <point x="669" y="0" type="line"/>
      <point x="431" y="0" type="line"/>
      <point x="431" y="43" type="line"/>
      <point x="489" y="49" type="line" smooth="yes"/>
      <point x="497" y="50"/>
      <point x="500" y="54"/>
      <point x="500" y="61" type="curve"/>
      <point x="500" y="63"/>
      <point x="499" y="65"/>
      <point x="499" y="66" type="curve"/>
      <point x="430" y="249" type="line"/>
      <point x="199" y="249" type="line"/>
      <point x="133" y="69" type="line"/>
      <point x="133" y="68"/>
      <point x="132" y="65"/>
      <point x="132" y="63" type="curve"/>
      <point x="132" y="54"/>
      <point x="138" y="50"/>
      <point x="147" y="49" type="curve" smooth="yes"/>
      <point x="206" y="43" type="line"/>
      <point x="206" y="0" type="line"/>
    </contour>
    <contour>
      <point x="214" y="798" type="curve" smooth="yes"/>
      <point x="214" y="728"/>
      <point x="265" y="680"/>
      <point x="335" y="680" type="curve" smooth="yes"/>
      <point x="405" y="680"/>
      <point x="456" y="728"/>
      <point x="456" y="798" type="curve" smooth="yes"/>
      <point x="456" y="868"/>
      <point x="406" y="917"/>
      <point x="336" y="917" type="curve" smooth="yes"/>
      <point x="266" y="917"/>
      <point x="214" y="868"/>
    </contour>
    <contour>
      <point x="217" y="296" type="line"/>
      <point x="412" y="296" type="line"/>
      <point x="314" y="558" type="line"/>
    </contour>
    <contour>
      <point x="267" y="798" type="curve" smooth="yes"/>
      <point x="267" y="838"/>
      <point x="295" y="869"/>
      <point x="335" y="869" type="curve" smooth="yes"/>
      <point x="375" y="869"/>
      <point x="403" y="838"/>
      <point x="403" y="798" type="curve" smooth="yes"/>
      <point x="403" y="758"/>
      <point x="375" y="729"/>
      <point x="335" y="729" type="curve" smooth="yes"/>
      <point x="295" y="729"/>
      <point x="267" y="758"/>
    </contour>
    <contour>
      <point x="308" y="977" type="line"/>
      <point x="440" y="1132" type="line"/>
      <point x="452" y="1147"/>
      <point x="465" y="1159"/>
      <point x="493" y="1159" type="curve" smooth="yes"/>
      <point x="523" y="1159"/>
      <point x="540" y="1143"/>
      <point x="540" y="1114" type="curve" smooth="yes"/>
      <point x="540" y="1095"/>
      <point x="528" y="1081"/>
      <point x="517" y="1074" type="curve" smooth="yes"/>
      <point x="364" y="977" type="line"/>
    </contour>
  </outline>
</glyph>
<glyph name="oslashacute" format="2">
  <advance width="543"/>
  <unicode hex="01FF"/>
  <outline>
    <contour>
      <point x="246" y="621" type="line"/>
      <point x="378" y="776" type="line"/>
      <point x="390" y="791"/>
      <point x="403" y="803"/>
      <point x="431" y="803" type="curve" smooth="yes"/>
      <point x="461" y="803"/>
      <point x="478" y="787"/>
      <point x="478" y="758" type="curve" smooth="yes"/>
      <point x="478" y="739"/>
      <point x="466" y="725"/>
      <point x="455" y="718" type="curve" smooth="yes"/>
      <point x="302" y="621" type="line"/>
    </contour>
    <contour>
      <point x="36" y="239" type="curve" smooth="yes"/>
      <point x="36" y="387"/>
      <point x="127" y="494"/>
      <point x="275" y="494" type="curve" smooth="yes"/>
      <point x="314" y="494"/>
      <point x="346" y="487"/>
      <point x="374" y="474" type="curve"/>
      <point x="424" y="561" type="line"/>
      <point x="460" y="541" type="line"/>
      <point x="410" y="454" type="line"/>
      <point x="471" y="411"/>
      <point x="512" y="340"/>
      <point x="512" y="238" type="curve" smooth="yes"/>
      <point x="512" y="91"/>
      <point x="420" y="-13"/>
      <point x="273" y="-13" type="curve" smooth="yes"/>
      <point x="227" y="-13"/>
      <point x="190" y="-2"/>
      <point x="159" y="14" type="curve"/>
      <point x="104" y="-83" type="line"/>
      <point x="69" y="-62" type="line"/>
      <point x="125" y="36" type="line"/>
      <point x="72" y="78"/>
      <point x="36" y="148"/>
    </contour>
    <contour>
      <point x="139" y="242" type="curve" smooth="yes"/>
      <point x="139" y="190"/>
      <point x="148" y="145"/>
      <point x="166" y="108" type="curve"/>
      <point x="346" y="424" type="line"/>
      <point x="339" y="431"/>
      <point x="305" y="449"/>
      <point x="274" y="449" type="curve" smooth="yes"/>
      <point x="172" y="449"/>
      <point x="139" y="344"/>
    </contour>
    <contour>
      <point x="192" y="70" type="line"/>
      <point x="211" y="50"/>
      <point x="235" y="34"/>
      <point x="272" y="34" type="curve" smooth="yes"/>
      <point x="373" y="34"/>
      <point x="406" y="140"/>
      <point x="406" y="241" type="curve" smooth="yes"/>
      <point x="406" y="299"/>
      <point x="394" y="351"/>
      <point x="373" y="388" type="curve"/>
    </contour>
  </outline>
</glyph>
